<svg width="16" height="18" viewBox="0 0 16 18" fill="none" xmlns="http://www.w3.org/2000/svg">
<path d="M9.98627 15.3C10.755 15.3 11.1611 16.2216 10.6483 16.8012C10.315 17.1783 9.90676 17.4801 9.45042 17.6866C8.99409 17.8932 8.49986 18 8.00002 18C7.50017 18 7.00594 17.8932 6.54961 17.6866C6.09327 17.4801 5.68508 17.1783 5.35168 16.8012C4.86112 16.2468 5.21127 15.3801 5.91512 15.3063L6.01288 15.3009L9.98627 15.3ZM8.00002 0C9.20687 0 10.2271 0.8127 10.555 1.9269L10.5959 2.0808L10.603 2.1195C11.5829 2.67904 12.4178 3.46578 13.0394 4.41522C13.661 5.36466 14.0516 6.44977 14.1792 7.5816L14.2041 7.8399L14.2209 8.1V10.7379L14.2396 10.8603C14.3613 11.5234 14.7236 12.1164 15.2554 12.5226L15.4038 12.6279L15.5478 12.717C16.3121 13.1553 16.0454 14.3064 15.2127 14.3946L15.1096 14.4H0.890392C-0.0231948 14.4 -0.342239 13.1724 0.452261 12.717C0.790883 12.5229 1.08346 12.2562 1.30945 11.9354C1.53544 11.6147 1.68937 11.2477 1.76043 10.8603L1.77909 10.7316L1.77998 8.0586C1.83417 6.88309 2.17204 5.73895 2.76403 4.72632C3.35602 3.71369 4.18407 2.86345 5.17572 2.25L5.39612 2.1186L5.405 2.0799C5.53036 1.54155 5.81597 1.05517 6.22319 0.686561C6.6304 0.31795 7.13958 0.0848888 7.68186 0.0188999L7.8436 0.00359995L8.00002 0Z" fill="#1F1F1F"/>
</svg>
