<svg width="14" height="14" viewBox="0 0 14 14" fill="none" xmlns="http://www.w3.org/2000/svg">
<path d="M13.5262 6.22594L10.737 8.67188L11.5868 12.3298C11.6336 12.5283 11.6216 12.7366 11.5521 12.9282C11.4826 13.1198 11.3587 13.2861 11.1962 13.4062C11.0337 13.5264 10.8399 13.5948 10.6391 13.603C10.4383 13.6112 10.2396 13.5588 10.0682 13.4523L6.9381 11.4945L3.80613 13.4523C3.63471 13.5581 3.43629 13.6101 3.23586 13.6016C3.03543 13.5931 2.84195 13.5246 2.67979 13.4045C2.51763 13.2845 2.39404 13.1184 2.32458 12.9272C2.25511 12.7359 2.24288 12.5281 2.28943 12.3298L3.1423 8.67188L0.353105 6.22594C0.201433 6.09272 0.0917415 5.91704 0.0377287 5.72084C-0.0162842 5.52465 -0.0122242 5.31662 0.0494015 5.12276C0.111027 4.92889 0.227487 4.75777 0.384238 4.63077C0.540989 4.50377 0.731082 4.42651 0.930779 4.40865L4.58773 4.10881L5.99844 0.639271C6.0748 0.450183 6.20477 0.288442 6.37181 0.17461C6.53885 0.0607793 6.73543 0 6.93655 0C7.13766 0 7.33424 0.0607793 7.50128 0.17461C7.66833 0.288442 7.79829 0.450183 7.87465 0.639271L9.28474 4.10881L12.9417 4.40865C13.1418 4.42585 13.3324 4.50267 13.4898 4.6295C13.6471 4.75633 13.7641 4.92751 13.8261 5.12162C13.8881 5.31572 13.8924 5.5241 13.8383 5.72066C13.7843 5.91721 13.6745 6.0932 13.5225 6.22657L13.5262 6.22594Z" fill="url(#paint0_linear_683_205)"/>
<defs>
<linearGradient id="paint0_linear_683_205" x1="6.93797" y1="0" x2="6.93797" y2="13.6039" gradientUnits="userSpaceOnUse">
<stop stop-color="#BA68C8"/>
<stop offset="1" stop-color="#840000"/>
</linearGradient>
</defs>
</svg>
