<svg width="16" height="15" viewBox="0 0 16 15" fill="none" xmlns="http://www.w3.org/2000/svg">
<path d="M15.0988 7.07855L13.4589 5.19768L13.6874 2.71007L11.2611 2.15727L9.99081 0L7.70566 0.984256L5.4205 0L4.15022 2.15053L1.72392 2.69659L1.95244 5.19094L0.3125 7.07855L1.95244 8.95943L1.72392 11.4538L4.15022 12.0066L5.4205 14.1571L7.70566 13.1661L9.99081 14.1504L11.2611 11.9998L13.6874 11.447L13.4589 8.95943L15.0988 7.07855ZM6.42194 10.2605L3.86794 7.69203L4.86265 6.69429L6.42194 8.26505L10.3537 4.30781L11.3485 5.30554L6.42194 10.2605Z" fill="url(#paint0_linear_683_207)"/>
<defs>
<linearGradient id="paint0_linear_683_207" x1="7.70566" y1="0" x2="7.70566" y2="14.1571" gradientUnits="userSpaceOnUse">
<stop stop-color="#BA68C8"/>
<stop offset="1" stop-color="#840000"/>
</linearGradient>
</defs>
</svg>
