<svg width="18" height="26" viewBox="0 0 18 26" fill="none" xmlns="http://www.w3.org/2000/svg">
<path d="M6.678 0.98599C6.979 0.674137 7.33972 0.42611 7.73867 0.256708C8.13761 0.0873057 8.56658 0 9 0C9.43342 0 9.86239 0.0873057 10.2613 0.256708C10.6603 0.42611 11.021 0.674137 11.322 0.98599L11.6614 1.33828H14.9979C16.6519 1.33828 18 2.67156 18 4.32499V7.39206H16.7143V4.32499C16.7119 3.87192 16.5298 3.43831 16.208 3.11938C15.8862 2.80045 15.4509 2.62228 14.9979 2.62399H11.3876C11.3011 2.62391 11.2156 2.60639 11.136 2.57248C11.0565 2.53857 10.9846 2.48896 10.9247 2.42663L10.3956 1.87699C10.2146 1.68977 9.99775 1.54089 9.75798 1.43921C9.51821 1.33753 9.26044 1.28513 9 1.28513C8.73956 1.28513 8.48179 1.33753 8.24202 1.43921C8.00225 1.54089 7.7854 1.68977 7.60436 1.87699L7.07529 2.42663C7.01537 2.48896 6.9435 2.53857 6.86397 2.57248C6.78444 2.60639 6.69889 2.62391 6.61243 2.62399H3.21429C2.14521 2.62399 1.28571 3.48413 1.28571 4.53585V16.0513C2.07877 16.0429 2.87192 16.0558 3.66429 16.0899L4.005 16.1028C4.83043 16.1336 5.59993 16.1626 6.35271 16.1471C8.0415 16.1111 9.594 15.8476 11.2449 14.8736C13.2493 13.6908 14.9464 14.0456 16.1196 14.7283C16.3369 14.855 16.5356 14.9919 16.7143 15.1308V11.8921H18V18.6588C18 20.4292 16.5568 21.8563 14.7857 21.8563H12.8571V23.1421H9.64286V25.7135H8.35714V23.1421H5.14286V21.8563H3.21429C1.44321 21.8563 0 20.4292 0 18.6588V4.5352C0 2.76606 1.44321 1.33828 3.21429 1.33828H6.33857L6.678 0.98599Z" fill="#840000"/>
</svg>
