<svg width="200" height="200" viewBox="0 0 200 200" fill="none" xmlns="http://www.w3.org/2000/svg">
<path d="M200 100C200 119.778 194.135 139.112 183.147 155.557C172.159 172.002 156.541 184.819 138.268 192.388C119.996 199.957 99.8891 201.937 80.491 198.079C61.0929 194.22 43.2746 184.696 29.2893 170.711C15.3041 156.725 5.77999 138.907 1.92147 119.509C-1.93705 100.111 0.0432836 80.0043 7.61205 61.7317C15.1808 43.459 27.9981 27.8412 44.443 16.853C60.8879 5.8649 80.2219 -2.35852e-07 100 0L100 100H200Z" fill="url(#paint0_linear_26_480)"/>
<path d="M200 100C200 73.4784 189.464 48.043 170.711 29.2893C151.957 10.5357 126.522 1.14872e-05 100 0L100 100H200Z" fill="#B60D22"/>
<defs>
<linearGradient id="paint0_linear_26_480" x1="100" y1="0" x2="100" y2="200" gradientUnits="userSpaceOnUse">
<stop offset="1" stop-color="#840000"/>
</linearGradient>
</defs>
</svg>
