<svg width="223" height="219" viewBox="0 0 223 219" fill="none" xmlns="http://www.w3.org/2000/svg">
<path d="M191.109 113.884C149.458 89.8379 82.1537 89.8379 40.7725 113.884C-0.608567 137.93 -0.390136 176.918 41.2373 200.964C82.8647 225.01 150.197 225.014 191.578 200.964C232.96 176.913 232.764 137.93 191.109 113.884Z" fill="#F5F5F5"/>
<path d="M43.5057 156.304L78.2781 136.24L120.519 160.616C120.771 160.762 120.98 160.972 121.125 161.224C121.271 161.476 121.347 161.762 121.347 162.053C121.347 162.344 121.271 162.629 121.125 162.881C120.98 163.133 120.771 163.343 120.519 163.489L109.109 170.069C116.136 169.228 123.721 170.385 129.154 173.541C137.738 178.528 137.691 186.614 129.056 191.606C120.421 196.597 106.456 196.593 97.8718 191.606C92.4343 188.446 90.4637 184.044 91.9463 179.987L89.8689 181.182C88.6104 181.908 87.1831 182.29 85.7303 182.29C84.2774 182.29 82.8502 181.908 81.5917 181.182L43.5057 159.176C43.2538 159.03 43.0447 158.821 42.8993 158.569C42.754 158.317 42.6775 158.031 42.6775 157.74C42.6775 157.449 42.754 157.163 42.8993 156.911C43.0447 156.659 43.2538 156.449 43.5057 156.304Z" fill="#E6E6E6"/>
<path d="M42.4448 192.627L65.6357 179.238C65.7921 179.147 65.922 179.018 66.0123 178.862C66.1026 178.705 66.1501 178.528 66.1501 178.348C66.1501 178.167 66.1026 177.99 66.0123 177.834C65.922 177.677 65.7921 177.548 65.6357 177.458L45.1868 165.579C45.031 165.488 44.8538 165.44 44.6733 165.44C44.4928 165.44 44.3156 165.488 44.1597 165.579L20.4483 179.265C20.2919 179.356 20.1621 179.485 20.0718 179.641C19.9814 179.798 19.9339 179.975 19.9339 180.155C19.9339 180.336 19.9814 180.513 20.0718 180.669C20.1621 180.826 20.2919 180.955 20.4483 181.045L40.372 192.622C40.6863 192.806 41.0437 192.904 41.4078 192.904C41.7719 192.905 42.1298 192.81 42.4448 192.627Z" fill="#E6E6E6"/>
<path d="M206.482 172.886C207.588 173.528 207.593 174.564 206.482 175.21L201.96 177.817C201.341 178.134 200.655 178.298 199.96 178.298C199.264 178.298 198.578 178.134 197.959 177.817L148.342 149.147C147.232 148.51 147.227 147.469 148.342 146.823L152.864 144.211C153.484 143.895 154.17 143.73 154.865 143.73C155.561 143.73 156.246 143.895 156.866 144.211L206.482 172.886Z" fill="#E6E6E6"/>
<path d="M192.559 176.984C193.67 177.626 193.675 178.662 192.559 179.308L188.037 181.92C187.418 182.236 186.732 182.401 186.037 182.401C185.341 182.401 184.655 182.236 184.036 181.92L141.651 157.437C140.545 156.8 140.535 155.759 141.651 155.113L146.173 152.501C146.792 152.185 147.478 152.02 148.174 152.02C148.869 152.02 149.555 152.185 150.174 152.501L192.559 176.984Z" fill="#E6E6E6"/>
<path d="M48.7314 45.4569L48.7639 57.8332L50.2651 58.7069L50.2233 44.5925L48.7314 45.4569Z" fill="#F0F0F0"/>
<path d="M32.5704 67.1852L32.575 68.9188L50.2633 58.7083L48.7622 57.8345L32.5704 67.1852Z" fill="#F5F5F5"/>
<path d="M52.0528 41.4695L30.7162 53.776L30.7673 72.0359L52.0807 59.7294L52.0528 41.4695ZM32.5752 68.9174V67.1839L32.5334 54.8077L48.7298 45.457L50.2217 44.6158L50.2635 58.7302L32.5752 68.9174Z" fill="#E0E0E0"/>
<path d="M52.0309 41.4698L50.5298 40.5961L29.2165 52.9026L30.7176 53.7717L52.0309 41.4698Z" fill="#F5F5F5"/>
<path d="M29.2165 52.9021L29.2676 71.176L30.7687 72.0497L30.7176 53.7712L29.2165 52.9021Z" fill="#F0F0F0"/>
<path d="M48.7171 73.2349L48.7543 85.6112L50.2554 86.4802L50.2136 72.3705L48.7171 73.2349Z" fill="#F0F0F0"/>
<path d="M32.5632 94.9568L32.5679 96.695L50.2561 86.4798L48.755 85.6107L32.5632 94.9568Z" fill="#F5F5F5"/>
<path d="M52.0188 69.2475L30.7055 81.5493L30.7566 99.8232L52.0513 87.5167L52.0188 69.2475ZM32.5645 96.6955V94.9573L32.5319 82.5811L48.7237 73.235L50.2202 72.3706L50.262 86.4803L32.5645 96.6955Z" fill="#E0E0E0"/>
<path d="M52.0202 69.2432L50.519 68.3741L29.2057 80.6759L30.7069 81.5497L52.0202 69.2432Z" fill="#F5F5F5"/>
<path d="M29.2057 80.6765L29.2568 98.9504L30.758 99.8241L30.7069 81.5503L29.2057 80.6765Z" fill="#F0F0F0"/>
<path d="M43.5869 50.1567L48.002 53.6376L48.0113 57.0303L33.3206 65.5119L33.3113 62.1146L36.1137 56.5563L38.628 58.5082L37.7357 61.2688L39.0277 58.8149L43.5869 50.1567Z" fill="#E0E0E0"/>
<path d="M38.759 51.8696C39.4515 51.4699 40.0139 51.7906 40.0185 52.5853C39.9949 53.0185 39.8694 53.44 39.6522 53.8156C39.4349 54.1911 39.1321 54.51 38.7683 54.7464C38.0759 55.1461 37.5135 54.8254 37.5135 54.0307C37.5362 53.5978 37.6609 53.1765 37.8773 52.8009C38.0938 52.4254 38.3959 52.1063 38.759 51.8696Z" fill="#E0E0E0"/>
<path d="M43.5715 77.9329L47.9866 81.4092L48.0005 84.8065L33.3099 93.2882L33.3006 89.8909L36.0983 84.3278L38.6126 86.2798L37.725 89.0404L39.0123 86.5912L43.5715 77.9329Z" fill="#E0E0E0"/>
<path d="M38.7483 79.644C39.4408 79.2444 40.0031 79.565 40.0031 80.3598C39.9815 80.7929 39.8574 81.2147 39.6408 81.5904C39.4243 81.9661 39.1215 82.285 38.7576 82.5208C38.0651 82.9205 37.5028 82.5998 37.5028 81.8051C37.5244 81.372 37.6485 80.9502 37.8651 80.5745C38.0816 80.1987 38.3844 79.8798 38.7483 79.644Z" fill="#E0E0E0"/>
<path d="M207.24 60.8265C206.841 60.0034 206.203 59.3198 205.409 58.8652L157.698 31.724C157.478 31.6397 157.246 31.5926 157.011 31.5846C154.557 31.5381 152.089 33.8479 151.74 35.0655C151.661 35.2194 151.62 35.3898 151.619 35.5628V138.713C151.619 139.519 151.832 140.31 152.237 141.007C152.642 141.703 153.224 142.28 153.925 142.678L201.636 169.866C201.694 169.894 201.755 169.919 201.817 169.94C204.666 171.148 207.696 168.639 207.696 166.008V62.8342C207.699 62.1389 207.544 61.4522 207.24 60.8265Z" fill="#263238"/>
<path d="M151.744 35.0709C152.092 33.8532 154.56 31.5434 157.014 31.5899C157.25 31.5979 157.482 31.6451 157.702 31.7293L205.418 58.866C206.115 59.2687 206.696 59.8458 207.104 60.5408C207.511 61.2358 207.731 62.0247 207.741 62.8303V166.004C207.741 168.635 204.711 171.144 201.862 169.936C201.8 169.915 201.74 169.89 201.681 169.862L153.924 142.679C153.224 142.28 152.643 141.703 152.239 141.006C151.835 140.31 151.622 139.519 151.623 138.714V35.5682C151.623 35.3952 151.665 35.2247 151.744 35.0709Z" fill="#455A64"/>
<path d="M201.056 73.7378C201.055 73.335 200.948 72.9396 200.746 72.5912C200.544 72.2429 200.253 71.9539 199.904 71.7534L155.604 46.5547C155.431 46.4564 155.235 46.4052 155.036 46.4062C154.837 46.4073 154.641 46.4605 154.469 46.5607C154.297 46.6609 154.154 46.8045 154.055 46.9771C153.955 47.1498 153.903 47.3455 153.903 47.5447V130.758C153.904 131.16 154.011 131.555 154.213 131.903C154.415 132.25 154.706 132.538 155.056 132.738L199.374 157.983C199.548 158.081 199.744 158.132 199.944 158.13C200.144 158.129 200.34 158.075 200.512 157.975C200.685 157.874 200.828 157.73 200.927 157.557C201.027 157.384 201.08 157.188 201.08 156.988L201.056 73.7378Z" fill="#A40F0F"/>
<path opacity="0.2" d="M201.056 73.7378C201.055 73.335 200.948 72.9396 200.746 72.5912C200.544 72.2429 200.253 71.9539 199.904 71.7534L155.604 46.5547C155.431 46.4564 155.235 46.4052 155.036 46.4062C154.837 46.4073 154.641 46.4605 154.469 46.5607C154.297 46.6609 154.154 46.8045 154.055 46.9771C153.955 47.1498 153.903 47.3455 153.903 47.5447V130.758C153.904 131.16 154.011 131.555 154.213 131.903C154.415 132.25 154.706 132.538 155.056 132.738L199.374 157.983C199.548 158.081 199.744 158.132 199.944 158.13C200.144 158.129 200.34 158.075 200.512 157.975C200.685 157.874 200.828 157.73 200.927 157.557C201.027 157.384 201.08 157.188 201.08 156.988L201.056 73.7378Z" fill="black"/>
<path opacity="0.3" d="M207.714 62.8297V166.004C207.714 168.634 204.684 171.144 201.835 169.935C202.006 169.997 202.19 170.017 202.371 169.993C202.551 169.969 202.723 169.902 202.873 169.798C203.022 169.693 203.144 169.555 203.229 169.394C203.313 169.232 203.358 169.053 203.359 168.871V65.6972C203.356 64.7998 203.088 63.9234 202.588 63.1782L207.259 60.8545C207.557 61.4703 207.713 62.1454 207.714 62.8297Z" fill="black"/>
<path opacity="0.1" d="M157.01 31.6049C157.246 31.6129 157.478 31.66 157.698 31.7443L205.418 58.867C206.212 59.3216 206.85 60.0051 207.25 60.8282L202.579 63.152C202.187 62.556 201.662 62.0595 201.045 61.7019L153.33 34.5746C153.194 34.4982 153.044 34.4504 152.889 34.4341C152.734 34.4178 152.578 34.4335 152.429 34.4801C152.281 34.5267 152.144 34.6033 152.026 34.705C151.908 34.8068 151.812 34.9317 151.745 35.0719C152.089 33.8496 154.556 31.5398 157.01 31.6049Z" fill="white"/>
<path d="M171.605 51.6158C171.27 51.4206 170.991 51.5694 170.991 51.9551C171.002 52.1671 171.063 52.3735 171.169 52.5576C171.275 52.7417 171.423 52.8983 171.6 53.0147L180.96 58.4151C181.295 58.6103 181.564 58.4476 181.564 58.0619C181.554 57.8532 181.495 57.6499 181.39 57.4689C181.286 57.2879 181.14 57.1343 180.965 57.0208L171.605 51.6158Z" fill="#263238"/>
<path d="M183.366 58.4056C183.031 58.215 182.757 58.3684 182.757 58.7541C182.769 58.9641 182.83 59.1684 182.935 59.3508C183.04 59.5331 183.186 59.6884 183.361 59.8045C183.696 59.9997 183.974 59.837 183.974 59.4559C183.962 59.2454 183.901 59.0407 183.795 58.8583C183.689 58.6759 183.542 58.5208 183.366 58.4056Z" fill="#263238"/>
<path d="M177.376 50.8305C176.707 50.4447 176.163 50.7515 176.163 51.5183C176.184 51.9392 176.304 52.3492 176.513 52.7151C176.722 53.0809 177.015 53.3922 177.367 53.6236C178.036 54.0093 178.589 53.6933 178.594 52.9218C178.569 52.5022 178.446 52.0943 178.235 51.731C178.023 51.3677 177.729 51.0592 177.376 50.8305Z" fill="#263238"/>
<path d="M177.368 147.975C176.006 147.19 174.905 147.813 174.9 149.369C174.943 150.225 175.187 151.059 175.613 151.802C176.038 152.546 176.633 153.179 177.349 153.65C178.716 154.435 179.845 153.794 179.85 152.223C179.798 151.37 179.547 150.541 179.116 149.803C178.684 149.065 178.086 148.439 177.368 147.975Z" fill="#263238"/>
<path d="M193.8 77.4926C193.742 77.0272 193.607 76.5747 193.4 76.1541C193.309 75.9703 193.205 75.7932 193.089 75.6243C192.738 75.1092 192.276 74.6802 191.736 74.3695L148.431 49.7379L148.366 49.71C148.308 49.6907 148.249 49.6751 148.189 49.6635C148.062 49.6379 147.933 49.6224 147.804 49.617C147.1 49.6123 146.404 49.7714 145.773 50.0818C145.155 50.3863 144.587 50.781 144.086 51.253L143.821 51.5179C143.468 51.8655 143.195 52.2858 143.021 52.7494C142.987 52.8177 142.961 52.8893 142.942 52.9632C142.92 53.0401 142.909 53.12 142.91 53.2003V146.861C142.912 147.591 143.106 148.308 143.473 148.94C143.841 149.571 144.367 150.095 145.001 150.458L188.306 175.136C188.36 175.162 188.416 175.184 188.474 175.201C191.058 176.298 193.809 174.021 193.809 171.632V77.9713C193.815 77.8117 193.812 77.6518 193.8 77.4926Z" fill="#A40F0F"/>
<path d="M143.012 52.7715C143.328 51.6701 145.568 49.5694 147.794 49.6159C148.009 49.6209 148.221 49.6618 148.422 49.7367L191.727 74.3684C192.446 74.7847 193.026 75.406 193.391 76.153C193.671 76.7179 193.817 77.3397 193.818 77.9701V171.635C193.818 174.024 191.067 176.283 188.483 175.205C188.426 175.187 188.37 175.165 188.316 175.14L145.001 150.447C144.366 150.085 143.839 149.562 143.471 148.93C143.104 148.299 142.91 147.581 142.91 146.85V53.2223C142.909 53.0663 142.944 52.9121 143.012 52.7715Z" fill="#A40F0F"/>
<path opacity="0.2" d="M193.804 77.9701V171.635C193.804 174.024 191.052 176.283 188.468 175.205C188.625 175.264 188.793 175.285 188.959 175.265C189.125 175.245 189.283 175.185 189.421 175.089C189.558 174.994 189.67 174.867 189.747 174.718C189.824 174.57 189.864 174.405 189.863 174.238V80.5587C189.861 79.7445 189.618 78.949 189.166 78.2722L193.404 76.1529C193.674 76.7202 193.811 77.3418 193.804 77.9701Z" fill="white"/>
<path opacity="0.4" d="M147.79 49.6123C148.004 49.6174 148.217 49.6582 148.417 49.7332L191.723 74.3648C192.442 74.7811 193.022 75.4024 193.386 76.1494L189.153 78.2733C188.798 77.7312 188.32 77.2806 187.758 76.9581L144.453 52.3265C144.33 52.2569 144.193 52.2138 144.052 52.1997C143.911 52.1855 143.768 52.2008 143.633 52.2445C143.499 52.2881 143.374 52.3592 143.268 52.4533C143.162 52.5474 143.077 52.6625 143.017 52.7912C143.324 51.6665 145.564 49.5659 147.79 49.6123Z" fill="white"/>
<path opacity="0.3" d="M143.012 52.7715C143.328 51.6701 145.568 49.5694 147.794 49.6159C148.009 49.6209 148.221 49.6618 148.422 49.7367L191.727 74.3684C192.446 74.7847 193.026 75.406 193.391 76.153C193.671 76.7179 193.817 77.3397 193.818 77.9701V171.635C193.818 174.024 191.067 176.283 188.483 175.205C188.426 175.187 188.37 175.165 188.316 175.14L145.001 150.447C144.366 150.085 143.839 149.562 143.471 148.93C143.104 148.299 142.91 147.581 142.91 146.85V53.2223C142.909 53.0663 142.944 52.9121 143.012 52.7715Z" fill="white"/>
<path d="M147.273 58.3102L147.756 58.5937L147.766 56.507L147.278 56.2281L147.273 58.3102Z" fill="white"/>
<path d="M146.439 57.8328L146.922 58.1117L146.927 56.4246L146.444 56.1458L146.439 57.8328Z" fill="white"/>
<path d="M145.601 57.3494L146.085 57.6283L146.089 56.3781L145.606 56.0992L145.601 57.3494Z" fill="white"/>
<path d="M144.771 56.8699L145.254 57.1488V56.3029L144.771 56.0241V56.8699Z" fill="white"/>
<path d="M149.073 59.3565L152.043 61.0714L152.048 59.3193L149.078 57.6044L149.073 59.3565Z" fill="white"/>
<path d="M153.523 61.9219L155.005 62.777L155.01 61.0295L153.527 60.1744L153.523 61.9219Z" fill="white"/>
<path d="M184.162 79.3919L184.167 77.9838L185.761 78.904L184.167 77.9838L184.162 79.3919Z" fill="white"/>
<path d="M184.162 79.3919L185.757 80.3121L185.761 78.904L184.167 77.9838L184.162 79.3919Z" fill="#A40F0F"/>
<path d="M186.888 79.7639V79.2154L183.876 77.4773V79.5594L186.888 81.2975V80.7491L187.273 80.9722V79.9869L186.888 79.7639ZM185.758 80.3123L184.164 79.3828V77.9885L185.758 78.918V80.3123Z" fill="white"/>
<path d="M179.559 76.9242L182.529 78.6345L182.534 76.8871L179.564 75.1721L179.559 76.9242Z" fill="white"/>
<path d="M165.392 68.6386L168.362 70.3535L168.366 68.6061L165.397 66.8912L165.392 68.6386Z" fill="white"/>
<path d="M181.941 85.2858L138.306 60.0918C138.181 60.0047 138.036 59.9499 137.884 59.932C137.733 59.9142 137.579 59.934 137.437 59.9896H137.414L136.484 60.5194L137.056 61.0864L137.023 73.5463V73.839V77.1992C137.047 77.6366 137.173 78.0623 137.392 78.4418C137.611 78.8213 137.916 79.1439 138.283 79.3835L180.217 103.639L181.83 105.228L182.731 104.712C182.764 104.697 182.795 104.678 182.824 104.656H182.866C182.968 104.562 183.047 104.445 183.097 104.316C183.148 104.186 183.169 104.047 183.159 103.908V100.832V100.255L183.196 87.5073C183.179 87.0639 183.056 86.631 182.838 86.2446C182.619 85.8582 182.312 85.5295 181.941 85.2858Z" fill="#A40F0F"/>
<path opacity="0.2" d="M181.941 85.2858L138.306 60.0918C138.181 60.0047 138.036 59.9499 137.884 59.932C137.733 59.9142 137.579 59.934 137.437 59.9896H137.414L136.484 60.5194L137.056 61.0864L137.023 73.5463V73.839V77.1992C137.047 77.6366 137.173 78.0623 137.392 78.4418C137.611 78.8213 137.916 79.1439 138.283 79.3835L180.217 103.639L181.83 105.228L182.731 104.712C182.764 104.697 182.795 104.678 182.824 104.656H182.866C182.968 104.562 183.047 104.445 183.097 104.316C183.148 104.186 183.169 104.047 183.159 103.908V100.832V100.255L183.196 87.5073C183.179 87.0639 183.056 86.631 182.838 86.2446C182.619 85.8582 182.312 85.5295 181.941 85.2858Z" fill="black"/>
<path d="M181.005 85.8117C181.372 86.0513 181.677 86.3739 181.896 86.7534C182.115 87.1329 182.241 87.5586 182.265 87.996L182.227 100.739L136.064 74.0908V74.6717L182.227 101.316V104.388C182.227 105.192 181.656 105.517 180.959 105.113L137.314 79.9373C136.948 79.6982 136.643 79.3763 136.424 78.9977C136.206 78.6191 136.079 78.1943 136.055 77.7577L136.101 61.3567C136.101 60.5574 136.668 60.232 137.37 60.6317L181.005 85.8117Z" fill="#A40F0F"/>
<path d="M182.229 100.74V101.321L136.065 74.6721V74.0912L182.229 100.74Z" fill="#A40F0F"/>
<g opacity="0.2">
<path d="M182.23 100.74V101.321L136.067 74.6725V74.0916L182.23 100.74Z" fill="white"/>
</g>
<g opacity="0.6">
<path d="M159.683 89.7634L159.678 91.1855L137.524 78.391L137.528 76.9735L159.683 89.7634Z" fill="white"/>
</g>
<path d="M145.741 67.2354C145.961 67.3792 146.144 67.5728 146.275 67.8005C146.405 68.0283 146.481 68.2837 146.494 68.546V77.0694C146.494 77.5342 146.155 77.7433 145.732 77.5017L138.319 73.2167C138.099 73.0744 137.915 72.8819 137.783 72.6549C137.652 72.4279 137.576 72.1728 137.562 71.9107L137.585 63.3873C137.585 62.9225 137.929 62.7087 138.347 62.9504L145.741 67.2354Z" fill="white"/>
<g opacity="0.6">
<path d="M172.831 83.7806L172.826 85.6442L149.352 72.0922L149.356 70.2285L172.831 83.7806Z" fill="white"/>
</g>
<g opacity="0.6">
<path d="M162.446 84.3347L162.441 86.1984L149.335 78.6323L149.34 76.7686L162.446 84.3347Z" fill="white"/>
</g>
<g opacity="0.6">
<path d="M172.824 87.0523L172.819 88.9112L149.345 75.3592L149.35 73.5002L172.824 87.0523Z" fill="white"/>
</g>
<g opacity="0.5">
<path d="M180.482 87.3688L179.776 88.0009L180.608 89.7251L179.911 89.3207L179.409 88.2332L178.949 88.7677L178.247 88.3587L179.097 87.6105L178.419 86.179L179.107 86.5741L179.469 87.3735L179.785 86.9691L180.482 87.3688Z" fill="white"/>
</g>
<path d="M181.941 108.501L138.306 83.3067C138.18 83.2204 138.035 83.1664 137.884 83.1493C137.732 83.1323 137.579 83.1528 137.437 83.2091H137.414L136.484 83.7389L137.056 84.3059L137.023 96.7658V97.0586V100.419C137.048 100.855 137.174 101.28 137.393 101.659C137.612 102.037 137.917 102.359 138.283 102.598L180.249 126.83L181.862 128.42L182.764 127.899C182.797 127.886 182.828 127.869 182.857 127.848L182.899 127.825C183 127.73 183.079 127.614 183.13 127.484C183.181 127.355 183.202 127.215 183.191 127.077V124V123.419L183.228 110.676C183.2 110.237 183.069 109.812 182.845 109.434C182.622 109.056 182.312 108.736 181.941 108.501Z" fill="#A40F0F"/>
<path opacity="0.2" d="M181.941 108.501L138.306 83.3067C138.18 83.2204 138.035 83.1664 137.884 83.1493C137.732 83.1323 137.579 83.1528 137.437 83.2091H137.414L136.484 83.7389L137.056 84.3059L137.023 96.7658V97.0586V100.419C137.048 100.855 137.174 101.28 137.393 101.659C137.612 102.037 137.917 102.359 138.283 102.598L180.249 126.83L181.862 128.42L182.764 127.899C182.797 127.886 182.828 127.869 182.857 127.848L182.899 127.825C183 127.73 183.079 127.614 183.13 127.484C183.181 127.355 183.202 127.215 183.191 127.077V124V123.419L183.228 110.676C183.2 110.237 183.069 109.812 182.845 109.434C182.622 109.056 182.312 108.736 181.941 108.501Z" fill="black"/>
<path d="M181.007 109.031C181.373 109.27 181.678 109.593 181.897 109.972C182.116 110.352 182.242 110.778 182.266 111.215L182.229 123.958L136.065 97.3097V97.886L182.229 124.553V127.625C182.229 128.429 181.657 128.755 180.96 128.35L137.325 103.156C136.959 102.917 136.654 102.595 136.435 102.217C136.216 101.838 136.09 101.413 136.065 100.977L136.112 84.5757C136.112 83.7716 136.679 83.4463 137.381 83.8507L181.007 109.031Z" fill="#A40F0F"/>
<path d="M182.229 123.958V124.539L136.065 97.8853V97.309L182.229 123.958Z" fill="#A40F0F"/>
<g opacity="0.2">
<path d="M182.23 123.957V124.538L136.067 97.8848V97.3085L182.23 123.957Z" fill="white"/>
</g>
<path d="M145.741 90.455C145.961 90.5988 146.144 90.7924 146.275 91.0202C146.405 91.2479 146.481 91.5033 146.494 91.7656V100.284C146.494 100.749 146.155 100.958 145.732 100.721L138.319 96.4363C138.098 96.2936 137.914 96.1003 137.782 95.8725C137.65 95.6446 137.575 95.3886 137.562 95.1257L137.585 86.6069C137.585 86.1422 137.929 85.9284 138.347 86.1701L145.741 90.455Z" fill="white"/>
<g opacity="0.6">
<path d="M172.831 107.001L172.826 108.865L149.352 95.3078L149.356 93.4442L172.831 107.001Z" fill="white"/>
</g>
<g opacity="0.5">
<path d="M180.482 110.587L179.776 111.219L180.608 112.939L179.911 112.539L179.409 111.452L178.949 111.982L178.247 111.577L179.097 110.829L178.419 109.398L179.107 109.793L179.469 110.592L179.785 110.188L180.482 110.587Z" fill="white"/>
</g>
<path opacity="0.6" d="M137.527 100.19L137.522 101.608L150.4 109.044V107.622L137.527 100.19Z" fill="white"/>
<path opacity="0.6" d="M149.35 96.7148L149.345 98.5785L160.541 105.038V103.175L149.35 96.7148Z" fill="white"/>
<path d="M181.941 155.258L138.306 130.064C138.181 129.977 138.036 129.922 137.884 129.904C137.733 129.886 137.579 129.906 137.437 129.962H137.414L136.484 130.491L137.056 131.058L137.023 143.518V143.811V147.171C137.047 147.609 137.173 148.034 137.392 148.414C137.611 148.793 137.916 149.116 138.283 149.356L180.249 173.583L181.862 175.172L182.764 174.656L182.857 174.605L182.899 174.577C183 174.483 183.079 174.366 183.13 174.237C183.181 174.107 183.202 173.968 183.191 173.829V170.757V170.176L183.228 157.428C183.2 156.991 183.068 156.566 182.844 156.189C182.621 155.812 182.311 155.493 181.941 155.258Z" fill="#A40F0F"/>
<path opacity="0.2" d="M181.941 155.258L138.306 130.064C138.181 129.977 138.036 129.922 137.884 129.904C137.733 129.886 137.579 129.906 137.437 129.962H137.414L136.484 130.491L137.056 131.058L137.023 143.518V143.811V147.171C137.047 147.609 137.173 148.034 137.392 148.414C137.611 148.793 137.916 149.116 138.283 149.356L180.249 173.583L181.862 175.172L182.764 174.656L182.857 174.605L182.899 174.577C183 174.483 183.079 174.366 183.13 174.237C183.181 174.107 183.202 173.968 183.191 173.829V170.757V170.176L183.228 157.428C183.2 156.991 183.068 156.566 182.844 156.189C182.621 155.812 182.311 155.493 181.941 155.258Z" fill="black"/>
<path d="M181.007 155.788C181.373 156.027 181.677 156.349 181.896 156.727C182.115 157.106 182.242 157.531 182.266 157.967L182.229 170.715L136.065 144.072V144.652L182.229 171.301V174.378C182.229 175.177 181.657 175.502 180.96 175.103L137.325 149.909C136.958 149.669 136.653 149.347 136.434 148.967C136.215 148.588 136.089 148.162 136.065 147.724L136.112 131.328C136.112 130.524 136.679 130.199 137.381 130.603L181.007 155.788Z" fill="#A40F0F"/>
<path d="M182.229 170.717V171.293L136.065 144.644V144.063L182.229 170.717Z" fill="#A40F0F"/>
<g opacity="0.2">
<path d="M182.23 170.716V171.293L136.067 144.644V144.063L182.23 170.716Z" fill="white"/>
</g>
<path d="M145.741 137.209C145.961 137.353 146.143 137.547 146.274 137.775C146.405 138.002 146.48 138.258 146.494 138.52V147.043C146.494 147.508 146.155 147.717 145.732 147.475L138.319 143.195C138.098 143.052 137.915 142.858 137.783 142.631C137.652 142.403 137.576 142.147 137.562 141.885L137.566 133.384C137.566 132.92 137.91 132.71 138.328 132.952L145.741 137.209Z" fill="white"/>
<g opacity="0.6">
<path d="M172.831 153.754L172.826 155.618L149.352 142.066L149.356 140.202L172.831 153.754Z" fill="white"/>
</g>
<g opacity="0.5">
<path d="M180.482 157.345L179.776 157.977L180.608 159.697L179.911 159.297L179.409 158.209L178.949 158.739L178.247 158.335L179.097 157.582L178.419 156.151L179.107 156.55L179.469 157.35L179.785 156.941L180.482 157.345Z" fill="white"/>
</g>
<path opacity="0.6" d="M137.527 146.945L137.522 148.367L150.4 155.798V154.376L137.527 146.945Z" fill="white"/>
<path opacity="0.6" d="M149.35 143.474L149.345 145.333L154.406 148.252V146.388L149.35 143.474Z" fill="white"/>
<path d="M181.941 131.72L138.306 106.526C138.181 106.438 138.036 106.382 137.884 106.365C137.732 106.348 137.578 106.37 137.437 106.429H137.414L136.484 106.963L137.056 107.526L137.023 119.99V120.283V123.643C137.048 124.08 137.174 124.504 137.393 124.883C137.612 125.262 137.917 125.584 138.283 125.823L180.249 150.055L181.862 151.644L182.764 151.124L182.857 151.072L182.899 151.049C183.001 150.954 183.08 150.837 183.131 150.706C183.182 150.576 183.202 150.436 183.191 150.296V147.224V146.643L183.228 133.9C183.201 133.461 183.07 133.035 182.846 132.656C182.623 132.277 182.312 131.956 181.941 131.72Z" fill="#A40F0F"/>
<path opacity="0.2" d="M181.941 131.72L138.306 106.526C138.181 106.438 138.036 106.382 137.884 106.365C137.732 106.348 137.578 106.37 137.437 106.429H137.414L136.484 106.963L137.056 107.526L137.023 119.99V120.283V123.643C137.048 124.08 137.174 124.504 137.393 124.883C137.612 125.262 137.917 125.584 138.283 125.823L180.249 150.055L181.862 151.644L182.764 151.124L182.857 151.072L182.899 151.049C183.001 150.954 183.08 150.837 183.131 150.706C183.182 150.576 183.202 150.436 183.191 150.296V147.224V146.643L183.228 133.9C183.201 133.461 183.07 133.035 182.846 132.656C182.623 132.277 182.312 131.956 181.941 131.72Z" fill="black"/>
<path d="M181.007 132.25C181.373 132.489 181.677 132.811 181.896 133.19C182.115 133.568 182.242 133.993 182.266 134.43L182.229 147.178L136.065 120.524V121.105L182.229 147.759V150.831C182.229 151.635 181.657 151.955 180.96 151.556L137.325 126.362C136.959 126.122 136.654 125.801 136.435 125.422C136.216 125.043 136.09 124.619 136.065 124.182L136.112 107.781C136.112 106.977 136.679 106.652 137.381 107.056L181.007 132.25Z" fill="#A40F0F"/>
<path d="M182.229 147.177V147.758L136.065 121.104V120.523L182.229 147.177Z" fill="#A40F0F"/>
<g opacity="0.2">
<path d="M182.23 147.181V147.762L136.067 121.108V120.527L182.23 147.181Z" fill="white"/>
</g>
<g opacity="0.6">
<path d="M154.004 132.971L153.999 134.388L137.524 124.829L137.528 123.411L154.004 132.971Z" fill="white"/>
</g>
<path d="M145.741 113.668C145.961 113.812 146.143 114.006 146.274 114.234C146.405 114.461 146.48 114.717 146.494 114.979V123.502C146.494 123.967 146.155 124.176 145.732 123.935L138.319 119.654C138.098 119.511 137.914 119.318 137.782 119.09C137.65 118.862 137.575 118.606 137.562 118.344L137.585 109.825C137.585 109.36 137.929 109.146 138.347 109.388L145.741 113.668Z" fill="white"/>
<g opacity="0.6">
<path d="M172.831 130.215L172.826 132.078L149.352 118.526L149.356 116.663L172.831 130.215Z" fill="white"/>
</g>
<g opacity="0.6">
<path d="M168.692 134.414L168.687 136.278L149.335 125.068L149.34 123.204L168.692 134.414Z" fill="white"/>
</g>
<g opacity="0.6">
<path d="M172.824 133.486L172.819 135.35L149.345 121.798L149.35 119.934L172.824 133.486Z" fill="white"/>
</g>
<g opacity="0.5">
<path d="M180.482 133.806L179.776 134.438L180.608 136.158L179.911 135.758L179.409 134.671L178.949 135.2L178.247 134.796L179.097 134.048L178.419 132.616L179.107 133.012L179.469 133.811L179.785 133.407L180.482 133.806Z" fill="white"/>
</g>
<path d="M132.195 60.3862L124.415 55.9246C123.736 55.5342 122.124 56.064 122.124 57.1609C122.123 57.072 122.146 56.9847 122.191 56.9076C122.235 56.8306 122.298 56.7664 122.375 56.7217C122.452 56.677 122.539 56.6532 122.628 56.6528C122.717 56.6524 122.804 56.6753 122.881 56.7193L130.656 61.1809C130.912 61.3278 131.118 61.548 131.247 61.813L132.757 60.9532C132.624 60.7172 132.43 60.5213 132.195 60.3862Z" fill="#A40F0F"/>
<path d="M131.246 61.8117C131.357 62.0209 131.416 62.2536 131.418 62.4902V71.418C131.417 71.5064 131.394 71.5932 131.349 71.6696C131.305 71.746 131.241 71.8095 131.165 71.8537C131.088 71.8978 131.001 71.9212 130.913 71.9214C130.824 71.9216 130.737 71.8987 130.66 71.8549C130.885 71.9949 131.142 72.0733 131.406 72.082C131.671 72.0908 131.932 72.0295 132.165 71.9045C132.398 71.7795 132.594 71.5952 132.733 71.3703C132.872 71.1453 132.949 70.8876 132.956 70.6233V61.7001C132.954 61.4393 132.885 61.1834 132.756 60.9565L131.246 61.8117Z" fill="#A40F0F"/>
<path opacity="0.4" d="M132.195 60.3862L124.415 55.9246C123.736 55.5342 122.124 56.064 122.124 57.1609C122.123 57.072 122.146 56.9847 122.191 56.9076C122.235 56.8306 122.298 56.7664 122.375 56.7217C122.452 56.677 122.539 56.6532 122.628 56.6528C122.717 56.6524 122.804 56.6753 122.881 56.7193L130.656 61.1809C130.912 61.3278 131.118 61.548 131.247 61.813L132.757 60.9532C132.624 60.7172 132.43 60.5213 132.195 60.3862Z" fill="white"/>
<path opacity="0.2" d="M131.246 61.8117C131.357 62.0209 131.416 62.2536 131.418 62.4902V71.418C131.417 71.5064 131.394 71.5932 131.349 71.6696C131.305 71.746 131.241 71.8095 131.165 71.8537C131.088 71.8978 131.001 71.9212 130.913 71.9214C130.824 71.9216 130.737 71.8987 130.66 71.8549C130.885 71.9949 131.142 72.0733 131.406 72.082C131.671 72.0908 131.932 72.0295 132.165 71.9045C132.398 71.7795 132.594 71.5952 132.733 71.3703C132.872 71.1453 132.949 70.8876 132.956 70.6233V61.7001C132.954 61.4393 132.885 61.1834 132.756 60.9565L131.246 61.8117Z" fill="white"/>
<path d="M122.882 56.7013L130.657 61.1629C130.889 61.2952 131.082 61.4866 131.216 61.7176C131.349 61.9487 131.42 62.2111 131.419 62.4781V71.4059C131.419 71.4943 131.395 71.5811 131.35 71.6575C131.306 71.7339 131.242 71.7974 131.166 71.8416C131.089 71.8857 131.002 71.9091 130.914 71.9093C130.825 71.9095 130.738 71.8866 130.662 71.8428L122.886 67.3998C122.654 67.2675 122.462 67.0761 122.328 66.845C122.194 66.614 122.124 66.3516 122.124 66.0845V57.166C122.12 57.0753 122.14 56.985 122.182 56.9046C122.225 56.8242 122.288 56.7567 122.365 56.7092C122.443 56.6617 122.532 56.6358 122.622 56.6345C122.713 56.6331 122.803 56.6562 122.882 56.7013Z" fill="#A40F0F"/>
<path d="M133.293 67.3282L131.434 67.6767V65.2787L133.367 67.1098C133.383 67.127 133.395 67.1483 133.4 67.1716C133.405 67.1948 133.404 67.219 133.396 67.2415C133.388 67.264 133.375 67.284 133.356 67.2993C133.338 67.3146 133.316 67.3246 133.293 67.3282Z" fill="#A40F0F"/>
<path d="M131.423 65.2801L132.957 64.4017L134.89 66.2607C134.904 66.2749 134.915 66.2921 134.921 66.311C134.927 66.3299 134.929 66.35 134.926 66.3698C134.924 66.3896 134.916 66.4085 134.905 66.425C134.894 66.4415 134.879 66.4553 134.862 66.4652L133.333 67.3203L131.423 65.2801Z" fill="#A40F0F"/>
<path opacity="0.2" d="M131.423 65.2801L132.957 64.4017L134.89 66.2607C134.904 66.2749 134.915 66.2921 134.921 66.311C134.927 66.3299 134.929 66.35 134.926 66.3698C134.924 66.3896 134.916 66.4085 134.905 66.425C134.894 66.4415 134.879 66.4553 134.862 66.4652L133.333 67.3203L131.423 65.2801Z" fill="white"/>
<path d="M125.814 66.6925C125.916 67.2024 126.211 67.6533 126.637 67.952H126.674C127.097 68.1983 127.51 68.0775 127.561 67.6824L125.814 66.6925Z" fill="white"/>
<path d="M124.593 64.6659C124.731 64.4363 124.807 64.1757 124.816 63.9084C124.844 63.518 124.854 63.1136 124.867 62.714C124.895 61.8914 125.225 61.4591 125.867 61.422C126.02 61.422 126.053 61.3616 126.029 61.1478C125.987 60.7899 126.09 60.5761 126.331 60.5343C126.461 60.5159 126.592 60.5439 126.703 60.6133C126.853 60.7024 126.981 60.8229 127.08 60.9665C127.19 61.0986 127.273 61.2512 127.324 61.4155C127.375 61.5798 127.393 61.7526 127.377 61.9239C127.357 62.0084 127.362 62.0967 127.39 62.1788C127.418 62.261 127.468 62.3336 127.535 62.3886C128.018 62.9558 128.34 63.6431 128.465 64.3778C128.494 64.6214 128.508 64.8667 128.506 65.1121C128.501 65.5427 128.529 65.9731 128.59 66.3994C128.653 66.8534 128.812 67.2889 129.055 67.6775C129.139 67.7935 129.183 67.9338 129.18 68.0771C129.18 68.2863 129.097 68.3374 128.906 68.2305L126.685 66.9246L124.877 65.8789L124.644 65.7441L124.407 65.6093C124.316 65.5555 124.245 65.4719 124.208 65.3723C124.133 65.1911 124.166 64.9633 124.277 64.9076C124.405 64.862 124.516 64.7775 124.593 64.6659ZM126.313 64.6194L127.07 65.0563L127.266 63.0811L126.132 62.4258L126.313 64.6194ZM126.689 66.1763C127.015 66.3669 127.242 66.2368 127.242 65.9161C127.23 65.7341 127.173 65.5579 127.077 65.4031C126.98 65.2483 126.847 65.1196 126.689 65.0284C126.364 64.8425 126.136 64.9541 126.136 65.2794C126.149 65.4626 126.205 65.64 126.302 65.7963C126.398 65.9526 126.531 66.083 126.689 66.1763ZM126.689 61.1431C126.564 61.0688 126.457 61.1431 126.457 61.2779C126.464 61.3569 126.488 61.4335 126.528 61.5018C126.568 61.5702 126.623 61.6287 126.689 61.6729C126.711 61.6898 126.738 61.6998 126.765 61.7016C126.793 61.7034 126.821 61.6968 126.845 61.6829C126.869 61.6689 126.888 61.6481 126.9 61.6232C126.912 61.5982 126.916 61.5702 126.912 61.5428C126.912 61.4621 126.891 61.3829 126.851 61.3128C126.811 61.2427 126.754 61.1843 126.685 61.1431" fill="white"/>
<path d="M132.195 84.4685L124.415 80.0069C123.736 79.6166 122.124 80.1464 122.124 81.2385C122.124 81.1501 122.148 81.0634 122.192 80.9869C122.237 80.9105 122.301 80.847 122.377 80.8029C122.454 80.7587 122.541 80.7353 122.629 80.7351C122.717 80.7349 122.804 80.7579 122.881 80.8017L130.656 85.2632C130.913 85.4114 131.118 85.6332 131.247 85.9L132.757 85.0402C132.625 84.8024 132.43 84.6049 132.195 84.4685Z" fill="#A40F0F"/>
<path d="M131.246 85.8986C131.357 86.1078 131.416 86.3405 131.418 86.5771V95.5049C131.417 95.5934 131.394 95.6801 131.349 95.7565C131.305 95.833 131.241 95.8964 131.165 95.9406C131.088 95.9848 131.001 96.0081 130.913 96.0083C130.824 96.0085 130.737 95.9856 130.66 95.9418C130.885 96.0821 131.143 96.1604 131.407 96.1689C131.672 96.1774 131.934 96.1158 132.167 95.9903C132.4 95.8647 132.596 95.6798 132.735 95.4542C132.873 95.2285 132.95 94.9703 132.956 94.7056V85.7824C132.955 85.5215 132.886 85.2654 132.756 85.0388L131.246 85.8986Z" fill="#A40F0F"/>
<path opacity="0.4" d="M132.195 84.4685L124.415 80.0069C123.736 79.6166 122.124 80.1464 122.124 81.2385C122.124 81.1501 122.148 81.0634 122.192 80.9869C122.237 80.9105 122.301 80.847 122.377 80.8029C122.454 80.7587 122.541 80.7353 122.629 80.7351C122.717 80.7349 122.804 80.7579 122.881 80.8017L130.656 85.2632C130.913 85.4114 131.118 85.6332 131.247 85.9L132.757 85.0402C132.625 84.8024 132.43 84.6049 132.195 84.4685Z" fill="white"/>
<path opacity="0.2" d="M131.246 85.8986C131.357 86.1078 131.416 86.3405 131.418 86.5771V95.5049C131.417 95.5934 131.394 95.6801 131.349 95.7565C131.305 95.833 131.241 95.8964 131.165 95.9406C131.088 95.9848 131.001 96.0081 130.913 96.0083C130.824 96.0085 130.737 95.9856 130.66 95.9418C130.885 96.0821 131.143 96.1604 131.407 96.1689C131.672 96.1774 131.934 96.1158 132.167 95.9903C132.4 95.8647 132.596 95.6798 132.735 95.4542C132.873 95.2285 132.95 94.9703 132.956 94.7056V85.7824C132.955 85.5215 132.886 85.2654 132.756 85.0388L131.246 85.8986Z" fill="white"/>
<path d="M122.881 80.8029L130.656 85.2645C130.888 85.3968 131.081 85.5882 131.215 85.8192C131.349 86.0503 131.419 86.3127 131.419 86.5797V95.5075C131.418 95.5959 131.394 95.6827 131.35 95.7591C131.305 95.8355 131.242 95.899 131.165 95.9432C131.088 95.9873 131.002 96.0107 130.913 96.0109C130.825 96.0111 130.738 95.9882 130.661 95.9444L122.886 91.5014C122.653 91.3687 122.46 91.1766 122.326 90.9446C122.192 90.7127 122.122 90.4493 122.124 90.1815V81.2398C122.124 81.1513 122.148 81.0646 122.192 80.9882C122.237 80.9117 122.301 80.8483 122.377 80.8041C122.454 80.7599 122.541 80.7366 122.629 80.7364C122.717 80.7361 122.804 80.7591 122.881 80.8029Z" fill="#A40F0F"/>
<path d="M133.293 91.4123L131.434 91.7608V89.3627L133.367 91.1938C133.383 91.211 133.395 91.2324 133.4 91.2557C133.405 91.2789 133.404 91.3031 133.396 91.3256C133.388 91.3481 133.375 91.3681 133.356 91.3834C133.338 91.3987 133.316 91.4087 133.293 91.4123Z" fill="#A40F0F"/>
<path d="M131.423 89.3624L132.957 88.484L134.89 90.343C134.904 90.3572 134.915 90.3744 134.921 90.3933C134.927 90.4122 134.929 90.4324 134.926 90.4521C134.924 90.4719 134.916 90.4908 134.905 90.5073C134.894 90.5238 134.879 90.5376 134.862 90.5475L133.333 91.4026L131.423 89.3624Z" fill="#A40F0F"/>
<path opacity="0.2" d="M131.423 89.3624L132.957 88.484L134.89 90.343C134.904 90.3572 134.915 90.3744 134.921 90.3933C134.927 90.4122 134.929 90.4324 134.926 90.4521C134.924 90.4719 134.916 90.4908 134.905 90.5073C134.894 90.5238 134.879 90.5376 134.862 90.5475L133.333 91.4026L131.423 89.3624Z" fill="white"/>
<path d="M125.814 90.7712C125.915 91.2828 126.21 91.7355 126.637 92.0354H126.674C127.097 92.2817 127.51 92.1562 127.561 91.7658L125.814 90.7712Z" fill="white"/>
<path d="M124.588 88.7681C124.726 88.5405 124.803 88.2812 124.811 88.0152C124.839 87.6248 124.848 87.2205 124.862 86.8208C124.89 85.9935 125.22 85.566 125.861 85.5288C126.015 85.5288 126.047 85.4684 126.024 85.2546C125.982 84.8967 126.084 84.683 126.326 84.6411C126.455 84.6201 126.588 84.6483 126.698 84.7201C126.847 84.8093 126.976 84.9298 127.074 85.0733C127.184 85.2055 127.267 85.3581 127.318 85.5224C127.37 85.6867 127.388 85.8594 127.372 86.0307C127.352 86.1152 127.356 86.2035 127.384 86.2857C127.412 86.3678 127.463 86.4405 127.53 86.4955C128.013 87.0627 128.334 87.7499 128.459 88.4846C128.489 88.7282 128.503 88.9735 128.501 89.2189C128.495 89.6495 128.523 90.08 128.585 90.5062C128.648 90.9602 128.806 91.3958 129.049 91.7843C129.134 91.9004 129.178 92.0407 129.175 92.184C129.175 92.3931 129.091 92.4442 128.901 92.3373L126.656 91.0407L124.848 89.995L124.616 89.8602L124.379 89.7255C124.287 89.6717 124.216 89.588 124.179 89.4884C124.105 89.3072 124.137 89.0795 124.249 89.0237C124.388 88.9802 124.508 88.8899 124.588 88.7681ZM126.307 88.7263L127.065 89.1585L127.26 87.1879L126.126 86.5326L126.307 88.7263ZM126.684 90.2832C127.009 90.4691 127.237 90.3436 127.237 90.0229C127.225 89.8409 127.168 89.6647 127.071 89.5099C126.975 89.3551 126.842 89.2264 126.684 89.1352C126.359 88.9447 126.131 89.0609 126.131 89.3862C126.143 89.5694 126.2 89.7468 126.296 89.9031C126.393 90.0594 126.526 90.1899 126.684 90.2832ZM126.684 85.2499C126.558 85.1756 126.451 85.2499 126.451 85.3801C126.458 85.4599 126.482 85.5374 126.522 85.6066C126.562 85.6758 126.617 85.735 126.684 85.7798C126.706 85.7967 126.732 85.8066 126.76 85.8084C126.788 85.8102 126.815 85.8037 126.839 85.7897C126.863 85.7757 126.882 85.755 126.894 85.73C126.906 85.7051 126.911 85.6771 126.907 85.6496C126.907 85.569 126.886 85.4897 126.846 85.4196C126.806 85.3496 126.749 85.2911 126.679 85.2499" fill="white"/>
<path d="M132.195 108.553L124.415 104.105C123.736 103.715 122.124 104.245 122.124 105.337C122.124 105.248 122.148 105.162 122.192 105.085C122.237 105.009 122.301 104.945 122.377 104.901C122.454 104.857 122.541 104.834 122.629 104.834C122.717 104.833 122.804 104.856 122.881 104.9L130.656 109.362C130.913 109.51 131.118 109.732 131.247 109.998L132.757 109.139C132.627 108.896 132.432 108.693 132.195 108.553Z" fill="#A40F0F"/>
<path d="M131.246 109.983C131.357 110.192 131.416 110.425 131.418 110.661V119.584C131.418 119.673 131.395 119.76 131.351 119.838C131.307 119.915 131.243 119.979 131.167 120.023C131.09 120.068 131.003 120.092 130.914 120.092C130.825 120.093 130.738 120.07 130.66 120.026C130.885 120.166 131.143 120.244 131.407 120.253C131.672 120.261 131.934 120.2 132.167 120.074C132.4 119.949 132.596 119.764 132.735 119.538C132.873 119.313 132.95 119.054 132.956 118.79V109.866C132.955 109.606 132.886 109.349 132.756 109.123L131.246 109.983Z" fill="#A40F0F"/>
<path opacity="0.4" d="M132.195 108.553L124.415 104.105C123.736 103.715 122.124 104.245 122.124 105.337C122.124 105.248 122.148 105.162 122.192 105.085C122.237 105.009 122.301 104.945 122.377 104.901C122.454 104.857 122.541 104.834 122.629 104.834C122.717 104.833 122.804 104.856 122.881 104.9L130.656 109.362C130.913 109.51 131.118 109.732 131.247 109.998L132.757 109.139C132.627 108.896 132.432 108.693 132.195 108.553Z" fill="white"/>
<path opacity="0.2" d="M131.246 109.983C131.357 110.192 131.416 110.425 131.418 110.661V119.584C131.418 119.673 131.395 119.76 131.351 119.838C131.307 119.915 131.243 119.979 131.167 120.023C131.09 120.068 131.003 120.092 130.914 120.092C130.825 120.093 130.738 120.07 130.66 120.026C130.885 120.166 131.143 120.244 131.407 120.253C131.672 120.261 131.934 120.2 132.167 120.074C132.4 119.949 132.596 119.764 132.735 119.538C132.873 119.313 132.95 119.054 132.956 118.79V109.866C132.955 109.606 132.886 109.349 132.756 109.123L131.246 109.983Z" fill="white"/>
<path d="M122.881 104.885L130.656 109.347C130.888 109.479 131.081 109.67 131.215 109.901C131.349 110.133 131.419 110.395 131.419 110.662V119.585C131.419 119.674 131.396 119.761 131.352 119.838C131.307 119.915 131.244 119.98 131.167 120.024C131.09 120.069 131.003 120.093 130.914 120.093C130.826 120.094 130.738 120.071 130.661 120.027L122.886 115.584C122.653 115.451 122.461 115.258 122.327 115.027C122.193 114.795 122.123 114.532 122.124 114.264V105.322C122.124 105.234 122.148 105.147 122.192 105.07C122.237 104.994 122.301 104.931 122.377 104.886C122.454 104.842 122.541 104.819 122.629 104.819C122.717 104.818 122.804 104.841 122.881 104.885Z" fill="#A40F0F"/>
<path d="M133.293 115.495L131.434 115.843V113.445L133.367 115.271C133.385 115.289 133.397 115.31 133.403 115.334C133.409 115.358 133.408 115.383 133.4 115.407C133.393 115.43 133.378 115.451 133.359 115.466C133.34 115.482 133.317 115.492 133.293 115.495Z" fill="#A40F0F"/>
<path d="M131.423 113.446L132.957 112.568L134.89 114.427C134.904 114.441 134.915 114.458 134.921 114.477C134.927 114.496 134.929 114.516 134.926 114.536C134.924 114.556 134.916 114.575 134.905 114.591C134.894 114.608 134.879 114.622 134.862 114.632L133.333 115.487L131.423 113.446Z" fill="#A40F0F"/>
<path opacity="0.2" d="M131.423 113.446L132.957 112.568L134.89 114.427C134.904 114.441 134.915 114.458 134.921 114.477C134.927 114.496 134.929 114.516 134.926 114.536C134.924 114.556 134.916 114.575 134.905 114.591C134.894 114.608 134.879 114.622 134.862 114.632L133.333 115.487L131.423 113.446Z" fill="white"/>
<path d="M125.814 114.854C125.914 115.364 126.209 115.816 126.637 116.113H126.674C127.097 116.355 127.51 116.234 127.561 115.843L125.814 114.854Z" fill="white"/>
<path d="M124.588 112.829C124.726 112.601 124.803 112.342 124.811 112.076C124.839 111.686 124.848 111.281 124.862 110.882C124.89 110.054 125.22 109.627 125.861 109.59C126.015 109.59 126.047 109.529 126.024 109.315C125.982 108.958 126.084 108.744 126.326 108.702C126.455 108.681 126.588 108.709 126.698 108.781C126.847 108.87 126.976 108.991 127.074 109.134C127.185 109.266 127.268 109.419 127.319 109.583C127.37 109.747 127.388 109.92 127.372 110.092C127.352 110.176 127.356 110.264 127.384 110.346C127.412 110.429 127.463 110.501 127.53 110.556C128.013 111.123 128.334 111.811 128.459 112.545C128.489 112.789 128.503 113.034 128.501 113.28C128.495 113.709 128.523 114.138 128.585 114.562C128.648 115.018 128.807 115.455 129.049 115.845C129.134 115.961 129.178 116.101 129.175 116.245C129.175 116.454 129.091 116.505 128.901 116.398L126.656 115.101L124.848 114.056L124.616 113.921L124.379 113.786C124.286 113.731 124.215 113.646 124.179 113.545C124.105 113.368 124.137 113.14 124.249 113.08C124.387 113.038 124.507 112.949 124.588 112.829ZM126.307 112.787L127.065 113.219L127.26 111.249L126.126 110.612L126.307 112.806M126.684 114.363C127.009 114.548 127.237 114.418 127.237 114.102C127.225 113.92 127.168 113.744 127.071 113.589C126.975 113.434 126.842 113.306 126.684 113.215C126.359 113.024 126.131 113.14 126.131 113.461C126.142 113.645 126.199 113.823 126.295 113.98C126.392 114.138 126.525 114.269 126.684 114.363ZM126.684 109.329C126.558 109.255 126.451 109.329 126.451 109.459C126.457 109.539 126.481 109.616 126.521 109.684C126.561 109.753 126.617 109.811 126.684 109.854C126.805 109.924 126.907 109.854 126.907 109.72C126.906 109.64 126.885 109.562 126.845 109.492C126.805 109.423 126.748 109.365 126.679 109.325" fill="white"/>
<path d="M132.195 132.635L124.415 128.174C123.736 127.779 122.124 128.309 122.124 129.405C122.123 129.317 122.146 129.229 122.19 129.152C122.234 129.074 122.298 129.01 122.375 128.966C122.452 128.921 122.539 128.898 122.628 128.899C122.717 128.899 122.805 128.923 122.881 128.969L130.656 133.43C130.913 133.578 131.118 133.8 131.247 134.067L132.757 133.207C132.626 132.968 132.431 132.771 132.195 132.635Z" fill="#A40F0F"/>
<path d="M131.246 134.067C131.357 134.276 131.416 134.509 131.418 134.745V143.668C131.418 143.757 131.395 143.845 131.351 143.922C131.307 143.999 131.243 144.063 131.167 144.108C131.09 144.152 131.003 144.176 130.914 144.176C130.825 144.177 130.738 144.154 130.66 144.11C130.885 144.25 131.143 144.329 131.407 144.337C131.672 144.346 131.934 144.284 132.167 144.158C132.4 144.033 132.596 143.848 132.735 143.622C132.873 143.397 132.95 143.138 132.956 142.874V133.951C132.955 133.69 132.886 133.434 132.756 133.207L131.246 134.067Z" fill="#A40F0F"/>
<path opacity="0.4" d="M132.195 132.635L124.415 128.174C123.736 127.779 122.124 128.309 122.124 129.405C122.123 129.317 122.146 129.229 122.19 129.152C122.234 129.074 122.298 129.01 122.375 128.966C122.452 128.921 122.539 128.898 122.628 128.899C122.717 128.899 122.805 128.923 122.881 128.969L130.656 133.43C130.913 133.578 131.118 133.8 131.247 134.067L132.757 133.207C132.626 132.968 132.431 132.771 132.195 132.635Z" fill="white"/>
<path opacity="0.2" d="M131.246 134.067C131.357 134.276 131.416 134.509 131.418 134.745V143.668C131.418 143.757 131.395 143.845 131.351 143.922C131.307 143.999 131.243 144.063 131.167 144.108C131.09 144.152 131.003 144.176 130.914 144.176C130.825 144.177 130.738 144.154 130.66 144.11C130.885 144.25 131.143 144.329 131.407 144.337C131.672 144.346 131.934 144.284 132.167 144.158C132.4 144.033 132.596 143.848 132.735 143.622C132.873 143.397 132.95 143.138 132.956 142.874V133.951C132.955 133.69 132.886 133.434 132.756 133.207L131.246 134.067Z" fill="white"/>
<path d="M122.881 128.967L130.656 133.429C130.888 133.561 131.081 133.753 131.215 133.984C131.349 134.215 131.419 134.477 131.419 134.744V143.667C131.419 143.756 131.396 143.843 131.352 143.92C131.307 143.998 131.244 144.062 131.167 144.106C131.09 144.151 131.003 144.175 130.914 144.175C130.826 144.176 130.738 144.153 130.661 144.109L122.886 139.666C122.653 139.533 122.461 139.341 122.327 139.109C122.193 138.877 122.123 138.614 122.124 138.346V129.404C122.123 129.315 122.146 129.228 122.19 129.15C122.234 129.073 122.298 129.009 122.375 128.964C122.452 128.92 122.539 128.897 122.628 128.897C122.717 128.898 122.805 128.922 122.881 128.967Z" fill="#A40F0F"/>
<path d="M133.293 139.579L131.434 139.927V137.529L133.367 139.356C133.385 139.373 133.397 139.394 133.403 139.418C133.409 139.442 133.408 139.467 133.4 139.491C133.393 139.514 133.378 139.535 133.359 139.55C133.34 139.566 133.317 139.576 133.293 139.579Z" fill="#A40F0F"/>
<path d="M131.423 137.529L132.957 136.65L134.89 138.509C134.904 138.523 134.915 138.541 134.921 138.56C134.927 138.579 134.929 138.599 134.926 138.618C134.924 138.638 134.916 138.657 134.905 138.674C134.894 138.69 134.879 138.704 134.862 138.714L133.333 139.569L131.423 137.529Z" fill="#A40F0F"/>
<path opacity="0.2" d="M131.423 137.529L132.957 136.65L134.89 138.509C134.904 138.523 134.915 138.541 134.921 138.56C134.927 138.579 134.929 138.599 134.926 138.618C134.924 138.638 134.916 138.657 134.905 138.674C134.894 138.69 134.879 138.704 134.862 138.714L133.333 139.569L131.423 137.529Z" fill="white"/>
<path d="M125.814 138.961C125.914 139.472 126.209 139.923 126.637 140.22H126.674C127.097 140.462 127.51 140.341 127.561 139.946L125.814 138.961Z" fill="white"/>
<path d="M124.588 136.911C124.726 136.683 124.803 136.424 124.811 136.158C124.839 135.763 124.848 135.363 124.862 134.959C124.89 134.136 125.22 133.709 125.861 133.672C126.015 133.672 126.047 133.611 126.024 133.393C125.982 133.035 126.084 132.826 126.326 132.784C126.455 132.764 126.587 132.79 126.698 132.858C126.846 132.951 126.974 133.073 127.074 133.216C127.185 133.348 127.268 133.501 127.319 133.665C127.37 133.829 127.388 134.002 127.372 134.174C127.352 134.258 127.356 134.346 127.384 134.429C127.412 134.511 127.463 134.583 127.53 134.638C128.014 135.205 128.335 135.892 128.459 136.628C128.489 136.871 128.503 137.116 128.501 137.362C128.495 137.791 128.523 138.22 128.585 138.645C128.648 139.099 128.806 139.534 129.049 139.923C129.134 140.04 129.178 140.182 129.175 140.327C129.175 140.536 129.091 140.587 128.901 140.48L126.656 139.184L124.848 138.138L124.616 138.003L124.379 137.864C124.287 137.81 124.216 137.726 124.179 137.627C124.105 137.45 124.137 137.222 124.249 137.162C124.386 137.118 124.505 137.03 124.588 136.911ZM126.307 136.865L127.065 137.301L127.26 135.331L126.126 134.676L126.307 136.865ZM126.684 138.426C127.009 138.612 127.237 138.482 127.237 138.166C127.226 137.984 127.17 137.807 127.073 137.652C126.976 137.497 126.843 137.368 126.684 137.278C126.359 137.088 126.131 137.204 126.131 137.524C126.142 137.708 126.199 137.887 126.295 138.044C126.392 138.201 126.525 138.332 126.684 138.426ZM126.684 133.388C126.661 133.37 126.634 133.359 126.605 133.357C126.576 133.355 126.547 133.361 126.522 133.376C126.496 133.391 126.476 133.412 126.464 133.439C126.451 133.465 126.447 133.494 126.451 133.523C126.457 133.602 126.481 133.679 126.521 133.748C126.561 133.817 126.617 133.875 126.684 133.918C126.805 133.988 126.907 133.918 126.907 133.783C126.904 133.703 126.882 133.625 126.843 133.555C126.803 133.486 126.747 133.427 126.679 133.384" fill="white"/>
<path d="M119.724 151.127L118.837 141.795L117.554 128.354C117.451 127.279 117.129 126.236 116.607 125.29C116.086 124.343 115.377 123.514 114.524 122.852L87.178 101.673L85.6816 96.096C85.6238 95.8787 85.5209 95.676 85.3795 95.5011C85.3618 95.4773 85.3415 95.4554 85.3191 95.4361C83.9248 93.7351 82.0101 92.2897 79.5841 92.2665H79.4539C79.3203 92.2664 79.1873 92.2852 79.0589 92.3222C78.9252 92.3572 78.797 92.4104 78.6778 92.4803L52.1268 107.817C51.9396 107.927 51.761 108.052 51.5923 108.189C51.4247 108.322 51.2692 108.47 51.1276 108.63C50.9922 108.79 50.8709 108.961 50.7651 109.141C50.6579 109.322 50.5662 109.512 50.4909 109.708C50.4211 109.89 50.3652 110.076 50.3236 110.266C50.2807 110.456 50.2543 110.648 50.2446 110.842C50.2307 111.034 50.2307 111.227 50.2446 111.419C50.2645 111.616 50.3002 111.812 50.3515 112.004L55.6356 131.691L53.3677 130.334L43.608 156.239C43.9705 157.131 44.8907 156.634 44.8907 156.634L47.7117 150.713C47.852 150.417 48.0521 150.154 48.2994 149.939C48.5467 149.724 48.8358 149.563 49.1484 149.466C49.4611 149.368 49.7905 149.337 50.1159 149.373C50.4414 149.41 50.7558 149.513 51.0393 149.677L80.8668 166.877C81.6761 167.342 82.3723 167.981 82.9051 168.748C83.4379 169.515 83.7941 170.39 83.9481 171.311L84.3291 173.56H86.1881L86.0998 172.631C85.9854 171.424 86.2197 170.211 86.775 169.134C87.3303 168.057 88.1832 167.163 89.2322 166.556L115.016 151.712C115.296 151.551 115.611 151.46 115.933 151.447C116.256 151.433 116.576 151.497 116.869 151.634C117.161 151.771 117.416 151.976 117.612 152.232C117.808 152.489 117.94 152.789 117.995 153.107L119.39 161.374C119.589 161.502 119.825 161.561 120.06 161.54C120.296 161.518 120.518 161.419 120.691 161.258L119.724 151.127ZM111.944 125.607C112.433 125.902 112.852 126.299 113.173 126.77C113.494 127.242 113.709 127.778 113.803 128.34L115.481 138.29C115.349 138.1 115.176 137.941 114.975 137.826L93.4103 125.277C93.4016 125.004 93.3611 124.733 93.2895 124.469L90.0781 112.506L111.944 125.607ZM55.6775 131.844L56.9881 136.734L55.1291 137.816C54.8184 137.992 54.5797 138.272 54.4552 138.606C53.6837 140.029 53.4095 143.194 54.3901 145.336L53.679 144.932C52.9142 144.498 52.3342 143.8 52.0483 142.969C51.7624 142.138 51.7903 141.231 52.1268 140.419L52.8332 138.723L55.6775 131.844ZM116.29 143.263V143.105L116.313 143.24L116.29 143.263Z" fill="#455A64"/>
<path d="M79.217 162.061L53.1539 146.818C52.3283 146.334 51.7058 145.567 51.4016 144.66C51.0975 143.753 51.1322 142.766 51.4994 141.882L52.8147 138.722L52.1082 140.418C51.7718 141.23 51.7439 142.137 52.0298 142.969C52.3157 143.8 52.8957 144.498 53.6605 144.931L82.0101 160.969C81.9277 161.247 81.783 161.501 81.5873 161.714C81.3915 161.927 81.1497 162.092 80.8804 162.198C80.611 162.303 80.3212 162.346 80.0329 162.322C79.7447 162.298 79.4656 162.209 79.217 162.061Z" fill="#37474F"/>
<path d="M53.3777 130.375L55.7014 131.769L52.8107 138.74L51.4955 141.9C51.1283 142.784 51.0935 143.771 51.3977 144.678C51.7019 145.586 52.3243 146.352 53.15 146.836L79.213 162.08C79.4615 162.227 79.7401 162.315 80.0278 162.338C80.3155 162.361 80.6047 162.319 80.8735 162.213C81.1422 162.108 81.3834 161.943 81.5789 161.731C81.7744 161.518 81.9189 161.264 82.0015 160.988L83.8605 162.033L118.837 141.794L119.967 153.645L118.131 153.919L117.996 153.115C117.941 152.797 117.809 152.497 117.613 152.241C117.417 151.984 117.162 151.779 116.87 151.642C116.577 151.505 116.256 151.441 115.934 151.455C115.611 151.468 115.297 151.56 115.017 151.721L89.233 166.555C88.1807 167.161 87.3249 168.056 86.7678 169.135C86.2107 170.214 85.9759 171.43 86.0913 172.639L86.1796 173.568H84.3206L83.9395 171.319C83.7855 170.398 83.4293 169.523 82.8965 168.756C82.3637 167.99 81.6676 167.351 80.8582 166.885L51.0679 149.727C50.7844 149.563 50.47 149.46 50.1446 149.423C49.8191 149.387 49.4897 149.419 49.177 149.516C48.8644 149.613 48.5753 149.774 48.328 149.989C48.0808 150.204 47.8806 150.467 47.7403 150.763L44.9193 156.684C44.9193 156.684 43.9898 157.181 43.6366 156.289L53.3777 130.375Z" fill="#455A64"/>
<path d="M86.5161 101.158L114.522 122.852C115.375 123.514 116.084 124.344 116.605 125.29C117.127 126.237 117.449 127.279 117.552 128.355L120.689 161.268C120.516 161.429 120.294 161.528 120.058 161.549C119.823 161.57 119.587 161.512 119.388 161.384L113.811 128.341C113.716 127.778 113.501 127.243 113.18 126.771C112.86 126.299 112.44 125.903 111.952 125.608L87.1993 110.773C83.9554 108.845 83.3884 102.027 86.5161 101.158Z" fill="#455A64"/>
<path opacity="0.3" d="M86.5161 101.158L114.522 122.852C115.375 123.514 116.084 124.344 116.605 125.29C117.127 126.237 117.449 127.279 117.552 128.355L120.689 161.268C120.516 161.429 120.294 161.528 120.058 161.549C119.823 161.57 119.587 161.512 119.388 161.384L113.811 128.341C113.716 127.778 113.501 127.243 113.18 126.771C112.86 126.299 112.44 125.903 111.952 125.608L87.1993 110.773C83.9554 108.845 83.3884 102.027 86.5161 101.158Z" fill="white"/>
<path d="M54.4378 138.606C54.5623 138.271 54.801 137.992 55.1117 137.816L83.1917 121.605C83.7853 121.261 84.4595 121.079 85.146 121.079C85.8325 121.079 86.5067 121.261 87.1003 121.605L114.985 137.807C115.297 137.985 115.536 138.268 115.659 138.606C116.458 140.084 116.728 143.439 115.613 145.577C115.466 145.857 115.245 146.091 114.976 146.256L86.9097 162.466C86.3157 162.81 85.6416 162.99 84.9554 162.99C84.2693 162.99 83.5952 162.81 83.0012 162.466L55.1163 146.265C54.8421 146.105 54.6233 145.865 54.4889 145.577C53.3689 143.439 53.6384 140.084 54.4378 138.606Z" fill="#A40F0F"/>
<path opacity="0.3" d="M54.4378 138.606C54.5623 138.271 54.801 137.992 55.1117 137.816L83.1917 121.605C83.7853 121.261 84.4595 121.079 85.146 121.079C85.8325 121.079 86.5067 121.261 87.1003 121.605L114.985 137.807C115.297 137.985 115.536 138.268 115.659 138.606C116.458 140.084 116.728 143.439 115.613 145.577C115.466 145.857 115.245 146.091 114.976 146.256L86.9097 162.466C86.3157 162.81 85.6416 162.99 84.9554 162.99C84.2693 162.99 83.5952 162.81 83.0012 162.466L55.1163 146.265C54.8421 146.105 54.6233 145.865 54.4889 145.577C53.3689 143.439 53.6384 140.084 54.4378 138.606Z" fill="white"/>
<path opacity="0.3" d="M54.4378 138.606C54.3044 138.952 54.2985 139.334 54.4211 139.684C54.5437 140.034 54.7868 140.329 55.107 140.516L82.9919 156.717C83.5859 157.06 84.26 157.241 84.9461 157.241C85.6323 157.241 86.3064 157.06 86.9004 156.717L114.98 140.502C115.301 140.318 115.545 140.026 115.669 139.679C115.793 139.331 115.79 138.951 115.659 138.606C116.458 140.083 116.728 143.439 115.613 145.577C115.466 145.856 115.245 146.091 114.976 146.255L86.9097 162.466C86.3157 162.809 85.6416 162.99 84.9554 162.99C84.2693 162.99 83.5952 162.809 83.0012 162.466L55.1163 146.265C54.8421 146.104 54.6233 145.864 54.4889 145.577C53.3689 143.439 53.6384 140.083 54.4378 138.606Z" fill="black"/>
<path d="M52.1169 107.821L78.6679 92.4839C78.9037 92.3466 79.1712 92.2729 79.444 92.2701H79.5741C82.0001 92.2933 83.9009 93.7387 85.3091 95.4397C85.3316 95.459 85.3519 95.4809 85.3695 95.5047C85.511 95.6796 85.6139 95.8823 85.6716 96.0996L93.2888 124.449C93.515 125.255 93.4675 126.112 93.1538 126.888C92.84 127.663 92.2778 128.313 91.5553 128.734L65.009 144.071C64.7277 144.234 64.4034 144.307 64.0795 144.28C61.04 143.964 59.2507 142.086 58.3538 141.096C58.1836 140.906 58.0609 140.679 57.9959 140.432L50.3787 112.082C50.1586 111.28 50.2097 110.427 50.524 109.656C50.8383 108.886 51.3982 108.24 52.1169 107.821Z" fill="#A40F0F"/>
<path opacity="0.2" d="M52.1169 107.821L78.6679 92.4839C78.9037 92.3466 79.1712 92.2729 79.444 92.2701H79.5741C82.0001 92.2933 83.9009 93.7387 85.3091 95.4397C85.3316 95.459 85.3519 95.4809 85.3695 95.5047C85.511 95.6796 85.6139 95.8823 85.6716 96.0996L93.2888 124.449C93.515 125.255 93.4675 126.112 93.1538 126.888C92.84 127.663 92.2778 128.313 91.5553 128.734L65.009 144.071C64.7277 144.234 64.4034 144.307 64.0795 144.28C61.04 143.964 59.2507 142.086 58.3538 141.096C58.1836 140.906 58.0609 140.679 57.9959 140.432L50.3787 112.082C50.1586 111.28 50.2097 110.427 50.524 109.656C50.8383 108.886 51.3982 108.24 52.1169 107.821Z" fill="white"/>
<path opacity="0.1" d="M52.1174 107.821L78.6685 92.4839C78.9043 92.3466 79.1717 92.2729 79.4446 92.2701H79.5747C82.0007 92.2933 83.9015 93.7387 85.3097 95.4397C85.0622 95.1687 84.7296 94.9906 84.3669 94.9348C84.0042 94.879 83.6334 94.9489 83.3159 95.1329L56.7649 110.47C56.01 110.908 55.4303 111.595 55.1243 112.412L50.4769 109.735C50.7887 108.928 51.3677 108.252 52.1174 107.821Z" fill="black"/>
<path opacity="0.2" d="M55.125 112.389C54.8406 113.131 54.7999 113.945 55.0088 114.713L62.626 143.062C62.7118 143.384 62.8956 143.672 63.1521 143.885C63.4086 144.098 63.7249 144.226 64.0575 144.252C61.018 143.936 59.2287 142.058 58.3318 141.068C58.1616 140.878 58.0389 140.65 57.9739 140.404L50.3567 112.054C50.152 111.286 50.196 110.472 50.4822 109.73L55.125 112.389Z" fill="black"/>
<path d="M110.885 159.12C110.576 160.748 110.4 162.398 110.36 164.055L109.216 163.591C108.662 163.378 108.058 163.335 107.479 163.465C106.9 163.596 106.372 163.895 105.963 164.325L105.907 164.385C105.699 164.605 105.414 164.735 105.111 164.749C104.809 164.763 104.513 164.659 104.285 164.46C104.164 164.354 104.066 164.224 103.997 164.079C103.928 163.933 103.89 163.775 103.886 163.614L103.728 158.65L110.885 159.12Z" fill="#FFA8A7"/>
<path d="M106.385 177.556C108.802 180.145 113.259 182.408 116.493 180.201L116.131 181.023C112.878 183.231 108.439 180.968 106.023 178.384C103.606 175.8 105.172 174.001 102.997 171.705C102.176 170.922 101.534 169.971 101.115 168.917C101.212 168.67 101.301 168.345 101.417 167.987C101.886 169.065 102.544 170.05 103.36 170.896C105.535 173.178 103.964 174.972 106.385 177.556Z" fill="white"/>
<path d="M102.605 165.268C102.98 164.739 103.239 164.137 103.367 163.502C103.389 163.356 103.442 163.217 103.522 163.094C103.602 162.97 103.708 162.865 103.832 162.786L103.86 163.618C103.867 163.85 103.942 164.074 104.076 164.263C104.21 164.452 104.397 164.597 104.613 164.679C104.83 164.762 105.066 164.778 105.291 164.727C105.517 164.675 105.723 164.558 105.882 164.39L105.937 164.329C106.347 163.899 106.874 163.6 107.453 163.47C108.032 163.339 108.636 163.383 109.191 163.595L110.376 164.06C110.55 164.128 110.7 164.248 110.805 164.403C110.911 164.558 110.967 164.741 110.966 164.929C110.887 168.321 112.472 172.829 114.136 175.302C115.846 176.013 117.319 178.341 116.566 180.047L116.492 180.219C113.239 182.426 108.8 180.163 106.384 177.575C103.967 174.986 105.533 173.197 103.358 170.901C102.543 170.054 101.885 169.069 101.415 167.991C101.683 167.033 102.084 166.116 102.605 165.268Z" fill="#A40F0F"/>
<path opacity="0.2" d="M102.605 165.268C102.98 164.739 103.239 164.137 103.367 163.502C103.389 163.356 103.442 163.217 103.522 163.094C103.602 162.97 103.708 162.865 103.832 162.786L103.86 163.618C103.867 163.85 103.942 164.074 104.076 164.263C104.21 164.452 104.397 164.597 104.613 164.679C104.83 164.762 105.066 164.778 105.291 164.727C105.517 164.675 105.723 164.558 105.882 164.39L105.937 164.329C106.347 163.899 106.874 163.6 107.453 163.47C108.032 163.339 108.636 163.383 109.191 163.595L110.376 164.06C110.55 164.128 110.7 164.248 110.805 164.403C110.911 164.558 110.967 164.741 110.966 164.929C110.887 168.321 112.472 172.829 114.136 175.302C115.846 176.013 117.319 178.341 116.566 180.047L116.492 180.219C113.239 182.426 108.8 180.163 106.384 177.575C103.967 174.986 105.533 173.197 103.358 170.901C102.543 170.054 101.885 169.069 101.415 167.991C101.683 167.033 102.084 166.116 102.605 165.268Z" fill="white"/>
<path d="M107.356 170.166C107.308 170.19 107.255 170.204 107.202 170.207C107.148 170.211 107.094 170.204 107.043 170.187C106.992 170.169 106.945 170.142 106.905 170.107C106.864 170.071 106.831 170.028 106.807 169.98C106.782 169.933 106.767 169.881 106.761 169.828C106.756 169.775 106.762 169.722 106.777 169.671C106.793 169.62 106.818 169.572 106.852 169.531C106.886 169.49 106.928 169.456 106.975 169.431C107.684 169.03 108.484 168.819 109.299 168.819C110.113 168.819 110.914 169.03 111.622 169.431C111.692 169.696 111.771 169.961 111.85 170.226C111.17 169.827 110.399 169.612 109.611 169.602C108.823 169.591 108.046 169.785 107.356 170.166Z" fill="white"/>
<path d="M106.748 168.332C106.651 168.383 106.537 168.392 106.433 168.359C106.328 168.326 106.241 168.253 106.19 168.155C106.14 168.058 106.13 167.945 106.163 167.84C106.196 167.735 106.27 167.648 106.367 167.598C107.109 167.192 107.943 166.983 108.789 166.99C109.635 166.998 110.465 167.221 111.2 167.639C111.247 167.914 111.307 168.193 111.368 168.471C109.955 167.728 108.533 167.43 106.748 168.332Z" fill="white"/>
<path d="M107.994 171.994C107.896 172.041 107.784 172.048 107.682 172.013C107.579 171.978 107.494 171.905 107.446 171.808C107.396 171.712 107.387 171.601 107.419 171.499C107.451 171.396 107.522 171.31 107.618 171.26C108.31 170.869 109.089 170.66 109.884 170.652C110.679 170.644 111.463 170.837 112.163 171.213C112.265 171.501 112.372 171.78 112.483 172.059C111.805 171.66 111.034 171.445 110.247 171.434C109.46 171.422 108.684 171.615 107.994 171.994Z" fill="white"/>
<path d="M114.139 175.284C115.849 175.995 117.322 178.324 116.569 180.029L116.495 180.201C113.307 182.376 108.943 180.201 106.498 177.673C108.534 173.681 112.791 174.676 114.139 175.284Z" fill="white"/>
<path d="M108.709 173.774C108.661 173.798 108.609 173.812 108.555 173.815C108.501 173.819 108.447 173.812 108.397 173.795C108.346 173.777 108.299 173.75 108.258 173.715C108.218 173.679 108.185 173.636 108.161 173.588C108.113 173.492 108.103 173.382 108.134 173.28C108.165 173.178 108.235 173.091 108.328 173.039C109.023 172.649 109.806 172.441 110.603 172.435C111.4 172.428 112.186 172.623 112.887 173.002C113.031 173.318 113.18 173.62 113.352 173.932C111.921 173.17 110.499 172.886 108.709 173.774Z" fill="white"/>
<path d="M115.968 168.982C116.339 170.59 116.841 172.164 117.469 173.69L116.228 173.76C115.637 173.791 115.069 173.996 114.594 174.349C114.12 174.702 113.76 175.188 113.56 175.744L113.532 175.819C113.43 176.103 113.221 176.337 112.95 176.472C112.679 176.606 112.366 176.63 112.078 176.539C111.924 176.493 111.782 176.414 111.66 176.31C111.538 176.205 111.44 176.075 111.371 175.93L109.215 171.45L115.968 168.982Z" fill="#FFA8A7"/>
<path d="M119.296 187.67C122.549 189.064 127.541 189.334 129.609 186.006V186.908C127.541 190.231 122.554 189.961 119.296 188.572C116.038 187.182 116.749 184.905 113.831 183.683C112.763 183.295 111.791 182.681 110.982 181.884C110.982 181.619 110.926 181.289 110.879 180.903C111.744 181.7 112.743 182.338 113.831 182.786C116.749 184.008 116.038 186.281 119.296 187.67Z" fill="white"/>
<path d="M110.88 177.951C111.014 177.317 111.014 176.662 110.88 176.027C110.842 175.883 110.836 175.733 110.862 175.586C110.887 175.439 110.944 175.3 111.028 175.177L111.391 175.93C111.459 176.075 111.558 176.204 111.679 176.309C111.801 176.414 111.943 176.492 112.097 176.539C112.386 176.63 112.698 176.606 112.97 176.471C113.241 176.337 113.449 176.103 113.552 175.818L113.58 175.744C113.78 175.187 114.139 174.702 114.614 174.349C115.088 173.996 115.657 173.791 116.247 173.759L117.512 173.69C117.699 173.683 117.884 173.733 118.043 173.833C118.201 173.934 118.325 174.08 118.399 174.252C119.701 177.384 122.968 180.865 125.487 182.464C127.346 182.418 129.628 183.956 129.628 185.82V186.006C127.559 189.333 122.573 189.059 119.315 187.669C116.057 186.28 116.768 184.007 113.849 182.785C112.762 182.337 111.763 181.7 110.898 180.903C110.756 179.925 110.749 178.931 110.88 177.951Z" fill="#A40F0F"/>
<path opacity="0.2" d="M110.88 177.951C111.014 177.317 111.014 176.662 110.88 176.027C110.842 175.883 110.836 175.733 110.862 175.586C110.887 175.439 110.944 175.3 111.028 175.177L111.391 175.93C111.459 176.075 111.558 176.204 111.679 176.309C111.801 176.414 111.943 176.492 112.097 176.539C112.386 176.63 112.698 176.606 112.97 176.471C113.241 176.337 113.449 176.103 113.552 175.818L113.58 175.744C113.78 175.187 114.139 174.702 114.614 174.349C115.088 173.996 115.657 173.791 116.247 173.759L117.512 173.69C117.699 173.683 117.884 173.733 118.043 173.833C118.201 173.934 118.325 174.08 118.399 174.252C119.701 177.384 122.968 180.865 125.487 182.464C127.346 182.418 129.628 183.956 129.628 185.82V186.006C127.559 189.333 122.573 189.059 119.315 187.669C116.057 186.28 116.768 184.007 113.849 182.785C112.762 182.337 111.763 181.7 110.898 180.903C110.756 179.925 110.749 178.931 110.88 177.951Z" fill="white"/>
<path d="M117.187 180.522C117.118 180.608 117.018 180.662 116.908 180.674C116.799 180.686 116.689 180.654 116.604 180.585C116.518 180.516 116.463 180.415 116.451 180.306C116.44 180.197 116.472 180.087 116.541 180.001C117.031 179.352 117.68 178.84 118.426 178.515C119.172 178.189 119.988 178.061 120.798 178.142C120.97 178.361 121.146 178.57 121.328 178.779C120.546 178.686 119.753 178.798 119.027 179.104C118.301 179.409 117.667 179.898 117.187 180.522Z" fill="white"/>
<path d="M115.901 179.081C115.829 179.154 115.732 179.198 115.63 179.203C115.528 179.209 115.427 179.177 115.347 179.113C115.267 179.049 115.214 178.957 115.198 178.856C115.182 178.754 115.204 178.651 115.26 178.565C115.774 177.893 116.452 177.365 117.229 177.03C118.006 176.694 118.856 176.564 119.698 176.65C119.856 176.883 120.019 177.115 120.186 177.343C118.596 177.231 117.174 177.533 115.901 179.081Z" fill="white"/>
<path d="M118.51 181.926C118.438 181.999 118.342 182.043 118.24 182.049C118.137 182.054 118.036 182.022 117.956 181.958C117.877 181.894 117.823 181.802 117.807 181.701C117.791 181.6 117.813 181.496 117.869 181.41C118.347 180.777 118.978 180.275 119.701 179.95C120.425 179.625 121.219 179.488 122.01 179.551C122.219 179.774 122.433 179.988 122.647 180.197C121.866 180.103 121.075 180.213 120.35 180.516C119.626 180.819 118.992 181.305 118.51 181.926Z" fill="white"/>
<path d="M125.482 182.465C127.341 182.419 129.623 183.957 129.623 185.821V186.006C127.583 189.26 122.717 189.064 119.459 187.731C119.696 183.255 123.991 182.446 125.482 182.465Z" fill="white"/>
<path d="M119.907 183.269C119.837 183.35 119.739 183.401 119.632 183.411C119.526 183.421 119.419 183.39 119.336 183.323C119.252 183.256 119.197 183.159 119.184 183.053C119.17 182.947 119.198 182.839 119.261 182.753C119.741 182.118 120.374 181.615 121.1 181.29C121.826 180.965 122.623 180.829 123.416 180.894C123.676 181.127 123.932 181.359 124.192 181.55C122.589 181.42 121.167 181.717 119.907 183.269Z" fill="white"/>
<path d="M96.8307 126.611L113.139 135.706C114.617 136.529 115.799 137.796 116.518 139.327C117.238 140.857 117.459 142.576 117.149 144.239L113.985 161.267L116.582 169.512C114.328 172.519 109.216 172.672 109.216 172.672C106.349 166.923 104.243 164.479 102.617 159.659C100.99 154.84 99.8887 151.507 99.8887 151.507L86.346 147.789C83.2489 146.948 80.4752 145.197 78.3833 142.763C76.2915 140.329 74.9775 137.324 74.6111 134.135C74.3834 132.09 74.3694 130.691 74.3694 130.691L96.8307 126.611Z" fill="#455A64"/>
<path d="M96.8307 126.611L113.139 135.706C114.617 136.529 115.799 137.796 116.518 139.327C117.238 140.857 117.459 142.576 117.149 144.239L113.985 161.267L116.582 169.512C114.328 172.519 109.216 172.672 109.216 172.672C106.349 166.923 104.243 164.479 102.617 159.659C100.99 154.84 99.8887 151.507 99.8887 151.507L86.346 147.789C83.2489 146.948 80.4752 145.197 78.3833 142.763C76.2915 140.329 74.9775 137.324 74.6111 134.135C74.3834 132.09 74.3694 130.691 74.3694 130.691L96.8307 126.611Z" fill="#37474F"/>
<path opacity="0.2" d="M96.7084 131.193C96.7084 133.015 96.063 134.778 94.8866 136.17L106.389 143.374C108.078 144.429 109.33 146.06 109.912 147.965L113.983 161.266L110.312 146.436C109.889 144.73 108.814 143.257 107.319 142.333L96.6945 135.77C97.782 133.061 96.7084 131.193 96.7084 131.193Z" fill="black"/>
<path d="M95.0692 98.6003H95.4874C98.3038 98.6281 101.868 100.548 103.611 105.46L110.378 118.566L102.654 121.991L98.4246 109.624L95.0692 98.6003Z" fill="#A40F0F"/>
<g opacity="0.2">
<path d="M95.068 98.6009H95.4863C98.3027 98.6288 101.867 100.548 103.61 105.461L110.377 118.566L102.653 121.992L98.4235 109.625L95.068 98.6009Z" fill="black"/>
</g>
<path opacity="0.2" d="M100.49 107.296C101.03 108.843 101.062 110.512 101.15 112.152C101.239 113.793 101.425 115.763 102.173 117.223C102.999 116.648 103.989 116.356 104.995 116.392C106 116.428 106.967 116.79 107.75 117.422C108.309 117.894 108.74 118.5 109 119.184L102.661 121.995L98.4316 109.629L96.3542 102.806C97.3069 103.243 98.1633 103.864 98.8734 104.635C99.5835 105.406 100.133 106.31 100.49 107.296Z" fill="black"/>
<path d="M102.577 119.631C102.873 118.903 103.349 118.261 103.96 117.767C104.571 117.273 105.298 116.942 106.072 116.805C106.879 116.724 107.694 116.842 108.444 117.15C109.195 117.458 109.858 117.946 110.375 118.571C111.216 119.589 111.086 120.969 110.552 122.177C110.107 123.117 109.35 123.873 108.411 124.318C107.471 124.763 106.406 124.869 105.398 124.617C103.404 124.06 101.824 121.564 102.577 119.631Z" fill="#A40F0F"/>
<g opacity="0.2">
<path d="M102.575 119.631C102.872 118.903 103.347 118.262 103.959 117.768C104.57 117.274 105.296 116.943 106.07 116.806C106.878 116.725 107.692 116.843 108.443 117.151C109.193 117.459 109.856 117.947 110.374 118.572C111.215 119.59 111.085 120.97 110.551 122.178C110.106 123.118 109.349 123.874 108.409 124.319C107.47 124.764 106.405 124.87 105.396 124.618C103.403 124.06 101.823 121.565 102.575 119.631Z" fill="black"/>
</g>
<path d="M74.1086 131.989C77.004 134.777 90.8953 135.274 97.9827 128.526C97.3042 123.763 97.518 118.66 97.9827 113.612C98.4475 108.565 101.385 99.7397 95.7519 98.7126C88.2277 97.244 84.4307 98.5965 78.2867 100.195C72.9189 109.137 73.6578 122.522 74.1086 131.989Z" fill="#A40F0F"/>
<path opacity="0.2" d="M74.1086 131.989C77.004 134.777 90.8953 135.274 97.9827 128.526C97.3042 123.763 97.518 118.66 97.9827 113.612C98.4475 108.565 101.385 99.7397 95.7519 98.7126C88.2277 97.244 84.4307 98.5965 78.2867 100.195C72.9189 109.137 73.6578 122.522 74.1086 131.989Z" fill="black"/>
<path opacity="0.2" d="M82.3291 122.057C82.0317 117.094 82.3291 108.649 80.6979 106.182L76.2177 104.569C73.4664 112.186 73.6244 121.602 73.9683 129.238C76.9867 130.976 80.2922 132.16 83.728 132.733C85.1594 132.998 86.6048 133.197 88.0548 133.314C91.6938 132.561 95.3142 131.05 97.9725 128.517C97.8796 127.881 97.8099 127.23 97.7495 126.579C94.2411 126.383 90.7753 125.714 87.446 124.59C86.8254 123.825 86.0471 123.202 85.164 122.765C84.281 122.328 83.314 122.087 82.3291 122.057Z" fill="black"/>
<path opacity="0.15" d="M94.6063 131.653C94.6063 131.653 94.6063 131.653 94.6063 131.63C94.6063 131.606 94.6063 131.63 94.6063 131.602V131.578V131.551C94.6063 131.551 94.6063 131.551 94.6063 131.523V131.499L99.6627 122.088L100.36 122.883L95.3034 132.294C95.2713 132.347 95.2493 132.405 95.2383 132.466C95.2331 132.484 95.2325 132.502 95.2366 132.52C95.2406 132.538 95.2492 132.555 95.2616 132.568L94.5645 131.778V131.741C94.5645 131.741 94.5645 131.718 94.5645 131.709L94.6063 131.653Z" fill="white"/>
<path opacity="0.2" d="M99.751 122.03V122.002V121.974V121.947V121.914V121.886V121.854L99.7742 121.826V121.798V121.77V121.747L99.8486 121.682H99.8718H99.8997H99.9323H99.9648H99.9973L105.811 118.428H105.844H105.876H105.909H105.941H105.969H106.002H106.03H106.062H106.095H106.202C106.218 118.428 106.235 118.431 106.25 118.438C106.265 118.444 106.279 118.454 106.29 118.466L106.982 119.26C106.955 119.223 106.894 119.214 106.811 119.232C106.698 119.261 106.591 119.305 106.49 119.363L100.676 122.616C100.561 122.681 100.451 122.754 100.346 122.834C100.234 122.923 100.127 123.011 100.025 123.108C99.9277 123.2 99.8361 123.298 99.751 123.401C99.6787 123.488 99.6149 123.581 99.5605 123.68L98.8633 122.885L99.751 122.03Z" fill="white"/>
<path d="M102.671 125.608C102.671 125.608 98.9997 127.467 97.3731 126.444L98.2329 124.846C95.9226 124.81 93.6712 125.575 91.8612 127.011C88.3894 126.376 85.0001 125.352 81.7576 123.958L80.605 123.493L74.7632 128.35C78.746 130.929 97.5358 132.695 99.4877 131.492C101.44 130.288 102.936 127.899 102.671 125.608Z" fill="#FFA8A7"/>
<path d="M106.64 120.871C106.763 121.484 106.834 122.106 106.853 122.73C106.703 124.231 106.067 125.641 105.041 126.746C104.828 126.988 104.56 127.176 104.26 127.294C104.11 127.35 103.948 127.366 103.79 127.34C103.633 127.315 103.484 127.25 103.359 127.15C103.14 126.891 103.027 126.559 103.043 126.221C102.993 125.713 103.022 125.2 103.126 124.701C103.23 124.196 103.514 123.747 103.926 123.437C104.245 123.242 104.587 123.086 104.943 122.972C105.292 122.826 105.602 122.602 105.85 122.317L106.64 120.871Z" fill="#FFA8A7"/>
<path d="M80.6027 123.478L80.7793 107.769C80.8031 105.647 80.2815 103.553 79.2642 101.69L78.2836 100.198C77.5016 100.276 76.7516 100.549 76.1021 100.992C75.4527 101.434 74.9244 102.032 74.5656 102.731C73.2071 105.065 72.5775 107.752 72.7578 110.446C72.7578 110.446 72.1396 126.638 74.7608 128.334L80.6027 123.478Z" fill="#A40F0F"/>
<path d="M84.5275 124.12L80.605 123.479L74.7632 128.336C76.4781 129.66 80.5864 131.082 83.2959 131.747C84.1261 131.95 84.9954 131.929 85.8148 131.686L86.2796 131.552L87.1766 125.482C86.4568 124.763 85.5308 124.287 84.5275 124.12Z" fill="#A40F0F"/>
<g opacity="0.2">
<path d="M80.6016 123.477L80.7782 107.768C80.8021 105.646 80.2804 103.553 79.2632 101.69L78.2825 100.198C77.5005 100.276 76.7506 100.548 76.1011 100.991C75.4516 101.433 74.9233 102.031 74.5646 102.731C73.206 105.064 72.5764 107.751 72.7567 110.445C72.7567 110.445 72.1386 126.637 74.7598 128.334L80.6016 123.477Z" fill="black"/>
<path d="M84.5265 124.12L80.604 123.478L74.7621 128.335C76.477 129.659 80.5854 131.081 83.2949 131.746C84.125 131.949 84.9943 131.929 85.8138 131.686L86.2786 131.551L87.1755 125.481C86.4558 124.763 85.5297 124.287 84.5265 124.12Z" fill="black"/>
</g>
<path d="M90.6252 126.783C88.8453 127.689 89.7562 131.277 90.1047 131.551L90.6252 131.598C90.5397 131.742 90.4147 131.86 90.265 131.936C90.1153 132.013 89.9469 132.045 89.7794 132.03C88.8267 131.932 86.9352 131.723 86.2566 131.565C84.4302 128.819 86.4704 125.877 87.1582 125.482C88.2736 125.812 89.3658 126.053 89.9467 126.169C90.071 126.195 90.1883 126.247 90.2902 126.322C90.3922 126.398 90.4764 126.495 90.5369 126.606L90.6252 126.783Z" fill="#A40F0F"/>
<path opacity="0.3" d="M90.6252 126.783C88.8453 127.689 89.7562 131.277 90.1047 131.551L90.6252 131.598C90.5397 131.742 90.4147 131.86 90.265 131.936C90.1153 132.013 89.9469 132.045 89.7794 132.03C88.8267 131.932 86.9352 131.723 86.2566 131.565C84.4302 128.819 86.4704 125.877 87.1582 125.482C88.2736 125.812 89.3658 126.053 89.9467 126.169C90.071 126.195 90.1883 126.247 90.2902 126.322C90.3922 126.398 90.4764 126.495 90.5369 126.606L90.6252 126.783Z" fill="black"/>
<path d="M83.9055 99.2885C83.7771 99.5365 83.7062 99.8103 83.6982 100.09C83.6901 100.369 83.7451 100.646 83.859 100.901C84.095 101.409 84.4411 101.859 84.8721 102.216C86.1548 103.35 87.7711 104.037 89.4778 104.173C90.3977 104.278 91.3285 104.117 92.1594 103.708C92.5705 103.496 92.9217 103.184 93.1808 102.801C93.4398 102.417 93.5984 101.975 93.6419 101.515C93.6279 100.975 93.4628 100.449 93.1655 99.9984C92.8681 99.5474 92.4503 99.1888 91.9595 98.9632C90.9675 98.5369 89.8814 98.3767 88.8085 98.4984C87.8044 98.633 86.7913 98.689 85.7784 98.6657C85.0813 98.5635 84.3098 98.596 83.9055 99.2885Z" fill="#A40F0F"/>
<path opacity="0.3" d="M83.9055 99.2885C83.7771 99.5365 83.7062 99.8103 83.6982 100.09C83.6901 100.369 83.7451 100.646 83.859 100.901C84.095 101.409 84.4411 101.859 84.8721 102.216C86.1548 103.35 87.7711 104.037 89.4778 104.173C90.3977 104.278 91.3285 104.117 92.1594 103.708C92.5705 103.496 92.9217 103.184 93.1808 102.801C93.4398 102.417 93.5984 101.975 93.6419 101.515C93.6279 100.975 93.4628 100.449 93.1655 99.9984C92.8681 99.5474 92.4503 99.1888 91.9595 98.9632C90.9675 98.5369 89.8814 98.3767 88.8085 98.4984C87.8044 98.633 86.7913 98.689 85.7784 98.6657C85.0813 98.5635 84.3098 98.596 83.9055 99.2885Z" fill="black"/>
<path d="M83.2646 87.6099L87.3591 93.6516H87.4613L83.0927 87.2195C83.0927 87.2195 76.0796 90.2264 76.5862 92.3782C76.5976 92.4054 76.6069 92.4333 76.6141 92.4619L76.6699 92.6013C76.6681 92.6152 76.6681 92.6292 76.6699 92.6431L76.8093 92.9963C76.7821 92.9348 76.7603 92.8711 76.7442 92.8058C76.2516 90.6261 83.2646 87.6099 83.2646 87.6099Z" fill="#A40F0F"/>
<path opacity="0.1" d="M83.2646 87.6099L87.3591 93.6516H87.4613L83.0927 87.2195C83.0927 87.2195 76.0796 90.2264 76.5862 92.3782C76.5976 92.4054 76.6069 92.4333 76.6141 92.4619L76.6699 92.6013C76.6681 92.6152 76.6681 92.6292 76.6699 92.6431L76.8093 92.9963C76.7821 92.9348 76.7603 92.8711 76.7442 92.8058C76.2516 90.6261 83.2646 87.6099 83.2646 87.6099Z" fill="black"/>
<path d="M87.3732 93.6424L83.2788 87.6007C83.2788 87.6007 76.2658 90.6123 76.7723 92.7594C76.7884 92.8247 76.8102 92.8885 76.8374 92.9499C77.9249 95.5525 87.6428 94.0328 87.6428 94.0328L87.3732 93.6424Z" fill="#A40F0F"/>
<path opacity="0.3" d="M87.3732 93.6424L83.2788 87.6007C83.2788 87.6007 76.2658 90.6123 76.7723 92.7594C76.7884 92.8247 76.8102 92.8885 76.8374 92.9499C77.9249 95.5525 87.6428 94.0328 87.6428 94.0328L87.3732 93.6424Z" fill="black"/>
<path d="M85.4606 97.2764C84.4935 95.5132 83.74 93.641 83.2159 91.6994C82.7511 89.7382 81.4173 85.3835 82.3654 83.6082C83.0811 82.2743 85.0516 80.9266 86.3762 80.1969C87.7007 79.4673 89.4342 79.6903 90.9121 79.3697C92.2105 79.0482 93.5533 78.9445 94.8857 79.0629C96.2102 79.2256 97.8787 81.619 98.7617 82.6229C100.156 84.203 100.202 86.6987 99.1986 88.5577C98.1947 90.4167 96.3311 91.6901 94.342 92.4105C92.3528 93.1308 90.2289 93.34 88.1283 93.5677C87.2592 94.7296 86.3297 96.1052 85.4606 97.2764Z" fill="#263238"/>
<path d="M96.5923 78.0162C94.5288 76.1572 91.4103 75.7854 88.6916 76.5011C86.3911 77.1099 83.7234 77.821 82.3942 79.7543C81.0651 81.6877 81.7389 84.439 81.8923 87.1903C84.293 85.274 87.1355 83.9894 90.1602 83.4537C90.518 83.3887 90.8852 83.3422 91.257 83.305L91.0757 82.4034C91.0226 82.1466 91.0253 81.8815 91.0835 81.6259C91.1418 81.3702 91.2542 81.1301 91.4133 80.9217C91.5724 80.7133 91.7743 80.5414 92.0055 80.4178C92.2367 80.2942 92.4918 80.2217 92.7535 80.2051C93.1703 80.182 93.5883 80.1913 94.0036 80.233C94.5815 80.2925 95.1263 80.5309 95.5621 80.915C95.9978 81.2991 96.3027 81.8097 96.4343 82.3755C96.5272 82.7938 96.6202 83.2167 96.7085 83.5978C97.737 83.7788 98.7512 84.0335 99.7433 84.36C99.0647 82.0967 98.3537 79.6056 96.5923 78.0162Z" fill="#455A64"/>
<path d="M96.3705 82.186C94.6189 81.7903 92.8073 81.7366 91.0352 82.028C91.034 82.1545 91.0465 82.2807 91.0724 82.4045L91.2537 83.3061C93.0757 83.1569 94.9096 83.2554 96.7052 83.5989C96.6169 83.2178 96.5239 82.7949 96.431 82.3766C96.4124 82.3115 96.3891 82.2604 96.3705 82.186Z" fill="#37474F"/>
<path d="M92.1311 96.6679L91.8615 99.6702C91.8509 99.904 91.9108 100.136 92.0335 100.335C92.1991 100.648 92.2626 101.005 92.215 101.356C92.1675 101.706 92.0114 102.034 91.7686 102.291C91.3832 102.588 90.9118 102.751 90.4255 102.756C89.5114 102.805 88.5972 102.661 87.7427 102.333C86.8882 102.004 86.1126 101.499 85.4666 100.851C85.3367 100.714 85.2352 100.553 85.1682 100.376C85.1012 100.2 85.0699 100.012 85.0762 99.8236L85.2714 92.211L92.1311 96.6679Z" fill="#FFA8A7"/>
<path d="M92.1311 96.6679L91.8615 99.6702C91.8509 99.904 91.9108 100.136 92.0335 100.335C92.1991 100.648 92.2626 101.005 92.215 101.356C92.1675 101.706 92.0114 102.034 91.7686 102.291C91.3832 102.588 90.9118 102.751 90.4255 102.756C89.5114 102.805 88.5972 102.661 87.7427 102.333C86.8882 102.004 86.1126 101.499 85.4666 100.851C85.3367 100.714 85.2352 100.553 85.1682 100.376C85.1012 100.2 85.0699 100.012 85.0762 99.8236L85.2714 92.211L92.1311 96.6679Z" fill="#FFA8A7"/>
<path opacity="0.2" d="M87.5059 98.1583C88.2631 98.8107 89.1837 99.2445 90.1689 99.4131C90.7522 99.4939 91.3463 99.435 91.9024 99.2412L92.1301 96.6711L85.2705 92.2003L85.2007 94.9887C85.6886 96.2233 86.4817 97.3138 87.5059 98.1583Z" fill="black"/>
<path d="M94.6842 87.3735C95.331 87.0694 95.8763 86.5853 96.2551 85.9792C94.9036 86.5961 93.4584 86.9825 91.9794 87.1225C92.5464 86.6299 93.0855 86.0722 93.6525 85.5796C92.6387 85.9225 91.5967 86.176 90.5387 86.3371C91.129 86.034 91.6546 85.6188 92.0863 85.1148C90.4272 85.8896 88.648 86.3753 86.8254 86.5509C86.7443 86.6602 86.6916 86.788 86.672 86.9227L86.3931 89.0837C86.3963 89.2374 86.365 89.3899 86.3015 89.5298C86.2379 89.6698 86.1438 89.7937 86.026 89.8924C85.8983 89.9524 85.7555 89.9725 85.6162 89.9501C85.477 89.9277 85.3477 89.8639 85.2452 89.7669C85.0446 89.5667 84.8866 89.328 84.7805 89.0652C84.555 88.5201 84.2529 88.0099 83.8835 87.5501C83.696 87.3214 83.4617 87.1354 83.1964 87.0048C82.931 86.8741 82.6408 86.8018 82.3452 86.7925C81.3832 86.8158 80.6489 87.7778 80.5466 88.7352C80.4996 89.23 80.5765 89.7287 80.7704 90.1863C80.9643 90.6439 81.2691 91.046 81.6574 91.3564C82.0574 91.6402 82.5221 91.8195 83.0091 91.8779C83.4961 91.9364 83.99 91.8721 84.4458 91.691C84.009 93.3594 84.8827 95.1487 86.1794 96.2827C87.476 97.4167 89.1398 98.0301 90.7618 98.6064C91.6494 98.9271 92.5882 99.2524 93.5131 99.0712C94.2672 98.9015 94.9429 98.4843 95.4325 97.8861C95.9193 97.2907 96.3184 96.6287 96.6176 95.9202C98.081 92.7606 98.9145 89.3461 99.0714 85.8677C97.8343 86.8748 96.2791 87.4086 94.6842 87.3735Z" fill="#FFA8A7"/>
<path d="M93.474 90.7757L94.831 94.3635L92.4562 94.3914L93.474 90.7757Z" fill="#F28F8F"/>
<path d="M89.8265 95.0835L92.3176 96.1106C92.1268 96.398 91.8477 96.6156 91.5224 96.7305C91.1971 96.8453 90.8433 96.8512 90.5144 96.7473C89.9055 96.5149 89.6964 95.7388 89.8265 95.0835Z" fill="#F28F8F"/>
<path opacity="0.3" d="M89.8265 95.0835L92.3176 96.1106C92.1268 96.398 91.8477 96.6156 91.5224 96.7305C91.1971 96.8453 90.8433 96.8512 90.5144 96.7473C89.9055 96.5149 89.6964 95.7388 89.8265 95.0835Z" fill="black"/>
<path d="M91.3588 96.7746C91.0803 96.8496 90.7858 96.8399 90.5129 96.7467C90.2839 96.6347 90.0931 96.4577 89.9641 96.2378C89.8352 96.018 89.7739 95.765 89.7879 95.5104C90.1616 95.4809 90.5325 95.5953 90.8246 95.8303C91.1166 96.0654 91.3077 96.4032 91.3588 96.7746Z" fill="#F28F8F"/>
<path d="M90.1187 90.1181C90.0707 90.2895 90.0926 90.4729 90.1798 90.628C90.2669 90.7832 90.4121 90.8973 90.5835 90.9454C90.7548 90.9935 90.9382 90.9715 91.0934 90.8843C91.2485 90.7972 91.3627 90.652 91.4107 90.4806C91.4345 90.3958 91.4414 90.3071 91.4309 90.2196C91.4204 90.1322 91.3928 90.0476 91.3497 89.9708C91.3065 89.894 91.2487 89.8264 91.1794 89.7719C91.1101 89.7175 91.0308 89.6772 90.946 89.6534C90.8611 89.6296 90.7725 89.6227 90.685 89.6332C90.5975 89.6437 90.5129 89.6713 90.4361 89.7144C90.3593 89.7576 90.2917 89.8155 90.2373 89.8847C90.1828 89.954 90.1425 90.0333 90.1187 90.1181Z" fill="#263238"/>
<path d="M95.4735 91.2403C95.4255 91.4116 95.4474 91.595 95.5346 91.7502C95.6217 91.9053 95.7669 92.0195 95.9383 92.0676C96.1096 92.1156 96.293 92.0937 96.4481 92.0065C96.6033 91.9193 96.7175 91.7741 96.7655 91.6028C96.7893 91.518 96.7962 91.4293 96.7857 91.3418C96.7752 91.2543 96.7476 91.1697 96.7045 91.0929C96.6613 91.0161 96.6035 90.9485 96.5342 90.8941C96.4649 90.8396 96.3856 90.7994 96.3008 90.7756C96.2159 90.7518 96.1272 90.7449 96.0398 90.7554C95.9523 90.7658 95.8677 90.7934 95.7909 90.8366C95.7141 90.8798 95.6465 90.9376 95.5921 91.0069C95.5376 91.0762 95.4973 91.1555 95.4735 91.2403Z" fill="#263238"/>
<path d="M96.9305 87.9344L98.083 89.3286C98.1983 89.1698 98.2603 88.9787 98.2603 88.7825C98.2603 88.5863 98.1983 88.3952 98.083 88.2364C97.9385 88.0832 97.7538 87.9736 97.55 87.9202C97.3463 87.8668 97.1316 87.8717 96.9305 87.9344Z" fill="#263238"/>
<path d="M90.9981 86.8287L89.2878 87.4189C89.2722 87.2246 89.3182 87.0303 89.4191 86.8635C89.52 86.6967 89.6708 86.5658 89.8502 86.4894C90.0541 86.4327 90.2698 86.4345 90.4728 86.4945C90.6758 86.5544 90.8578 86.6703 90.9981 86.8287Z" fill="#263238"/>
<path d="M52.7033 120.76L80.7044 142.455C81.5589 143.116 82.2686 143.946 82.7898 144.892C83.311 145.838 83.6325 146.882 83.7345 147.957L86.8762 180.871C86.7031 181.032 86.4812 181.131 86.2455 181.152C86.0098 181.173 85.7739 181.115 85.5749 180.987L79.998 147.943C79.9044 147.38 79.6898 146.843 79.3689 146.371C79.0479 145.898 78.6283 145.501 78.139 145.206L53.3865 130.376C50.1426 128.447 49.5709 121.629 52.7033 120.76Z" fill="#455A64"/>
<path opacity="0.3" d="M52.7033 120.76L80.7044 142.455C81.5589 143.116 82.2686 143.946 82.7898 144.892C83.311 145.838 83.6325 146.882 83.7345 147.957L86.8762 180.871C86.7031 181.032 86.4812 181.131 86.2455 181.152C86.0098 181.173 85.7739 181.115 85.5749 180.987L79.998 147.943C79.9044 147.38 79.6898 146.843 79.3689 146.371C79.0479 145.898 78.6283 145.501 78.139 145.206L53.3865 130.376C50.1426 128.447 49.5709 121.629 52.7033 120.76Z" fill="white"/>
<path d="M94.6074 131.682C94.6074 131.682 94.6074 131.705 94.6074 131.714V131.751L95.3045 132.541C95.3045 132.541 95.3045 132.509 95.3045 132.49C95.3324 132.611 95.509 132.606 95.8111 132.439L101.625 129.186C102.075 128.925 102.457 128.562 102.741 128.126L107.82 118.701C107.899 118.543 107.899 118.45 107.82 118.408H107.843L107.151 117.614C107.14 117.602 107.126 117.592 107.111 117.586C107.095 117.58 107.079 117.576 107.063 117.577H106.956H106.923H106.891H106.863H106.83H106.802H106.77H106.737H106.705H106.672L100.858 120.83H100.826H100.793H100.761H100.733H100.71L100.635 120.895V120.918V120.946V120.974L100.612 121.002V121.034V121.062V121.095V121.123V121.15V121.178V121.206L95.5555 130.617V130.641C95.5555 130.641 95.5555 130.641 95.5555 130.668V130.696V130.72C95.5555 130.72 95.5555 130.72 95.5555 130.747C95.5555 130.775 95.5555 130.747 95.5555 130.771V130.808L94.6074 131.682ZM107.653 118.394H107.676C107.676 118.394 107.699 118.394 107.718 118.394C107.696 118.39 107.674 118.39 107.653 118.394ZM95.3045 132.453C95.3155 132.392 95.3375 132.334 95.3696 132.281C95.3355 132.34 95.3134 132.404 95.3045 132.472C95.3045 132.472 95.3045 132.453 95.3045 132.453Z" fill="#455A64"/>
<path d="M60.4734 177.549L62.4579 178.701L62.4486 176.41L60.4734 177.549Z" fill="#E6E6E6"/>
<path d="M62.3695 154.171L43.0918 165.297L62.3695 154.171Z" fill="#CFCFCF"/>
<path d="M62.4484 176.408V178.699L64.5119 177.51L64.4422 150.577L41.005 164.111L41.0794 191.038L43.1428 189.849V187.557L60.4733 177.533L62.4484 176.408ZM43.0917 165.296L62.3694 154.17L62.3927 162.903L43.1196 174.056L43.0917 165.296ZM43.1243 176.422L62.402 165.291V165.319V174.029L43.1475 185.155L43.1243 176.422Z" fill="#E0E0E0"/>
<path d="M62.425 174.03L62.4017 165.321V165.298L43.124 176.424L43.1473 185.156L62.425 174.03Z" fill="#E0E0E0"/>
<path d="M62.3928 162.904L62.3695 154.171L43.0918 165.297L43.1197 174.034L62.3928 162.904Z" fill="#E0E0E0"/>
<path d="M41.0043 164.111L20.5415 152.219L20.6159 179.151L41.0787 191.039L41.0043 164.111Z" fill="#E0E0E0"/>
<path d="M41.0043 164.111L64.4416 150.578L43.9787 138.685L20.5415 152.218L41.0043 164.111Z" fill="#E0E0E0"/>
<path opacity="0.2" d="M60.4734 177.549L62.4579 178.701L62.4486 176.41L60.4734 177.549Z" fill="white"/>
<path d="M62.3695 154.171L43.0918 165.297L62.3695 154.171Z" fill="#CFCFCF"/>
<path opacity="0.8" d="M62.425 174.03L62.4017 165.321V165.298L43.124 176.424L43.1473 185.156L62.425 174.03Z" fill="white"/>
<path opacity="0.8" d="M62.3928 162.904L62.3695 154.171L43.0918 165.297L43.1197 174.034L62.3928 162.904Z" fill="white"/>
<path d="M56.0854 161.045L56.0761 159.841L49.4023 163.694L49.407 164.902L56.0854 161.045Z" fill="#E0E0E0"/>
<path d="M56.0854 172.018L56.0761 170.81L49.4023 174.663L49.407 175.871L56.0854 172.018Z" fill="#E0E0E0"/>
<path opacity="0.2" d="M41.0043 164.111L20.5415 152.219L20.6159 179.151L41.0787 191.039L41.0043 164.111Z" fill="white"/>
<path opacity="0.4" d="M41.0043 164.111L64.4416 150.578L43.9787 138.685L20.5415 152.218L41.0043 164.111Z" fill="white"/>
<path opacity="0.05" d="M36.4589 145.634C39.0615 144.129 43.2674 144.129 45.8514 145.634C48.4354 147.14 48.4215 149.571 45.8189 151.077C43.2163 152.582 39.0104 152.578 36.4264 151.077C33.8424 149.575 33.8563 147.135 36.4589 145.634Z" fill="black"/>
<path d="M34.1983 136.17L41.3368 136.379L48.4799 136.17C48.7867 140.994 47.8432 145.907 46.5466 148.309C46.2451 148.925 45.7572 149.429 45.1524 149.75C43.047 150.968 39.6404 150.968 37.5491 149.75C36.933 149.426 36.4425 148.906 36.1548 148.272C34.8257 145.86 33.8915 140.976 34.1983 136.17Z" fill="white"/>
<path d="M36.3107 133.253C33.5222 134.87 33.4943 137.487 36.2735 139.104C39.0527 140.721 43.5747 140.717 46.3725 139.104C49.1702 137.491 49.1609 134.87 46.405 133.253C43.649 131.635 39.1084 131.64 36.3107 133.253Z" fill="#EBEBEB"/>
<path d="M37.4171 133.893C35.2328 135.158 35.2235 137.198 37.3893 138.457C39.555 139.717 43.0871 139.717 45.29 138.457C47.4929 137.198 47.4836 135.158 45.3179 133.893C43.1521 132.629 39.5968 132.634 37.4171 133.893Z" fill="#E0E0E0"/>
<g opacity="0.15">
<path d="M37.4163 133.893C35.232 135.157 35.2227 137.197 37.3884 138.456C39.5542 139.716 43.0862 139.716 45.2891 138.456C47.492 137.197 47.4828 135.157 45.317 133.893C43.1513 132.629 39.596 132.633 37.4163 133.893Z" fill="black"/>
</g>
<path d="M41.9374 136.381C41.3647 136.858 40.6873 137.193 39.9603 137.359C39.2334 137.525 38.4776 137.516 37.7547 137.334C37.0579 137.121 36.425 136.738 35.9131 136.219C35.4011 135.701 35.0262 135.063 34.8221 134.364C35.6673 133.962 36.4412 133.425 37.1133 132.774C36.0397 132.505 34.9117 132.545 33.8601 132.891C33.5693 132.434 33.3949 131.913 33.3519 131.374C33.309 130.834 33.3989 130.292 33.6138 129.795C34.8323 129.253 36.2031 129.158 37.4851 129.526C36.9532 129.061 36.331 128.712 35.6575 128.5C34.984 128.288 34.2739 128.218 33.5719 128.294C33.4675 126.247 33.7839 124.2 34.5014 122.28C37.1644 122.42 39.7438 123.563 40.6175 124.39C40.6557 125.343 40.5555 126.297 40.3201 127.221C40.6638 127.044 40.9573 126.784 41.1735 126.464C41.3896 126.144 41.5213 125.774 41.5563 125.39C43.2247 125.808 43.9358 126.64 44.1961 127.272C43.9569 128.456 43.4139 129.558 42.6206 130.469C44.1821 130.005 44.8188 128.252 44.8188 128.252C46.3664 131.896 46.0736 136.023 41.9374 136.381Z" fill="#A40F0F"/>
<path opacity="0.2" d="M41.9374 136.381C41.3647 136.858 40.6873 137.193 39.9603 137.359C39.2334 137.525 38.4776 137.516 37.7547 137.334C37.0579 137.121 36.425 136.738 35.9131 136.219C35.4011 135.701 35.0262 135.063 34.8221 134.364C35.6673 133.962 36.4412 133.425 37.1133 132.774C36.0397 132.505 34.9117 132.545 33.8601 132.891C33.5693 132.434 33.3949 131.913 33.3519 131.374C33.309 130.834 33.3989 130.292 33.6138 129.795C34.8323 129.253 36.2031 129.158 37.4851 129.526C36.9532 129.061 36.331 128.712 35.6575 128.5C34.984 128.288 34.2739 128.218 33.5719 128.294C33.4675 126.247 33.7839 124.2 34.5014 122.28C37.1644 122.42 39.7438 123.563 40.6175 124.39C40.6557 125.343 40.5555 126.297 40.3201 127.221C40.6638 127.044 40.9573 126.784 41.1735 126.464C41.3896 126.144 41.5213 125.774 41.5563 125.39C43.2247 125.808 43.9358 126.64 44.1961 127.272C43.9569 128.456 43.4139 129.558 42.6206 130.469C44.1821 130.005 44.8188 128.252 44.8188 128.252C46.3664 131.896 46.0736 136.023 41.9374 136.381Z" fill="black"/>
<path opacity="0.3" d="M41.9374 136.381C41.3647 136.858 40.6873 137.193 39.9603 137.359C39.2334 137.525 38.4776 137.516 37.7547 137.334C37.0579 137.121 36.425 136.738 35.9131 136.219C35.4011 135.701 35.0262 135.063 34.8221 134.364C35.6673 133.962 36.4412 133.425 37.1133 132.774C36.0397 132.505 34.9117 132.545 33.8601 132.891C33.5693 132.434 33.3949 131.913 33.3519 131.374C33.309 130.834 33.3989 130.292 33.6138 129.795C34.8323 129.253 36.2031 129.158 37.4851 129.526C36.9532 129.061 36.331 128.712 35.6575 128.5C34.984 128.288 34.2739 128.218 33.5719 128.294C33.4675 126.247 33.7839 124.2 34.5014 122.28C37.1644 122.42 39.7438 123.563 40.6175 124.39C40.6557 125.343 40.5555 126.297 40.3201 127.221C40.6638 127.044 40.9573 126.784 41.1735 126.464C41.3896 126.144 41.5213 125.774 41.5563 125.39C43.2247 125.808 43.9358 126.64 44.1961 127.272C43.9569 128.456 43.4139 129.558 42.6206 130.469C44.1821 130.005 44.8188 128.252 44.8188 128.252C46.3664 131.896 46.0736 136.023 41.9374 136.381Z" fill="white"/>
<path d="M42.0312 136.776C42.0719 136.771 42.1093 136.752 42.136 136.721C42.1627 136.69 42.1767 136.65 42.1753 136.609C41.9197 133.249 39.9956 127.7 35.4086 123.131C35.3947 123.117 35.3781 123.105 35.3597 123.098C35.3414 123.09 35.3216 123.086 35.3017 123.086C35.2817 123.086 35.262 123.09 35.2436 123.098C35.2253 123.105 35.2086 123.117 35.1948 123.131C35.1803 123.145 35.1688 123.162 35.161 123.181C35.1531 123.2 35.1491 123.22 35.1491 123.24C35.1491 123.261 35.1531 123.281 35.161 123.299C35.1688 123.318 35.1803 123.335 35.1948 123.35C39.7214 127.867 41.6176 133.332 41.8685 136.641C41.8703 136.661 41.8759 136.68 41.885 136.697C41.8942 136.715 41.9067 136.73 41.9218 136.743C41.9369 136.755 41.9544 136.764 41.9731 136.77C41.9919 136.776 42.0117 136.778 42.0312 136.776Z" fill="#F5F5F5"/>
<path d="M40.7733 138.179C41.3071 138.615 41.9366 138.919 42.6104 139.066C43.2841 139.212 43.983 139.197 44.6498 139.021C45.3165 138.846 45.9324 138.515 46.4468 138.056C46.9613 137.597 47.3598 137.023 47.6097 136.38C46.8459 136.037 46.1465 135.565 45.5416 134.986C46.5542 134.745 47.6128 134.777 48.6089 135.079C48.91 134.694 49.1074 134.238 49.1823 133.754C49.2571 133.271 49.2069 132.777 49.0365 132.318C47.8771 131.841 46.5916 131.764 45.3836 132.1C46.4587 131.26 47.812 130.858 49.1713 130.975C49.4038 129.17 49.2292 127.336 48.66 125.607C46.1225 125.761 43.6129 126.811 42.7392 127.555C42.6415 128.393 42.676 129.241 42.8414 130.069C42.5352 129.921 42.2753 129.692 42.0901 129.407C41.9049 129.122 41.8015 128.792 41.7911 128.452C40.2016 128.837 39.4673 129.581 39.2024 130.143C39.3527 131.187 39.7977 132.165 40.4851 132.964C40.0396 132.803 39.6363 132.542 39.3056 132.202C38.9748 131.863 38.7251 131.453 38.575 131.003C36.9066 134.233 36.9345 137.867 40.7733 138.179Z" fill="#A40F0F"/>
<path opacity="0.3" d="M40.7733 138.179C41.3071 138.615 41.9366 138.919 42.6104 139.066C43.2841 139.212 43.983 139.197 44.6498 139.021C45.3165 138.846 45.9324 138.515 46.4468 138.056C46.9613 137.597 47.3598 137.023 47.6097 136.38C46.8459 136.037 46.1465 135.565 45.5416 134.986C46.5542 134.745 47.6128 134.777 48.6089 135.079C48.91 134.694 49.1074 134.238 49.1823 133.754C49.2571 133.271 49.2069 132.777 49.0365 132.318C47.8771 131.841 46.5916 131.764 45.3836 132.1C46.4587 131.26 47.812 130.858 49.1713 130.975C49.4038 129.17 49.2292 127.336 48.66 125.607C46.1225 125.761 43.6129 126.811 42.7392 127.555C42.6415 128.393 42.676 129.241 42.8414 130.069C42.5352 129.921 42.2753 129.692 42.0901 129.407C41.9049 129.122 41.8015 128.792 41.7911 128.452C40.2016 128.837 39.4673 129.581 39.2024 130.143C39.3527 131.187 39.7977 132.165 40.4851 132.964C40.0396 132.803 39.6363 132.542 39.3056 132.202C38.9748 131.863 38.7251 131.453 38.575 131.003C36.9066 134.233 36.9345 137.867 40.7733 138.179Z" fill="white"/>
<path d="M40.6715 138.546C40.7082 138.545 40.7435 138.532 40.7715 138.508C40.7995 138.484 40.8184 138.452 40.8248 138.416C41.2617 135.488 43.3856 130.626 47.9448 126.569C47.9592 126.555 47.9707 126.538 47.9786 126.519C47.9864 126.5 47.9905 126.48 47.9905 126.46C47.9905 126.44 47.9864 126.42 47.9786 126.401C47.9707 126.382 47.9592 126.365 47.9448 126.351C47.9309 126.336 47.9143 126.325 47.8959 126.317C47.8776 126.309 47.8578 126.305 47.8379 126.305C47.8179 126.305 47.7982 126.309 47.7798 126.317C47.7615 126.325 47.7448 126.336 47.731 126.351C43.1114 130.468 40.955 135.404 40.5088 138.383C40.5035 138.423 40.5142 138.464 40.5385 138.496C40.5629 138.528 40.599 138.549 40.6389 138.555L40.6715 138.546Z" fill="white"/>
<path d="M92.62 36.3171L73.8767 47.0063C73.4544 47.2545 73.1038 47.6081 72.8594 48.0326C72.6149 48.4571 72.485 48.9378 72.4825 49.4277V67.0137C72.4947 67.4996 72.6352 67.9736 72.8897 68.3876C73.1442 68.8017 73.5037 69.141 73.9317 69.3713C74.3597 69.6016 74.841 69.7146 75.3268 69.6988C75.8125 69.6831 76.2855 69.5392 76.6977 69.2817L82.0423 66.2701L82.2654 66.6326C82.2755 66.6458 82.2881 66.6569 82.3026 66.6652H82.3304C82.7394 66.9347 83.4598 67.3251 83.6224 67.4041C83.6601 67.4161 83.7009 67.4132 83.7364 67.3959C83.7719 67.3785 83.7993 67.3482 83.813 67.3112L84.7425 64.7132L95.4317 58.5925C95.8572 58.3468 96.2103 57.9931 96.4551 57.567C96.7 57.141 96.8279 56.6579 96.8259 56.1665V38.5758C96.8399 36.5728 93.8794 35.5968 92.62 36.3171Z" fill="#A40F0F"/>
<path opacity="0.2" d="M82.259 66.6512C82.2691 66.6644 82.2817 66.6755 82.2961 66.6838H82.324C82.733 66.9533 83.4534 67.3437 83.616 67.4227C83.5969 67.4187 83.5789 67.4109 83.5629 67.3997C83.5469 67.3885 83.5334 67.3742 83.5231 67.3576L82.6401 65.9216L82.812 65.824L82.0359 66.2887L82.259 66.6512Z" fill="white"/>
<path opacity="0.4" d="M75.6124 49.6542C75.7935 49.2951 76.0485 48.9784 76.3607 48.7247C76.4673 48.6383 76.5808 48.5606 76.6999 48.4924L95.4385 37.8032C95.5801 37.7214 95.7407 37.6785 95.9042 37.6786C96.0677 37.6788 96.2282 37.7221 96.3696 37.8041C96.511 37.8861 96.6283 38.004 96.7096 38.1458C96.791 38.2876 96.8334 38.4484 96.8328 38.6118C96.8328 36.5995 93.8677 35.6235 92.6129 36.3439L73.8696 47.0331C73.4345 47.2837 73.0761 47.6485 72.8332 48.088L75.6124 49.6542Z" fill="white"/>
<path opacity="0.2" d="M75.2905 68.4947V50.9086C75.2835 50.7988 75.2835 50.6885 75.2905 50.5787C75.3373 50.2551 75.4362 49.9412 75.5833 49.6492L72.7948 48.0737C72.5587 48.4904 72.4338 48.961 72.4323 49.44V67.0261C72.4446 67.5119 72.5851 67.9859 72.8396 68.4C73.0941 68.814 73.4536 69.1534 73.8816 69.3837C74.3096 69.6139 74.7909 69.7269 75.2767 69.7112C75.7624 69.6955 76.2354 69.5515 76.6476 69.294C76.5079 69.3665 76.352 69.4023 76.1946 69.3981C76.0373 69.3938 75.8836 69.3497 75.7479 69.2698C75.6123 69.1899 75.4992 69.0769 75.4192 68.9413C75.3392 68.8057 75.2949 68.652 75.2905 68.4947Z" fill="white"/>
<path d="M88.6624 58.8942C88.6252 59.7308 87.7329 61.1111 86.8592 61.6455L86.7848 61.692C85.8553 62.2265 84.9583 61.9616 84.8422 61.1018L88.6624 58.8942Z" fill="white"/>
<path d="M92.0204 55.0322C92.2574 55.1205 92.3317 55.6178 92.1691 56.0128C92.0873 56.2286 91.935 56.4104 91.7369 56.5287L91.221 56.8308L90.7051 57.1282L86.7548 59.4055L81.8517 62.2404C81.4427 62.4728 81.2707 62.3612 81.2522 61.9058C81.2478 61.5906 81.3456 61.2824 81.531 61.0274C82.0653 60.1803 82.4153 59.2302 82.5581 58.2389C82.691 57.3155 82.7532 56.3833 82.744 55.4505C82.7326 54.913 82.7621 54.3754 82.8323 53.8424C83.1109 52.231 83.8281 50.7276 84.9051 49.497C85.0433 49.375 85.1476 49.2193 85.2079 49.045C85.2682 48.8707 85.2823 48.6838 85.249 48.5025C85.2273 47.9392 85.3506 47.3798 85.6069 46.8778C85.8632 46.3757 86.244 45.9478 86.7129 45.635C86.9563 45.4818 87.2465 45.4208 87.5309 45.463C88.0607 45.5606 88.2838 46.0207 88.1908 46.8015C88.1351 47.2663 88.1908 47.3824 88.5487 47.401C89.9429 47.4847 90.6726 48.4235 90.7284 50.222C90.7562 51.1004 90.7748 51.9788 90.8352 52.8339C90.8561 53.4169 91.0257 53.9848 91.3279 54.4838C91.4932 54.7368 91.7362 54.9293 92.0204 55.0322ZM87.5727 54.3769L87.9724 49.59L85.5139 51.0121L85.9368 55.3203L87.5867 54.3908M86.7687 57.7928C87.1142 57.5885 87.4047 57.3032 87.6152 56.9615C87.8258 56.6198 87.9499 56.232 87.9771 55.8315C87.9771 55.1251 87.4798 54.8742 86.7641 55.2878C86.4184 55.4872 86.1273 55.7689 85.9165 56.1077C85.7057 56.4466 85.5818 56.8322 85.5557 57.2304C85.5557 57.9229 86.0576 58.2064 86.7687 57.7928ZM86.7362 46.7969C86.5899 46.8919 86.4682 47.0202 86.381 47.1712C86.2937 47.3222 86.2435 47.4918 86.2342 47.6659C86.2342 47.982 86.4573 48.1074 86.7315 47.9541C86.8772 47.8595 86.9985 47.732 87.0857 47.5818C87.1729 47.4316 87.2235 47.263 87.2335 47.0896C87.2335 46.769 87.0104 46.6249 86.7315 46.7969" fill="white"/>
</svg>
