<svg width="25" height="25" viewBox="0 0 25 25" fill="none" xmlns="http://www.w3.org/2000/svg">
<g clip-path="url(#clip0_726_639)">
<path d="M23.4375 22.3359L2.66406 1.5625L1.5625 2.66406L7.8125 8.91406L2.07813 10.9844C1.9299 11.0406 1.80228 11.1406 1.71223 11.2711C1.62217 11.4015 1.57394 11.5563 1.57394 11.7148C1.57394 11.8734 1.62217 12.0282 1.71223 12.1586C1.80228 12.2891 1.9299 12.3891 2.07813 12.4453L8.78906 15.125L11.3984 12.5L12.5 13.6016L9.86719 16.2344L12.5547 22.9453C12.6126 23.0907 12.7128 23.2153 12.8423 23.3031C12.9719 23.3908 13.1248 23.4377 13.2812 23.4375C13.4391 23.4343 13.5923 23.3833 13.7206 23.2912C13.8489 23.1992 13.9463 23.0704 14 22.9219L16.0938 17.1875L22.3438 23.4375L23.4375 22.3359ZM17.5703 13.1484L20.2656 5.73438C20.316 5.59484 20.3255 5.44386 20.2932 5.29909C20.2609 5.15431 20.188 5.02173 20.0832 4.91684C19.9783 4.81195 19.8457 4.73909 19.7009 4.70678C19.5561 4.67447 19.4052 4.68404 19.2656 4.73438L11.8516 7.42969L17.5703 13.1484Z" fill="#F1B0AA"/>
</g>
<defs>
<clipPath id="clip0_726_639">
<rect width="25" height="25" fill="white"/>
</clipPath>
</defs>
</svg>
