<svg width="223" height="219" viewBox="0 0 223 219" fill="none" xmlns="http://www.w3.org/2000/svg">
<path d="M191.108 113.884C149.457 89.8381 82.1525 89.8381 40.7714 113.884C-0.609757 137.93 -0.391326 176.918 41.2361 200.964C82.8635 225.01 150.196 225.015 191.577 200.964C232.958 176.913 232.763 137.93 191.108 113.884Z" fill="#F5F5F5"/>
<path d="M43.504 156.303L78.2764 136.24L120.517 160.616C120.769 160.762 120.978 160.971 121.124 161.223C121.269 161.475 121.345 161.761 121.345 162.052C121.345 162.343 121.269 162.629 121.124 162.881C120.978 163.133 120.769 163.343 120.517 163.488L109.108 170.069C116.135 169.228 123.719 170.385 129.152 173.541C137.736 178.528 137.69 186.614 129.055 191.606C120.42 196.597 106.454 196.592 97.8701 191.606C92.4326 188.445 90.4621 184.044 91.9446 179.987L89.8672 181.181C88.6087 181.907 87.1815 182.29 85.7286 182.29C84.2758 182.29 82.8485 181.907 81.59 181.181L43.504 159.176C43.2521 159.03 43.043 158.82 42.8977 158.568C42.7523 158.316 42.6758 158.03 42.6758 157.739C42.6758 157.448 42.7523 157.163 42.8977 156.911C43.043 156.659 43.2521 156.449 43.504 156.303Z" fill="#E6E6E6"/>
<path d="M42.4445 192.627L65.6354 179.237C65.7918 179.147 65.9217 179.018 66.012 178.861C66.1023 178.705 66.1498 178.528 66.1498 178.347C66.1498 178.167 66.1023 177.99 66.012 177.833C65.9217 177.677 65.7918 177.548 65.6354 177.457L45.1865 165.579C45.0307 165.487 44.8535 165.439 44.673 165.439C44.4925 165.439 44.3153 165.487 44.1594 165.579L20.448 179.265C20.2916 179.355 20.1618 179.485 20.0715 179.641C19.9811 179.798 19.9336 179.975 19.9336 180.155C19.9336 180.336 19.9811 180.513 20.0715 180.669C20.1618 180.826 20.2916 180.955 20.448 181.045L40.3717 192.622C40.686 192.806 41.0434 192.904 41.4075 192.904C41.7716 192.905 42.1295 192.809 42.4445 192.627Z" fill="#E6E6E6"/>
<path d="M206.483 172.886C207.589 173.528 207.593 174.564 206.483 175.21L201.961 177.817C201.341 178.134 200.655 178.298 199.96 178.298C199.264 178.298 198.579 178.134 197.959 177.817L148.343 149.147C147.232 148.51 147.227 147.469 148.343 146.823L152.865 144.212C153.484 143.895 154.17 143.73 154.865 143.73C155.561 143.73 156.247 143.895 156.866 144.212L206.483 172.886Z" fill="#E6E6E6"/>
<path d="M192.558 176.984C193.669 177.626 193.673 178.662 192.558 179.308L188.036 181.92C187.416 182.236 186.731 182.401 186.035 182.401C185.34 182.401 184.654 182.236 184.034 181.92L141.649 157.437C140.543 156.8 140.534 155.759 141.649 155.113L146.171 152.502C146.791 152.185 147.477 152.021 148.172 152.021C148.868 152.021 149.553 152.185 150.173 152.502L192.558 176.984Z" fill="#E6E6E6"/>
<path d="M48.7305 45.4572L48.763 57.8334L50.2641 58.7072L50.2223 44.5928L48.7305 45.4572Z" fill="#F0F0F0"/>
<path d="M32.5703 67.1847L32.575 68.9182L50.2632 58.7077L48.7621 57.834L32.5703 67.1847Z" fill="#F5F5F5"/>
<path d="M52.0514 41.4697L30.7148 53.7762L30.766 72.0362L52.0793 59.7297L52.0514 41.4697ZM32.5738 68.9177V67.1842L32.532 54.808L48.7285 45.4573L50.2203 44.6161L50.2621 58.7304L32.5738 68.9177Z" fill="#E0E0E0"/>
<path d="M52.0293 41.4694L50.5282 40.5957L29.2148 52.9022L30.716 53.7713L52.0293 41.4694Z" fill="#F5F5F5"/>
<path d="M29.2148 52.9023L29.266 71.1762L30.7671 72.0499L30.716 53.7714L29.2148 52.9023Z" fill="#F0F0F0"/>
<path d="M48.7148 73.2345L48.752 85.6108L50.2532 86.4799L50.2113 72.3701L48.7148 73.2345Z" fill="#F0F0F0"/>
<path d="M32.5625 94.9564L32.5671 96.6946L50.2554 86.4794L48.7543 85.6104L32.5625 94.9564Z" fill="#F5F5F5"/>
<path d="M52.0164 69.2471L30.7031 81.5489L30.7542 99.8228L52.049 87.5163L52.0164 69.2471ZM32.5621 96.6951V94.9569L32.5296 82.5807L48.7214 73.2346L50.2179 72.3702L50.2597 86.4799L32.5621 96.6951Z" fill="#E0E0E0"/>
<path d="M52.0176 69.2431L50.5164 68.374L29.2031 80.6759L30.7043 81.5496L52.0176 69.2431Z" fill="#F5F5F5"/>
<path d="M29.2031 80.6768L29.2542 98.9506L30.7554 99.8244L30.7043 81.5505L29.2031 80.6768Z" fill="#F0F0F0"/>
<path d="M43.5842 50.1562L47.9993 53.6372L48.0086 57.0299L33.3179 65.5115L33.3086 62.1142L36.111 56.5558L38.6253 58.5078L37.733 61.2684L39.025 58.8145L43.5842 50.1562Z" fill="#E0E0E0"/>
<path d="M38.7572 51.8693C39.4497 51.4696 40.0121 51.7903 40.0167 52.585C39.9931 53.0182 39.8676 53.4397 39.6504 53.8152C39.4331 54.1907 39.1303 54.5097 38.7665 54.746C38.0741 55.1457 37.5117 54.8251 37.5117 54.0303C37.5344 53.5975 37.6591 53.1761 37.8755 52.8005C38.092 52.425 38.3941 52.1059 38.7572 51.8693Z" fill="#E0E0E0"/>
<path d="M43.5717 77.9326L47.9868 81.4089L48.0007 84.8062L33.3101 93.2879L33.3008 89.8906L36.0986 84.3275L38.6128 86.2795L37.7252 89.0401L39.0125 86.5909L43.5717 77.9326Z" fill="#E0E0E0"/>
<path d="M38.7455 79.6437C39.438 79.244 40.0003 79.5647 40.0003 80.3594C39.9788 80.7925 39.8546 81.2143 39.638 81.59C39.4215 81.9658 39.1188 82.2847 38.7548 82.5205C38.0623 82.9201 37.5 82.5995 37.5 81.8048C37.5216 81.3716 37.6458 80.9498 37.8623 80.5741C38.0789 80.1984 38.3816 79.8795 38.7455 79.6437Z" fill="#E0E0E0"/>
<path d="M207.242 60.8266C206.843 60.0035 206.205 59.3199 205.411 58.8654L157.7 31.7241C157.48 31.6398 157.248 31.5927 157.012 31.5847C154.558 31.5382 152.09 33.848 151.742 35.0656C151.663 35.2195 151.621 35.3899 151.621 35.5629V138.714C151.621 139.519 151.834 140.31 152.239 141.007C152.644 141.703 153.226 142.28 153.926 142.678L201.637 169.866C201.696 169.894 201.756 169.919 201.818 169.94C204.667 171.148 207.698 168.639 207.698 166.008V62.8343C207.701 62.1391 207.545 61.4523 207.242 60.8266Z" fill="#263238"/>
<path d="M151.746 35.0705C152.094 33.8529 154.562 31.5431 157.016 31.5896C157.251 31.5976 157.484 31.6447 157.704 31.729L205.42 58.8656C206.117 59.2683 206.698 59.8455 207.106 60.5404C207.513 61.2354 207.733 62.0244 207.743 62.8299V166.004C207.743 168.634 204.713 171.144 201.864 169.936C201.802 169.915 201.742 169.89 201.683 169.861L153.926 142.678C153.226 142.279 152.645 141.702 152.241 141.006C151.837 140.31 151.624 139.519 151.625 138.714V35.5678C151.625 35.3948 151.667 35.2244 151.746 35.0705Z" fill="#455A64"/>
<path d="M201.056 73.7379C201.054 73.3351 200.947 72.9396 200.745 72.5913C200.543 72.243 200.252 71.954 199.903 71.7534L155.603 46.5548C155.43 46.4564 155.234 46.4052 155.035 46.4063C154.836 46.4073 154.64 46.4606 154.468 46.5608C154.296 46.661 154.153 46.8045 154.054 46.9772C153.955 47.1499 153.902 47.3455 153.902 47.5447V130.758C153.903 131.16 154.01 131.555 154.212 131.903C154.415 132.25 154.705 132.538 155.055 132.738L199.373 157.983C199.547 158.081 199.744 158.132 199.943 158.13C200.143 158.129 200.339 158.075 200.511 157.975C200.684 157.874 200.827 157.73 200.927 157.557C201.026 157.384 201.079 157.188 201.079 156.988L201.056 73.7379Z" fill="#A40F0F"/>
<path opacity="0.2" d="M201.056 73.7379C201.054 73.3351 200.947 72.9396 200.745 72.5913C200.543 72.243 200.252 71.954 199.903 71.7534L155.603 46.5548C155.43 46.4564 155.234 46.4052 155.035 46.4063C154.836 46.4073 154.64 46.4606 154.468 46.5608C154.296 46.661 154.153 46.8045 154.054 46.9772C153.955 47.1499 153.902 47.3455 153.902 47.5447V130.758C153.903 131.16 154.01 131.555 154.212 131.903C154.415 132.25 154.705 132.538 155.055 132.738L199.373 157.983C199.547 158.081 199.744 158.132 199.943 158.13C200.143 158.129 200.339 158.075 200.511 157.975C200.684 157.874 200.827 157.73 200.927 157.557C201.026 157.384 201.079 157.188 201.079 156.988L201.056 73.7379Z" fill="black"/>
<path opacity="0.3" d="M207.715 62.8297V166.004C207.715 168.634 204.685 171.144 201.836 169.935C202.007 169.997 202.191 170.017 202.371 169.993C202.552 169.969 202.724 169.902 202.874 169.798C203.023 169.693 203.145 169.555 203.23 169.394C203.314 169.232 203.359 169.053 203.36 168.871V65.6972C203.357 64.7998 203.089 63.9234 202.589 63.1782L207.26 60.8545C207.558 61.4703 207.713 62.1454 207.715 62.8297Z" fill="black"/>
<path opacity="0.1" d="M157.012 31.6049C157.247 31.6129 157.48 31.66 157.7 31.7443L205.42 58.8669C206.214 59.3215 206.852 60.0051 207.251 60.8282L202.58 63.1519C202.189 62.5559 201.663 62.0595 201.047 61.7019L153.331 34.5746C153.195 34.4982 153.045 34.4503 152.891 34.4341C152.736 34.4178 152.579 34.4335 152.431 34.4801C152.282 34.5267 152.145 34.6032 152.027 34.705C151.909 34.8068 151.814 34.9317 151.746 35.0719C152.09 33.8496 154.558 31.5398 157.012 31.6049Z" fill="white"/>
<path d="M171.606 51.616C171.271 51.4208 170.992 51.5695 170.992 51.9553C171.003 52.1673 171.064 52.3737 171.17 52.5577C171.276 52.7418 171.423 52.8984 171.601 53.0149L180.961 58.4152C181.296 58.6104 181.565 58.4478 181.565 58.062C181.555 57.8534 181.495 57.6501 181.391 57.4691C181.287 57.288 181.141 57.1344 180.966 57.021L171.606 51.616Z" fill="#263238"/>
<path d="M183.367 58.4059C183.032 58.2154 182.758 58.3688 182.758 58.7545C182.77 58.9645 182.831 59.1688 182.936 59.3511C183.041 59.5335 183.187 59.6888 183.362 59.8048C183.697 60 183.975 59.8374 183.975 59.4563C183.963 59.2458 183.902 59.0411 183.796 58.8587C183.69 58.6763 183.543 58.5212 183.367 58.4059Z" fill="#263238"/>
<path d="M177.377 50.8306C176.708 50.4449 176.164 50.7516 176.164 51.5185C176.185 51.9393 176.305 52.3494 176.514 52.7152C176.723 53.0811 177.016 53.3924 177.368 53.6238C178.037 54.0095 178.59 53.6935 178.595 52.922C178.57 52.5024 178.447 52.0944 178.235 51.7311C178.024 51.3679 177.73 51.0594 177.377 50.8306Z" fill="#263238"/>
<path d="M177.37 147.975C176.008 147.19 174.907 147.813 174.902 149.37C174.945 150.225 175.19 151.059 175.615 151.803C176.041 152.546 176.636 153.179 177.352 153.65C178.718 154.435 179.847 153.794 179.852 152.223C179.8 151.37 179.549 150.541 179.118 149.803C178.687 149.065 178.088 148.439 177.37 147.975Z" fill="#263238"/>
<path d="M193.796 77.4928C193.739 77.0274 193.604 76.575 193.397 76.1544C193.306 75.9705 193.201 75.7935 193.085 75.6246C192.735 75.1095 192.273 74.6805 191.733 74.3697L148.428 49.7381L148.362 49.7102C148.305 49.6909 148.246 49.6754 148.186 49.6638C148.059 49.6382 147.93 49.6226 147.8 49.6173C147.096 49.6125 146.401 49.7716 145.769 50.082C145.152 50.3865 144.583 50.7812 144.082 51.2532L143.817 51.5181C143.465 51.8657 143.192 52.286 143.018 52.7497C142.984 52.8179 142.957 52.8896 142.939 52.9635C142.916 53.0404 142.905 53.1203 142.906 53.2005V146.861C142.908 147.591 143.103 148.308 143.47 148.94C143.837 149.571 144.364 150.095 144.998 150.458L188.303 175.136C188.357 175.162 188.413 175.184 188.47 175.201C191.054 176.298 193.805 174.021 193.805 171.632V77.9715C193.812 77.8119 193.809 77.6521 193.796 77.4928Z" fill="#A40F0F"/>
<path d="M143.009 52.7716C143.325 51.6702 145.565 49.5695 147.791 49.616C148.005 49.621 148.217 49.6619 148.418 49.7368L191.723 74.3684C192.443 74.7847 193.022 75.4061 193.387 76.1531C193.667 76.718 193.813 77.3397 193.815 77.9702V171.635C193.815 174.024 191.063 176.283 188.479 175.205C188.422 175.187 188.366 175.165 188.312 175.14L144.998 150.448C144.363 150.086 143.835 149.562 143.468 148.93C143.101 148.299 142.907 147.581 142.906 146.85V53.2224C142.906 53.0663 142.941 52.9122 143.009 52.7716Z" fill="#A40F0F"/>
<path opacity="0.2" d="M193.8 77.9695V171.635C193.8 174.024 191.049 176.282 188.465 175.204C188.621 175.264 188.789 175.284 188.955 175.264C189.121 175.244 189.28 175.184 189.417 175.089C189.555 174.994 189.667 174.866 189.744 174.718C189.821 174.569 189.86 174.404 189.859 174.237V80.5581C189.857 79.7439 189.615 78.9484 189.162 78.2716L193.4 76.1523C193.671 76.7196 193.807 77.3412 193.8 77.9695Z" fill="white"/>
<path opacity="0.4" d="M147.789 49.6121C148.003 49.6171 148.215 49.658 148.416 49.7329L191.721 74.3645C192.441 74.7808 193.02 75.4022 193.385 76.1492L189.151 78.2731C188.796 77.731 188.319 77.2803 187.757 76.9578L144.452 52.3262C144.328 52.2567 144.191 52.2135 144.05 52.1994C143.909 52.1853 143.767 52.2006 143.632 52.2442C143.497 52.2879 143.373 52.359 143.267 52.4531C143.16 52.5472 143.075 52.6622 143.016 52.791C143.322 51.6663 145.562 49.5656 147.789 49.6121Z" fill="white"/>
<path opacity="0.3" d="M143.009 52.7716C143.325 51.6702 145.565 49.5695 147.791 49.616C148.005 49.621 148.217 49.6619 148.418 49.7368L191.723 74.3684C192.443 74.7847 193.022 75.4061 193.387 76.1531C193.667 76.718 193.813 77.3397 193.815 77.9702V171.635C193.815 174.024 191.063 176.283 188.479 175.205C188.422 175.187 188.366 175.165 188.312 175.14L144.998 150.448C144.363 150.086 143.835 149.562 143.468 148.93C143.101 148.299 142.907 147.581 142.906 146.85V53.2224C142.906 53.0663 142.941 52.9122 143.009 52.7716Z" fill="white"/>
<path d="M147.27 58.3096L147.753 58.5931L147.762 56.5064L147.274 56.2275L147.27 58.3096Z" fill="white"/>
<path d="M146.438 57.8325L146.921 58.1114L146.925 56.4244L146.442 56.1455L146.438 57.8325Z" fill="white"/>
<path d="M145.602 57.3498L146.085 57.6286L146.09 56.3785L145.606 56.0996L145.602 57.3498Z" fill="white"/>
<path d="M144.77 56.8703L145.253 57.1491V56.3033L144.77 56.0244V56.8703Z" fill="white"/>
<path d="M149.07 59.3566L152.04 61.0715L152.045 59.3194L149.075 57.6045L149.07 59.3566Z" fill="white"/>
<path d="M153.52 61.9213L155.002 62.7764L155.007 61.029L153.524 60.1738L153.52 61.9213Z" fill="white"/>
<path d="M184.16 79.3916L184.165 77.9834L185.759 78.9036L184.165 77.9834L184.16 79.3916Z" fill="white"/>
<path d="M184.16 79.3916L185.754 80.3118L185.759 78.9036L184.165 77.9834L184.16 79.3916Z" fill="#A40F0F"/>
<path d="M186.887 79.7641V79.2157L183.875 77.4775V79.5596L186.887 81.2978V80.7494L187.272 80.9724V79.9872L186.887 79.7641ZM185.757 80.3125L184.163 79.383V77.9888L185.757 78.9183V80.3125Z" fill="white"/>
<path d="M179.559 76.924L182.528 78.6342L182.533 76.8868L179.563 75.1719L179.559 76.924Z" fill="white"/>
<path d="M165.391 68.6381L168.36 70.353L168.365 68.6055L165.395 66.8906L165.391 68.6381Z" fill="white"/>
<path d="M181.941 85.2859L138.306 60.0919C138.181 60.0049 138.036 59.95 137.884 59.9321C137.733 59.9143 137.579 59.9341 137.437 59.9897H137.414L136.484 60.5195L137.056 61.0865L137.023 73.5464V73.8392V77.1993C137.047 77.6367 137.173 78.0624 137.392 78.4419C137.611 78.8214 137.916 79.144 138.283 79.3836L180.217 103.639L181.83 105.228L182.731 104.712C182.764 104.697 182.796 104.679 182.824 104.657H182.866C182.968 104.562 183.047 104.445 183.098 104.316C183.148 104.186 183.169 104.047 183.159 103.908V100.832V100.255L183.196 87.5074C183.179 87.064 183.056 86.6311 182.838 86.2447C182.619 85.8583 182.312 85.5296 181.941 85.2859Z" fill="#A40F0F"/>
<path opacity="0.2" d="M181.941 85.2859L138.306 60.0919C138.181 60.0049 138.036 59.95 137.884 59.9321C137.733 59.9143 137.579 59.9341 137.437 59.9897H137.414L136.484 60.5195L137.056 61.0865L137.023 73.5464V73.8392V77.1993C137.047 77.6367 137.173 78.0624 137.392 78.4419C137.611 78.8214 137.916 79.144 138.283 79.3836L180.217 103.639L181.83 105.228L182.731 104.712C182.764 104.697 182.796 104.679 182.824 104.657H182.866C182.968 104.562 183.047 104.445 183.098 104.316C183.148 104.186 183.169 104.047 183.159 103.908V100.832V100.255L183.196 87.5074C183.179 87.064 183.056 86.6311 182.838 86.2447C182.619 85.8583 182.312 85.5296 181.941 85.2859Z" fill="black"/>
<path d="M181.005 85.8119C181.372 86.0514 181.677 86.3741 181.896 86.7535C182.115 87.133 182.241 87.5588 182.265 87.9962L182.227 100.74L136.064 74.0909V74.6719L182.227 101.316V104.388C182.227 105.192 181.656 105.517 180.959 105.113L137.314 79.9375C136.948 79.6984 136.643 79.3765 136.424 78.9978C136.206 78.6192 136.079 78.1944 136.055 77.7578L136.101 61.3569C136.101 60.5575 136.668 60.2322 137.37 60.6319L181.005 85.8119Z" fill="#A40F0F"/>
<path d="M182.226 100.739V101.32L136.062 74.6718V74.0908L182.226 100.739Z" fill="#A40F0F"/>
<g opacity="0.2">
<path d="M182.226 100.739V101.32L136.062 74.6718V74.0908L182.226 100.739Z" fill="white"/>
</g>
<g opacity="0.6">
<path d="M159.679 89.7635L159.674 91.1856L137.52 78.3911L137.524 76.9736L159.679 89.7635Z" fill="white"/>
</g>
<path d="M145.738 67.235C145.958 67.3787 146.141 67.5724 146.272 67.8001C146.402 68.0278 146.478 68.2833 146.491 68.5456V77.069C146.491 77.5338 146.152 77.7429 145.729 77.5012L138.316 73.2163C138.096 73.074 137.912 72.8815 137.78 72.6545C137.649 72.4274 137.573 72.1724 137.559 71.9103L137.582 63.3869C137.582 62.9221 137.926 62.7083 138.344 62.95L145.738 67.235Z" fill="white"/>
<g opacity="0.6">
<path d="M172.831 83.7815L172.826 85.6452L149.352 72.0931L149.356 70.2295L172.831 83.7815Z" fill="white"/>
</g>
<g opacity="0.6">
<path d="M162.443 84.3347L162.438 86.1983L149.332 78.6322L149.337 76.7686L162.443 84.3347Z" fill="white"/>
</g>
<g opacity="0.6">
<path d="M172.823 87.053L172.818 88.912L149.344 75.36L149.348 73.501L172.823 87.053Z" fill="white"/>
</g>
<g opacity="0.5">
<path d="M180.478 87.3685L179.771 88.0005L180.603 89.7247L179.906 89.3204L179.404 88.2329L178.944 88.7674L178.242 88.3584L179.093 87.6101L178.414 86.1787L179.102 86.5737L179.464 87.3731L179.781 86.9688L180.478 87.3685Z" fill="white"/>
</g>
<path d="M181.941 108.501L138.306 83.3068C138.18 83.2204 138.035 83.1664 137.884 83.1494C137.732 83.1323 137.579 83.1529 137.437 83.2092H137.414L136.484 83.739L137.056 84.306L137.023 96.7658V97.0586V100.419C137.048 100.855 137.174 101.28 137.393 101.659C137.612 102.037 137.917 102.359 138.283 102.598L180.25 126.83L181.862 128.42L182.764 127.899C182.797 127.886 182.828 127.869 182.857 127.848L182.899 127.825C183 127.73 183.079 127.614 183.13 127.484C183.181 127.355 183.202 127.215 183.191 127.077V124V123.419L183.229 110.676C183.201 110.237 183.069 109.812 182.846 109.434C182.622 109.056 182.312 108.736 181.941 108.501Z" fill="#A40F0F"/>
<path opacity="0.2" d="M181.941 108.501L138.306 83.3068C138.18 83.2204 138.035 83.1664 137.884 83.1494C137.732 83.1323 137.579 83.1529 137.437 83.2092H137.414L136.484 83.739L137.056 84.306L137.023 96.7658V97.0586V100.419C137.048 100.855 137.174 101.28 137.393 101.659C137.612 102.037 137.917 102.359 138.283 102.598L180.25 126.83L181.862 128.42L182.764 127.899C182.797 127.886 182.828 127.869 182.857 127.848L182.899 127.825C183 127.73 183.079 127.614 183.13 127.484C183.181 127.355 183.202 127.215 183.191 127.077V124V123.419L183.229 110.676C183.201 110.237 183.069 109.812 182.846 109.434C182.622 109.056 182.312 108.736 181.941 108.501Z" fill="black"/>
<path d="M181.004 109.031C181.37 109.27 181.675 109.593 181.894 109.972C182.113 110.352 182.239 110.777 182.263 111.215L182.226 123.958L136.062 97.3096V97.8859L182.226 124.553V127.625C182.226 128.429 181.654 128.754 180.957 128.35L137.322 103.156C136.956 102.917 136.651 102.595 136.432 102.217C136.213 101.838 136.087 101.413 136.062 100.977L136.109 84.5756C136.109 83.7716 136.676 83.4462 137.378 83.8506L181.004 109.031Z" fill="#A40F0F"/>
<path d="M182.226 123.957V124.538L136.062 97.8849V97.3086L182.226 123.957Z" fill="#A40F0F"/>
<g opacity="0.2">
<path d="M182.226 123.956V124.537L136.062 97.8839V97.3076L182.226 123.956Z" fill="white"/>
</g>
<path d="M145.738 90.4547C145.958 90.5985 146.141 90.7921 146.272 91.0198C146.402 91.2476 146.478 91.503 146.491 91.7653V100.284C146.491 100.749 146.152 100.958 145.729 100.721L138.316 96.436C138.095 96.2933 137.911 96.1 137.779 95.8721C137.647 95.6442 137.572 95.3883 137.559 95.1254L137.582 86.6066C137.582 86.1418 137.926 85.928 138.344 86.1697L145.738 90.4547Z" fill="white"/>
<g opacity="0.6">
<path d="M172.831 107.001L172.826 108.865L149.352 95.308L149.356 93.4443L172.831 107.001Z" fill="white"/>
</g>
<g opacity="0.5">
<path d="M180.478 110.587L179.771 111.219L180.603 112.939L179.906 112.539L179.404 111.452L178.944 111.981L178.242 111.577L179.093 110.829L178.414 109.397L179.102 109.792L179.464 110.592L179.781 110.188L180.478 110.587Z" fill="white"/>
</g>
<path opacity="0.6" d="M137.524 100.19L137.52 101.608L150.398 109.044V107.622L137.524 100.19Z" fill="white"/>
<path opacity="0.6" d="M149.348 96.7148L149.344 98.5785L160.54 105.038V103.175L149.348 96.7148Z" fill="white"/>
<path d="M181.941 155.258L138.306 130.064C138.181 129.977 138.036 129.922 137.884 129.904C137.733 129.886 137.579 129.906 137.437 129.961H137.414L136.484 130.491L137.056 131.058L137.023 143.518V143.811V147.171C137.047 147.608 137.173 148.034 137.392 148.414C137.611 148.793 137.916 149.116 138.283 149.355L180.25 173.583L181.862 175.172L182.764 174.656L182.857 174.605L182.899 174.577C183 174.482 183.079 174.366 183.13 174.236C183.181 174.107 183.202 173.968 183.191 173.829V170.757V170.176L183.229 157.428C183.2 156.99 183.068 156.566 182.845 156.189C182.621 155.812 182.311 155.493 181.941 155.258Z" fill="#A40F0F"/>
<path opacity="0.2" d="M181.941 155.258L138.306 130.064C138.181 129.977 138.036 129.922 137.884 129.904C137.733 129.886 137.579 129.906 137.437 129.961H137.414L136.484 130.491L137.056 131.058L137.023 143.518V143.811V147.171C137.047 147.608 137.173 148.034 137.392 148.414C137.611 148.793 137.916 149.116 138.283 149.355L180.25 173.583L181.862 175.172L182.764 174.656L182.857 174.605L182.899 174.577C183 174.482 183.079 174.366 183.13 174.236C183.181 174.107 183.202 173.968 183.191 173.829V170.757V170.176L183.229 157.428C183.2 156.99 183.068 156.566 182.845 156.189C182.621 155.812 182.311 155.493 181.941 155.258Z" fill="black"/>
<path d="M181.004 155.788C181.37 156.027 181.674 156.349 181.893 156.728C182.112 157.106 182.239 157.531 182.263 157.968L182.226 170.716L136.062 144.072V144.653L182.226 171.301V174.378C182.226 175.177 181.654 175.503 180.957 175.103L137.322 149.909C136.955 149.67 136.65 149.347 136.431 148.967C136.212 148.588 136.086 148.162 136.062 147.725L136.109 131.328C136.109 130.524 136.676 130.199 137.378 130.603L181.004 155.788Z" fill="#A40F0F"/>
<path d="M182.226 170.717V171.293L136.062 144.644V144.063L182.226 170.717Z" fill="#A40F0F"/>
<g opacity="0.2">
<path d="M182.226 170.717V171.293L136.062 144.644V144.063L182.226 170.717Z" fill="white"/>
</g>
<path d="M145.738 137.209C145.958 137.353 146.14 137.547 146.271 137.774C146.402 138.002 146.477 138.257 146.491 138.52V147.043C146.491 147.508 146.152 147.717 145.729 147.475L138.316 143.195C138.095 143.052 137.912 142.858 137.78 142.63C137.649 142.403 137.573 142.147 137.559 141.884L137.563 133.384C137.563 132.919 137.907 132.71 138.325 132.952L145.738 137.209Z" fill="white"/>
<g opacity="0.6">
<path d="M172.831 153.754L172.826 155.618L149.352 142.066L149.356 140.202L172.831 153.754Z" fill="white"/>
</g>
<g opacity="0.5">
<path d="M180.478 157.346L179.771 157.978L180.603 159.697L179.906 159.298L179.404 158.21L178.944 158.74L178.242 158.336L179.093 157.583L178.414 156.151L179.102 156.551L179.464 157.35L179.781 156.941L180.478 157.346Z" fill="white"/>
</g>
<path opacity="0.6" d="M137.524 146.944L137.52 148.366L150.398 155.798V154.376L137.524 146.944Z" fill="white"/>
<path opacity="0.6" d="M149.348 143.475L149.344 145.334L154.405 148.252V146.389L149.348 143.475Z" fill="white"/>
<path d="M181.941 131.72L138.306 106.526C138.181 106.438 138.036 106.382 137.884 106.365C137.732 106.348 137.578 106.37 137.437 106.429H137.414L136.484 106.963L137.056 107.525L137.023 119.99V120.283V123.643C137.048 124.08 137.174 124.504 137.393 124.883C137.612 125.262 137.917 125.583 138.283 125.823L180.25 150.054L181.862 151.644L182.764 151.123L182.857 151.072L182.899 151.049C183.001 150.954 183.08 150.836 183.131 150.706C183.182 150.576 183.202 150.436 183.191 150.296V147.224V146.643L183.229 133.9C183.201 133.461 183.07 133.034 182.847 132.656C182.623 132.277 182.313 131.956 181.941 131.72Z" fill="#A40F0F"/>
<path opacity="0.2" d="M181.941 131.72L138.306 106.526C138.181 106.438 138.036 106.382 137.884 106.365C137.732 106.348 137.578 106.37 137.437 106.429H137.414L136.484 106.963L137.056 107.525L137.023 119.99V120.283V123.643C137.048 124.08 137.174 124.504 137.393 124.883C137.612 125.262 137.917 125.583 138.283 125.823L180.25 150.054L181.862 151.644L182.764 151.123L182.857 151.072L182.899 151.049C183.001 150.954 183.08 150.836 183.131 150.706C183.182 150.576 183.202 150.436 183.191 150.296V147.224V146.643L183.229 133.9C183.201 133.461 183.07 133.034 182.847 132.656C182.623 132.277 182.313 131.956 181.941 131.72Z" fill="black"/>
<path d="M181.004 132.25C181.37 132.489 181.674 132.811 181.893 133.189C182.112 133.568 182.239 133.993 182.263 134.429L182.226 147.177L136.062 120.524V121.105L182.226 147.758V150.83C182.226 151.634 181.654 151.955 180.957 151.555L137.322 126.361C136.956 126.122 136.651 125.8 136.432 125.422C136.213 125.043 136.087 124.618 136.062 124.182L136.109 107.781C136.109 106.977 136.676 106.651 137.378 107.056L181.004 132.25Z" fill="#A40F0F"/>
<path d="M182.226 147.177V147.758L136.062 121.104V120.523L182.226 147.177Z" fill="#A40F0F"/>
<g opacity="0.2">
<path d="M182.226 147.182V147.763L136.062 121.109V120.528L182.226 147.182Z" fill="white"/>
</g>
<g opacity="0.6">
<path d="M153.999 132.971L153.995 134.388L137.52 124.829L137.524 123.411L153.999 132.971Z" fill="white"/>
</g>
<path d="M145.738 113.668C145.958 113.812 146.14 114.006 146.271 114.233C146.402 114.461 146.477 114.716 146.491 114.978V123.502C146.491 123.967 146.152 124.176 145.729 123.934L138.316 119.654C138.095 119.511 137.911 119.318 137.779 119.09C137.647 118.862 137.572 118.606 137.559 118.343L137.582 109.824C137.582 109.36 137.926 109.146 138.344 109.387L145.738 113.668Z" fill="white"/>
<g opacity="0.6">
<path d="M172.831 130.215L172.826 132.079L149.352 118.527L149.356 116.663L172.831 130.215Z" fill="white"/>
</g>
<g opacity="0.6">
<path d="M168.689 134.414L168.684 136.277L149.332 125.068L149.337 123.204L168.689 134.414Z" fill="white"/>
</g>
<g opacity="0.6">
<path d="M172.823 133.487L172.818 135.35L149.344 121.798L149.348 119.935L172.823 133.487Z" fill="white"/>
</g>
<g opacity="0.5">
<path d="M180.478 133.806L179.771 134.438L180.603 136.158L179.906 135.758L179.404 134.67L178.944 135.2L178.242 134.796L179.093 134.048L178.414 132.616L179.102 133.011L179.464 133.811L179.781 133.406L180.478 133.806Z" fill="white"/>
</g>
<path d="M132.192 60.3863L124.412 55.9247C123.734 55.5343 122.121 56.0641 122.121 57.1609C122.121 57.0721 122.144 56.9848 122.188 56.9077C122.232 56.8306 122.296 56.7665 122.373 56.7218C122.449 56.6771 122.536 56.6533 122.625 56.6529C122.714 56.6525 122.801 56.6754 122.879 56.7194L130.654 61.181C130.909 61.3279 131.115 61.548 131.244 61.813L132.755 60.9532C132.621 60.7172 132.427 60.5214 132.192 60.3863Z" fill="#A40F0F"/>
<path d="M131.246 61.8122C131.356 62.0214 131.415 62.254 131.418 62.4907V71.4185C131.417 71.5069 131.393 71.5937 131.349 71.6701C131.304 71.7465 131.241 71.81 131.164 71.8542C131.088 71.8983 131.001 71.9217 130.912 71.9219C130.824 71.9221 130.737 71.8992 130.66 71.8554C130.884 71.9954 131.142 72.0738 131.406 72.0825C131.67 72.0912 131.932 72.03 132.165 71.905C132.398 71.78 132.594 71.5957 132.733 71.3707C132.872 71.1458 132.949 70.8881 132.956 70.6238V61.7006C132.954 61.4398 132.885 61.1839 132.756 60.957L131.246 61.8122Z" fill="#A40F0F"/>
<path opacity="0.4" d="M132.192 60.3863L124.412 55.9247C123.734 55.5343 122.121 56.0641 122.121 57.1609C122.121 57.0721 122.144 56.9848 122.188 56.9077C122.232 56.8306 122.296 56.7665 122.373 56.7218C122.449 56.6771 122.536 56.6533 122.625 56.6529C122.714 56.6525 122.801 56.6754 122.879 56.7194L130.654 61.181C130.909 61.3279 131.115 61.548 131.244 61.813L132.755 60.9532C132.621 60.7172 132.427 60.5214 132.192 60.3863Z" fill="white"/>
<path opacity="0.2" d="M131.246 61.8122C131.356 62.0214 131.415 62.254 131.418 62.4907V71.4185C131.417 71.5069 131.393 71.5937 131.349 71.6701C131.304 71.7465 131.241 71.81 131.164 71.8542C131.088 71.8983 131.001 71.9217 130.912 71.9219C130.824 71.9221 130.737 71.8992 130.66 71.8554C130.884 71.9954 131.142 72.0738 131.406 72.0825C131.67 72.0912 131.932 72.03 132.165 71.905C132.398 71.78 132.594 71.5957 132.733 71.3707C132.872 71.1458 132.949 70.8881 132.956 70.6238V61.7006C132.954 61.4398 132.885 61.1839 132.756 60.957L131.246 61.8122Z" fill="white"/>
<path d="M122.879 56.7017L130.654 61.1632C130.886 61.2955 131.079 61.4869 131.213 61.718C131.347 61.949 131.417 62.2114 131.417 62.4785V71.4063C131.416 71.4947 131.392 71.5814 131.348 71.6579C131.303 71.7343 131.24 71.7977 131.163 71.8419C131.087 71.8861 131 71.9095 130.911 71.9097C130.823 71.9099 130.736 71.8869 130.659 71.8431L122.884 67.4001C122.652 67.2679 122.459 67.0764 122.325 66.8454C122.191 66.6144 122.121 66.3519 122.122 66.0849V57.1664C122.117 57.0756 122.137 56.9853 122.18 56.9049C122.222 56.8246 122.285 56.7571 122.363 56.7095C122.44 56.662 122.529 56.6362 122.62 56.6348C122.711 56.6334 122.8 56.6565 122.879 56.7017Z" fill="#A40F0F"/>
<path d="M133.293 67.3279L131.434 67.6764V65.2783L133.367 67.1094C133.383 67.1266 133.395 67.148 133.4 67.1712C133.405 67.1945 133.404 67.2187 133.396 67.2412C133.388 67.2637 133.375 67.2837 133.356 67.299C133.338 67.3142 133.316 67.3242 133.293 67.3279Z" fill="#A40F0F"/>
<path d="M131.422 65.2797L132.956 64.4014L134.889 66.2604C134.903 66.2745 134.914 66.2917 134.92 66.3107C134.926 66.3296 134.928 66.3497 134.925 66.3695C134.923 66.3892 134.915 66.4081 134.904 66.4247C134.893 66.4412 134.878 66.4549 134.861 66.4648L133.332 67.32L131.422 65.2797Z" fill="#A40F0F"/>
<path opacity="0.2" d="M131.422 65.2797L132.956 64.4014L134.889 66.2604C134.903 66.2745 134.914 66.2917 134.92 66.3107C134.926 66.3296 134.928 66.3497 134.925 66.3695C134.923 66.3892 134.915 66.4081 134.904 66.4247C134.893 66.4412 134.878 66.4549 134.861 66.4648L133.332 67.32L131.422 65.2797Z" fill="white"/>
<path d="M125.812 66.6924C125.915 67.2022 126.209 67.6531 126.635 67.9519H126.672C127.095 68.1982 127.509 68.0773 127.56 67.6823L125.812 66.6924Z" fill="white"/>
<path d="M124.594 64.6664C124.731 64.4369 124.808 64.1762 124.817 63.9089C124.845 63.5185 124.854 63.1142 124.868 62.7145C124.896 61.8919 125.226 61.4597 125.867 61.4225C126.021 61.4225 126.053 61.3621 126.03 61.1483C125.988 60.7904 126.09 60.5766 126.332 60.5348C126.461 60.5164 126.593 60.5444 126.704 60.6138C126.853 60.703 126.982 60.8235 127.08 60.967C127.19 61.0992 127.273 61.2518 127.324 61.416C127.375 61.5803 127.394 61.7531 127.378 61.9244C127.358 62.0089 127.362 62.0972 127.39 62.1793C127.418 62.2615 127.469 62.3342 127.536 62.3892C128.019 62.9564 128.34 63.6436 128.465 64.3783C128.495 64.6219 128.509 64.8672 128.507 65.1126C128.501 65.5432 128.529 65.9737 128.591 66.3999C128.654 66.8539 128.812 67.2895 129.055 67.678C129.139 67.794 129.184 67.9343 129.181 68.0777C129.181 68.2868 129.097 68.3379 128.907 68.231L126.685 66.9251L124.877 65.8794L124.645 65.7446L124.408 65.6099C124.316 65.5561 124.246 65.4724 124.208 65.3728C124.134 65.1916 124.166 64.9639 124.278 64.9081C124.406 64.8625 124.516 64.778 124.594 64.6664ZM126.313 64.6199L127.071 65.0568L127.266 63.0816L126.132 62.4263L126.313 64.6199ZM126.69 66.1769C127.015 66.3674 127.243 66.2373 127.243 65.9166C127.231 65.7346 127.174 65.5584 127.077 65.4036C126.981 65.2488 126.848 65.1201 126.69 65.0289C126.364 64.843 126.137 64.9546 126.137 65.2799C126.149 65.4631 126.206 65.6405 126.302 65.7968C126.399 65.9531 126.532 66.0836 126.69 66.1769ZM126.69 61.1436C126.564 61.0693 126.457 61.1436 126.457 61.2784C126.464 61.3575 126.488 61.434 126.529 61.5024C126.569 61.5707 126.624 61.6292 126.69 61.6734C126.712 61.6904 126.738 61.7003 126.766 61.7021C126.794 61.7039 126.821 61.6974 126.845 61.6834C126.869 61.6694 126.888 61.6486 126.9 61.6237C126.912 61.5987 126.917 61.5708 126.913 61.5433C126.913 61.4627 126.892 61.3834 126.852 61.3133C126.812 61.2433 126.755 61.1848 126.685 61.1436" fill="white"/>
<path d="M132.192 84.4683L124.412 80.0068C123.734 79.6164 122.121 80.1462 122.121 81.2384C122.122 81.1499 122.145 81.0632 122.19 80.9868C122.234 80.9103 122.298 80.8469 122.375 80.8027C122.451 80.7585 122.538 80.7352 122.626 80.7349C122.715 80.7347 122.802 80.7577 122.879 80.8015L130.654 85.2631C130.91 85.4112 131.116 85.6331 131.244 85.8998L132.755 85.04C132.622 84.8022 132.428 84.6047 132.192 84.4683Z" fill="#A40F0F"/>
<path d="M131.246 85.8988C131.356 86.1081 131.415 86.3407 131.418 86.5774V95.5052C131.417 95.5936 131.393 95.6803 131.349 95.7568C131.304 95.8332 131.241 95.8967 131.164 95.9408C131.088 95.985 131.001 96.0084 130.912 96.0086C130.824 96.0088 130.737 95.9859 130.66 95.942C130.885 96.0823 131.142 96.1607 131.407 96.1692C131.672 96.1777 131.934 96.1161 132.167 95.9905C132.4 95.865 132.596 95.68 132.734 95.4544C132.873 95.2288 132.949 94.9705 132.956 94.7058V85.7827C132.954 85.5218 132.885 85.2657 132.756 85.0391L131.246 85.8988Z" fill="#A40F0F"/>
<path opacity="0.4" d="M132.192 84.4683L124.412 80.0068C123.734 79.6164 122.121 80.1462 122.121 81.2384C122.122 81.1499 122.145 81.0632 122.19 80.9868C122.234 80.9103 122.298 80.8469 122.375 80.8027C122.451 80.7585 122.538 80.7352 122.626 80.7349C122.715 80.7347 122.802 80.7577 122.879 80.8015L130.654 85.2631C130.91 85.4112 131.116 85.6331 131.244 85.8998L132.755 85.04C132.622 84.8022 132.428 84.6047 132.192 84.4683Z" fill="white"/>
<path opacity="0.2" d="M131.246 85.8988C131.356 86.1081 131.415 86.3407 131.418 86.5774V95.5052C131.417 95.5936 131.393 95.6803 131.349 95.7568C131.304 95.8332 131.241 95.8967 131.164 95.9408C131.088 95.985 131.001 96.0084 130.912 96.0086C130.824 96.0088 130.737 95.9859 130.66 95.942C130.885 96.0823 131.142 96.1607 131.407 96.1692C131.672 96.1777 131.934 96.1161 132.167 95.9905C132.4 95.865 132.596 95.68 132.734 95.4544C132.873 95.2288 132.949 94.9705 132.956 94.7058V85.7827C132.954 85.5218 132.885 85.2657 132.756 85.0391L131.246 85.8988Z" fill="white"/>
<path d="M122.879 80.8029L130.654 85.2644C130.886 85.3967 131.079 85.5881 131.212 85.8192C131.346 86.0502 131.417 86.3126 131.416 86.5797V95.5075C131.416 95.5959 131.392 95.6826 131.347 95.7591C131.303 95.8355 131.239 95.899 131.163 95.9431C131.086 95.9873 130.999 96.0107 130.911 96.0109C130.822 96.0111 130.735 95.9882 130.659 95.9443L122.883 91.5014C122.651 91.3687 122.457 91.1765 122.324 90.9446C122.19 90.7127 122.12 90.4493 122.121 90.1815V81.2397C122.122 81.1513 122.145 81.0646 122.19 80.9881C122.234 80.9117 122.298 80.8482 122.375 80.8041C122.451 80.7599 122.538 80.7365 122.626 80.7363C122.715 80.7361 122.802 80.7591 122.879 80.8029Z" fill="#A40F0F"/>
<path d="M133.293 91.4118L131.434 91.7604V89.3623L133.367 91.1934C133.383 91.2106 133.395 91.232 133.4 91.2552C133.405 91.2785 133.404 91.3026 133.396 91.3252C133.388 91.3477 133.375 91.3677 133.356 91.3829C133.338 91.3982 133.316 91.4082 133.293 91.4118Z" fill="#A40F0F"/>
<path d="M131.422 89.3627L132.956 88.4844L134.889 90.3434C134.903 90.3575 134.914 90.3748 134.92 90.3937C134.926 90.4126 134.928 90.4327 134.925 90.4525C134.923 90.4722 134.915 90.4911 134.904 90.5077C134.893 90.5242 134.878 90.538 134.861 90.5479L133.332 91.403L131.422 89.3627Z" fill="#A40F0F"/>
<path opacity="0.2" d="M131.422 89.3627L132.956 88.4844L134.889 90.3434C134.903 90.3575 134.914 90.3748 134.92 90.3937C134.926 90.4126 134.928 90.4327 134.925 90.4525C134.923 90.4722 134.915 90.4911 134.904 90.5077C134.893 90.5242 134.878 90.538 134.861 90.5479L133.332 91.403L131.422 89.3627Z" fill="white"/>
<path d="M125.812 90.7715C125.914 91.283 126.208 91.7358 126.635 92.0356H126.672C127.095 92.2819 127.509 92.1564 127.56 91.766L125.812 90.7715Z" fill="white"/>
<path d="M124.586 88.7685C124.724 88.5409 124.8 88.2816 124.809 88.0156C124.837 87.6252 124.846 87.2209 124.86 86.8212C124.888 85.994 125.218 85.5664 125.859 85.5292C126.013 85.5292 126.045 85.4688 126.022 85.255C125.98 84.8972 126.082 84.6834 126.324 84.6416C126.453 84.6205 126.586 84.6487 126.696 84.7206C126.845 84.8097 126.974 84.9302 127.072 85.0738C127.182 85.2059 127.265 85.3585 127.316 85.5228C127.367 85.6871 127.386 85.8598 127.37 86.0311C127.35 86.1156 127.354 86.204 127.382 86.2861C127.41 86.3682 127.461 86.4409 127.528 86.4959C128.011 87.0631 128.332 87.7503 128.457 88.485C128.487 88.7286 128.501 88.9739 128.499 89.2193C128.493 89.65 128.521 90.0804 128.583 90.5067C128.646 90.9607 128.804 91.3962 129.047 91.7847C129.131 91.9008 129.176 92.0411 129.173 92.1844C129.173 92.3935 129.089 92.4447 128.899 92.3378L126.654 91.0411L124.846 89.9954L124.614 89.8607L124.377 89.7259C124.285 89.6721 124.214 89.5884 124.177 89.4889C124.102 89.3076 124.135 89.0799 124.246 89.0241C124.386 88.9806 124.506 88.8903 124.586 88.7685ZM126.305 88.7267L127.063 89.1589L127.258 87.1884L126.124 86.5331L126.305 88.7267ZM126.682 90.2836C127.007 90.4695 127.235 90.344 127.235 90.0233C127.223 89.8413 127.166 89.6651 127.069 89.5103C126.973 89.3555 126.84 89.2268 126.682 89.1357C126.356 88.9451 126.129 89.0613 126.129 89.3866C126.141 89.5698 126.198 89.7473 126.294 89.9036C126.391 90.0599 126.524 90.1903 126.682 90.2836ZM126.682 85.2504C126.556 85.176 126.449 85.2504 126.449 85.3805C126.455 85.4604 126.479 85.5378 126.52 85.607C126.56 85.6763 126.615 85.7355 126.682 85.7802C126.704 85.7971 126.73 85.8071 126.758 85.8088C126.786 85.8106 126.813 85.8041 126.837 85.7901C126.861 85.7762 126.88 85.7554 126.892 85.7304C126.904 85.7055 126.909 85.6775 126.905 85.6501C126.905 85.5694 126.884 85.4901 126.844 85.4201C126.804 85.35 126.746 85.2915 126.677 85.2504" fill="white"/>
<path d="M132.192 108.553L124.412 104.105C123.734 103.715 122.121 104.245 122.121 105.337C122.122 105.249 122.145 105.162 122.19 105.085C122.234 105.009 122.298 104.945 122.375 104.901C122.451 104.857 122.538 104.834 122.626 104.834C122.715 104.833 122.802 104.856 122.879 104.9L130.654 109.362C130.91 109.51 131.116 109.732 131.244 109.998L132.755 109.139C132.624 108.896 132.43 108.693 132.192 108.553Z" fill="#A40F0F"/>
<path d="M131.246 109.983C131.356 110.192 131.415 110.425 131.418 110.661V119.585C131.418 119.673 131.395 119.761 131.351 119.838C131.307 119.915 131.243 119.979 131.166 120.024C131.089 120.068 131.002 120.092 130.913 120.093C130.825 120.093 130.737 120.07 130.66 120.026C130.885 120.166 131.142 120.245 131.407 120.253C131.672 120.262 131.934 120.2 132.167 120.075C132.4 119.949 132.596 119.764 132.734 119.538C132.873 119.313 132.949 119.054 132.956 118.79V109.867C132.954 109.606 132.885 109.35 132.756 109.123L131.246 109.983Z" fill="#A40F0F"/>
<path opacity="0.4" d="M132.192 108.553L124.412 104.105C123.734 103.715 122.121 104.245 122.121 105.337C122.122 105.249 122.145 105.162 122.19 105.085C122.234 105.009 122.298 104.945 122.375 104.901C122.451 104.857 122.538 104.834 122.626 104.834C122.715 104.833 122.802 104.856 122.879 104.9L130.654 109.362C130.91 109.51 131.116 109.732 131.244 109.998L132.755 109.139C132.624 108.896 132.43 108.693 132.192 108.553Z" fill="white"/>
<path opacity="0.2" d="M131.246 109.983C131.356 110.192 131.415 110.425 131.418 110.661V119.585C131.418 119.673 131.395 119.761 131.351 119.838C131.307 119.915 131.243 119.979 131.166 120.024C131.089 120.068 131.002 120.092 130.913 120.093C130.825 120.093 130.737 120.07 130.66 120.026C130.885 120.166 131.142 120.245 131.407 120.253C131.672 120.262 131.934 120.2 132.167 120.075C132.4 119.949 132.596 119.764 132.734 119.538C132.873 119.313 132.949 119.054 132.956 118.79V109.867C132.954 109.606 132.885 109.35 132.756 109.123L131.246 109.983Z" fill="white"/>
<path d="M122.879 104.885L130.654 109.346C130.886 109.479 131.079 109.67 131.212 109.901C131.346 110.132 131.417 110.395 131.416 110.662V119.585C131.416 119.674 131.393 119.761 131.349 119.838C131.305 119.915 131.241 119.979 131.165 120.024C131.088 120.069 131.001 120.092 130.912 120.093C130.823 120.093 130.736 120.07 130.659 120.026L122.883 115.583C122.651 115.45 122.458 115.258 122.324 115.026C122.19 114.794 122.12 114.531 122.121 114.264V105.322C122.122 105.233 122.145 105.147 122.19 105.07C122.234 104.994 122.298 104.93 122.375 104.886C122.451 104.842 122.538 104.819 122.626 104.818C122.715 104.818 122.802 104.841 122.879 104.885Z" fill="#A40F0F"/>
<path d="M133.293 115.495L131.434 115.843V113.445L133.367 115.272C133.385 115.289 133.397 115.311 133.403 115.334C133.409 115.358 133.408 115.383 133.4 115.407C133.393 115.43 133.378 115.451 133.359 115.466C133.34 115.482 133.317 115.492 133.293 115.495Z" fill="#A40F0F"/>
<path d="M131.422 113.447L132.956 112.568L134.889 114.427C134.903 114.442 134.914 114.459 134.92 114.478C134.926 114.497 134.928 114.517 134.925 114.536C134.923 114.556 134.915 114.575 134.904 114.592C134.893 114.608 134.878 114.622 134.861 114.632L133.332 115.487L131.422 113.447Z" fill="#A40F0F"/>
<path opacity="0.2" d="M131.422 113.447L132.956 112.568L134.889 114.427C134.903 114.442 134.914 114.459 134.92 114.478C134.926 114.497 134.928 114.517 134.925 114.536C134.923 114.556 134.915 114.575 134.904 114.592C134.893 114.608 134.878 114.622 134.861 114.632L133.332 115.487L131.422 113.447Z" fill="white"/>
<path d="M125.812 114.854C125.913 115.364 126.208 115.816 126.635 116.113H126.672C127.095 116.355 127.509 116.234 127.56 115.843L125.812 114.854Z" fill="white"/>
<path d="M124.586 112.829C124.724 112.601 124.8 112.342 124.809 112.076C124.837 111.686 124.846 111.281 124.86 110.882C124.888 110.055 125.218 109.627 125.859 109.59C126.013 109.59 126.045 109.529 126.022 109.316C125.98 108.958 126.082 108.744 126.324 108.702C126.453 108.681 126.586 108.709 126.696 108.781C126.845 108.87 126.974 108.991 127.072 109.134C127.183 109.266 127.266 109.419 127.317 109.583C127.368 109.748 127.386 109.92 127.37 110.092C127.35 110.176 127.354 110.264 127.382 110.347C127.41 110.429 127.461 110.501 127.528 110.556C128.011 111.124 128.332 111.811 128.457 112.546C128.487 112.789 128.501 113.034 128.499 113.28C128.493 113.709 128.521 114.138 128.583 114.563C128.646 115.018 128.804 115.455 129.047 115.845C129.132 115.961 129.176 116.102 129.173 116.245C129.173 116.454 129.089 116.505 128.899 116.398L126.654 115.102L124.846 114.056L124.614 113.921L124.377 113.786C124.284 113.731 124.213 113.646 124.177 113.545C124.102 113.368 124.135 113.14 124.246 113.08C124.385 113.038 124.505 112.949 124.586 112.829ZM126.305 112.787L127.063 113.219L127.258 111.249L126.124 110.612L126.305 112.806M126.682 114.363C127.007 114.549 127.235 114.418 127.235 114.102C127.223 113.92 127.166 113.744 127.069 113.589C126.973 113.435 126.84 113.306 126.682 113.215C126.356 113.024 126.129 113.14 126.129 113.461C126.14 113.645 126.197 113.824 126.293 113.981C126.39 114.138 126.523 114.269 126.682 114.363ZM126.682 109.33C126.556 109.255 126.449 109.33 126.449 109.46C126.455 109.539 126.478 109.616 126.519 109.685C126.559 109.753 126.615 109.811 126.682 109.855C126.803 109.924 126.905 109.855 126.905 109.72C126.904 109.64 126.883 109.562 126.843 109.493C126.803 109.423 126.746 109.366 126.677 109.325" fill="white"/>
<path d="M132.192 132.636L124.412 128.174C123.734 127.779 122.121 128.309 122.121 129.406C122.12 129.317 122.143 129.229 122.187 129.152C122.231 129.075 122.295 129.011 122.372 128.966C122.449 128.922 122.537 128.898 122.626 128.899C122.715 128.899 122.802 128.924 122.879 128.969L130.654 133.431C130.91 133.579 131.116 133.801 131.244 134.067L132.755 133.207C132.623 132.969 132.429 132.771 132.192 132.636Z" fill="#A40F0F"/>
<path d="M131.246 134.067C131.356 134.276 131.415 134.509 131.418 134.745V143.669C131.418 143.757 131.395 143.845 131.351 143.922C131.307 143.999 131.243 144.063 131.166 144.108C131.089 144.152 131.002 144.176 130.913 144.177C130.825 144.177 130.737 144.154 130.66 144.11C130.885 144.25 131.142 144.329 131.407 144.337C131.672 144.346 131.934 144.284 132.167 144.158C132.4 144.033 132.596 143.848 132.734 143.622C132.873 143.397 132.949 143.138 132.956 142.874V133.951C132.954 133.69 132.885 133.434 132.756 133.207L131.246 134.067Z" fill="#A40F0F"/>
<path opacity="0.4" d="M132.192 132.636L124.412 128.174C123.734 127.779 122.121 128.309 122.121 129.406C122.12 129.317 122.143 129.229 122.187 129.152C122.231 129.075 122.295 129.011 122.372 128.966C122.449 128.922 122.537 128.898 122.626 128.899C122.715 128.899 122.802 128.924 122.879 128.969L130.654 133.431C130.91 133.579 131.116 133.801 131.244 134.067L132.755 133.207C132.623 132.969 132.429 132.771 132.192 132.636Z" fill="white"/>
<path opacity="0.2" d="M131.246 134.067C131.356 134.276 131.415 134.509 131.418 134.745V143.669C131.418 143.757 131.395 143.845 131.351 143.922C131.307 143.999 131.243 144.063 131.166 144.108C131.089 144.152 131.002 144.176 130.913 144.177C130.825 144.177 130.737 144.154 130.66 144.11C130.885 144.25 131.142 144.329 131.407 144.337C131.672 144.346 131.934 144.284 132.167 144.158C132.4 144.033 132.596 143.848 132.734 143.622C132.873 143.397 132.949 143.138 132.956 142.874V133.951C132.954 133.69 132.885 133.434 132.756 133.207L131.246 134.067Z" fill="white"/>
<path d="M122.879 128.967L130.654 133.429C130.886 133.561 131.079 133.753 131.212 133.984C131.346 134.215 131.417 134.477 131.416 134.744V143.667C131.416 143.756 131.393 143.844 131.349 143.921C131.305 143.998 131.241 144.062 131.165 144.107C131.088 144.151 131.001 144.175 130.912 144.175C130.823 144.176 130.736 144.153 130.659 144.109L122.883 139.666C122.651 139.533 122.458 139.341 122.324 139.109C122.19 138.877 122.12 138.614 122.121 138.346V129.404C122.12 129.315 122.143 129.228 122.187 129.15C122.231 129.073 122.295 129.009 122.372 128.965C122.449 128.92 122.537 128.897 122.626 128.897C122.715 128.898 122.802 128.922 122.879 128.967Z" fill="#A40F0F"/>
<path d="M133.293 139.579L131.434 139.927V137.529L133.367 139.356C133.385 139.373 133.397 139.395 133.403 139.418C133.409 139.442 133.408 139.467 133.4 139.491C133.393 139.514 133.378 139.535 133.359 139.55C133.34 139.566 133.317 139.576 133.293 139.579Z" fill="#A40F0F"/>
<path d="M131.422 137.529L132.956 136.65L134.889 138.509C134.903 138.524 134.914 138.541 134.92 138.56C134.926 138.579 134.928 138.599 134.925 138.618C134.923 138.638 134.915 138.657 134.904 138.674C134.893 138.69 134.878 138.704 134.861 138.714L133.332 139.569L131.422 137.529Z" fill="#A40F0F"/>
<path opacity="0.2" d="M131.422 137.529L132.956 136.65L134.889 138.509C134.903 138.524 134.914 138.541 134.92 138.56C134.926 138.579 134.928 138.599 134.925 138.618C134.923 138.638 134.915 138.657 134.904 138.674C134.893 138.69 134.878 138.704 134.861 138.714L133.332 139.569L131.422 137.529Z" fill="white"/>
<path d="M125.812 138.961C125.913 139.472 126.208 139.923 126.635 140.22H126.672C127.095 140.462 127.509 140.341 127.56 139.946L125.812 138.961Z" fill="white"/>
<path d="M124.586 136.911C124.724 136.683 124.8 136.424 124.809 136.158C124.837 135.763 124.846 135.363 124.86 134.959C124.888 134.136 125.218 133.709 125.859 133.672C126.013 133.672 126.045 133.611 126.022 133.393C125.98 133.035 126.082 132.826 126.324 132.784C126.453 132.764 126.585 132.79 126.696 132.858C126.844 132.951 126.972 133.072 127.072 133.216C127.183 133.348 127.266 133.501 127.317 133.665C127.368 133.829 127.386 134.002 127.37 134.174C127.35 134.258 127.354 134.346 127.382 134.429C127.41 134.511 127.461 134.583 127.528 134.638C128.012 135.205 128.333 135.892 128.457 136.627C128.487 136.871 128.501 137.116 128.499 137.362C128.493 137.791 128.521 138.22 128.583 138.644C128.646 139.098 128.804 139.534 129.047 139.922C129.132 140.04 129.176 140.182 129.173 140.327C129.173 140.536 129.089 140.587 128.899 140.48L126.654 139.184L124.846 138.138L124.614 138.003L124.377 137.864C124.285 137.81 124.214 137.726 124.177 137.627C124.102 137.45 124.135 137.222 124.246 137.162C124.384 137.118 124.503 137.029 124.586 136.911ZM126.305 136.864L127.063 137.301L127.258 135.331L126.124 134.675L126.305 136.864ZM126.682 138.426C127.007 138.612 127.235 138.482 127.235 138.166C127.224 137.983 127.167 137.807 127.071 137.652C126.974 137.497 126.841 137.368 126.682 137.278C126.356 137.088 126.129 137.204 126.129 137.524C126.14 137.708 126.197 137.887 126.293 138.044C126.39 138.201 126.523 138.332 126.682 138.426ZM126.682 133.388C126.659 133.37 126.631 133.359 126.602 133.357C126.574 133.355 126.545 133.361 126.519 133.376C126.494 133.391 126.474 133.412 126.462 133.439C126.449 133.465 126.445 133.494 126.449 133.523C126.455 133.602 126.478 133.679 126.519 133.748C126.559 133.817 126.615 133.875 126.682 133.918C126.803 133.988 126.905 133.918 126.905 133.783C126.902 133.703 126.88 133.625 126.84 133.555C126.801 133.485 126.745 133.427 126.677 133.383" fill="white"/>
<path d="M119.726 151.127L118.838 141.795L117.555 128.354C117.452 127.279 117.13 126.236 116.609 125.29C116.088 124.344 115.379 123.514 114.525 122.852L87.1795 101.673L85.683 96.0961C85.6252 95.8788 85.5223 95.6761 85.3809 95.5012C85.3632 95.4774 85.343 95.4556 85.3205 95.4362C83.9262 93.7352 82.0115 92.2898 79.5855 92.2666H79.4553C79.3217 92.2665 79.1887 92.2853 79.0603 92.3224C78.9266 92.3573 78.7984 92.4105 78.6792 92.4804L52.1282 107.817C51.9411 107.928 51.7624 108.052 51.5937 108.189C51.4262 108.322 51.2706 108.47 51.129 108.63C50.9936 108.79 50.8723 108.961 50.7665 109.142C50.6593 109.323 50.5676 109.512 50.4923 109.709C50.4225 109.89 50.3666 110.076 50.325 110.266C50.2821 110.456 50.2557 110.649 50.246 110.843C50.2321 111.034 50.2321 111.227 50.246 111.419C50.2659 111.617 50.3016 111.812 50.3529 112.004L55.637 131.691L53.3691 130.334L43.6094 156.239C43.9719 157.131 44.8921 156.634 44.8921 156.634L47.7131 150.713C47.8534 150.417 48.0535 150.154 48.3008 149.939C48.5481 149.724 48.8372 149.563 49.1498 149.466C49.4625 149.369 49.7919 149.337 50.1173 149.373C50.4428 149.41 50.7572 149.513 51.0407 149.677L80.8682 166.877C81.6775 167.343 82.3737 167.981 82.9065 168.748C83.4393 169.515 83.7955 170.39 83.9495 171.311L84.3305 173.56H86.1895L86.1012 172.631C85.9868 171.425 86.2211 170.211 86.7764 169.134C87.3317 168.057 88.1846 167.163 89.2336 166.556L115.018 151.712C115.298 151.551 115.612 151.46 115.934 151.447C116.257 151.433 116.578 151.497 116.87 151.634C117.163 151.771 117.418 151.976 117.614 152.233C117.81 152.489 117.941 152.789 117.997 153.107L119.391 161.375C119.59 161.503 119.826 161.561 120.062 161.54C120.297 161.519 120.519 161.42 120.692 161.258L119.726 151.127ZM111.946 125.608C112.434 125.902 112.854 126.299 113.174 126.77C113.495 127.242 113.71 127.778 113.805 128.34L115.483 138.291C115.35 138.1 115.177 137.941 114.976 137.826L93.4117 125.278C93.403 125.004 93.3625 124.733 93.2909 124.469L90.0795 112.506L111.946 125.608ZM55.6789 131.844L56.9895 136.734L55.1305 137.817C54.8198 137.992 54.5811 138.272 54.4566 138.607C53.6851 140.029 53.4109 143.194 54.3915 145.336L53.6805 144.932C52.9156 144.499 52.3356 143.801 52.0497 142.969C51.7638 142.138 51.7917 141.231 52.1282 140.419L52.8346 138.723L55.6789 131.844ZM116.291 143.263V143.105L116.314 143.24L116.291 143.263Z" fill="#455A64"/>
<path d="M79.216 162.061L53.1529 146.818C52.3273 146.334 51.7048 145.567 51.4006 144.66C51.0965 143.753 51.1312 142.766 51.4984 141.882L52.8137 138.722L52.1072 140.418C51.7708 141.23 51.7429 142.137 52.0288 142.968C52.3147 143.8 52.8947 144.497 53.6595 144.931L82.0091 160.969C81.9267 161.246 81.782 161.501 81.5863 161.714C81.3905 161.927 81.1487 162.092 80.8794 162.198C80.61 162.303 80.3202 162.345 80.0319 162.322C79.7436 162.298 79.4646 162.209 79.216 162.061Z" fill="#37474F"/>
<path d="M53.3778 130.375L55.7016 131.769L52.8108 138.74L51.4956 141.901C51.1284 142.784 51.0937 143.771 51.3978 144.679C51.702 145.586 52.3245 146.352 53.1501 146.836L79.2131 162.08C79.4616 162.227 79.7402 162.315 80.0279 162.338C80.3156 162.362 80.6048 162.319 80.8736 162.214C81.1423 162.108 81.3836 161.943 81.579 161.731C81.7745 161.519 81.919 161.264 82.0016 160.988L83.8606 162.034L118.838 141.794L119.967 153.645L118.131 153.919L117.996 153.115C117.941 152.797 117.809 152.497 117.613 152.241C117.417 151.985 117.162 151.779 116.87 151.643C116.577 151.506 116.256 151.441 115.934 151.455C115.611 151.469 115.297 151.56 115.017 151.721L89.2331 166.556C88.1808 167.161 87.325 168.057 86.7679 169.136C86.2108 170.214 85.976 171.431 86.0914 172.639L86.1797 173.569H84.3207L83.9396 171.319C83.7856 170.398 83.4294 169.523 82.8966 168.757C82.3638 167.99 81.6677 167.351 80.8583 166.886L51.068 149.727C50.7845 149.563 50.4701 149.46 50.1447 149.424C49.8192 149.387 49.4898 149.419 49.1772 149.516C48.8645 149.614 48.5754 149.775 48.3282 149.989C48.0809 150.204 47.8808 150.468 47.7404 150.763L44.9194 156.684C44.9194 156.684 43.9899 157.182 43.6367 156.289L53.3778 130.375Z" fill="#455A64"/>
<path d="M86.516 101.158L114.522 122.853C115.375 123.515 116.084 124.345 116.605 125.291C117.126 126.237 117.448 127.28 117.552 128.355L120.689 161.269C120.516 161.43 120.294 161.529 120.058 161.55C119.822 161.571 119.587 161.513 119.388 161.385L113.811 128.341C113.716 127.779 113.501 127.243 113.18 126.771C112.859 126.3 112.44 125.903 111.952 125.609L87.1992 110.774C83.9552 108.845 83.3882 102.027 86.516 101.158Z" fill="#455A64"/>
<path opacity="0.3" d="M86.516 101.158L114.522 122.853C115.375 123.515 116.084 124.345 116.605 125.291C117.126 126.237 117.448 127.28 117.552 128.355L120.689 161.269C120.516 161.43 120.294 161.529 120.058 161.55C119.822 161.571 119.587 161.513 119.388 161.385L113.811 128.341C113.716 127.779 113.501 127.243 113.18 126.771C112.859 126.3 112.44 125.903 111.952 125.609L87.1992 110.774C83.9552 108.845 83.3882 102.027 86.516 101.158Z" fill="white"/>
<path d="M54.4387 138.606C54.5633 138.272 54.8019 137.992 55.1126 137.816L83.1926 121.606C83.7862 121.261 84.4604 121.079 85.1469 121.079C85.8334 121.079 86.5076 121.261 87.1012 121.606L114.986 137.807C115.298 137.985 115.537 138.268 115.66 138.606C116.459 140.084 116.729 143.439 115.613 145.577C115.466 145.857 115.246 146.091 114.977 146.256L86.9106 162.466C86.3166 162.81 85.6425 162.991 84.9564 162.991C84.2702 162.991 83.5961 162.81 83.0021 162.466L55.1172 146.265C54.843 146.105 54.6242 145.865 54.4898 145.577C53.3698 143.439 53.6393 140.084 54.4387 138.606Z" fill="#A40F0F"/>
<path opacity="0.3" d="M54.4387 138.606C54.5633 138.272 54.8019 137.992 55.1126 137.816L83.1926 121.606C83.7862 121.261 84.4604 121.079 85.1469 121.079C85.8334 121.079 86.5076 121.261 87.1012 121.606L114.986 137.807C115.298 137.985 115.537 138.268 115.66 138.606C116.459 140.084 116.729 143.439 115.613 145.577C115.466 145.857 115.246 146.091 114.977 146.256L86.9106 162.466C86.3166 162.81 85.6425 162.991 84.9564 162.991C84.2702 162.991 83.5961 162.81 83.0021 162.466L55.1172 146.265C54.843 146.105 54.6242 145.865 54.4898 145.577C53.3698 143.439 53.6393 140.084 54.4387 138.606Z" fill="white"/>
<path opacity="0.3" d="M54.4387 138.605C54.3053 138.951 54.2994 139.334 54.422 139.684C54.5446 140.034 54.7878 140.329 55.108 140.516L82.9928 156.717C83.5868 157.06 84.2609 157.241 84.9471 157.241C85.6332 157.241 86.3073 157.06 86.9013 156.717L114.981 140.502C115.301 140.318 115.546 140.026 115.67 139.679C115.794 139.331 115.791 138.951 115.66 138.605C116.459 140.083 116.729 143.439 115.613 145.577C115.466 145.856 115.246 146.091 114.977 146.255L86.9106 162.466C86.3166 162.809 85.6425 162.99 84.9564 162.99C84.2702 162.99 83.5961 162.809 83.0021 162.466L55.1172 146.265C54.843 146.104 54.6242 145.864 54.4898 145.577C53.3698 143.439 53.6393 140.083 54.4387 138.605Z" fill="black"/>
<path d="M52.1188 107.821L78.6698 92.4843C78.9056 92.347 79.173 92.2734 79.4459 92.2705H79.576C82.002 92.2937 83.9028 93.7391 85.311 95.4401C85.3335 95.4595 85.3538 95.4813 85.3714 95.5052C85.5128 95.68 85.6158 95.8827 85.6735 96.1L93.2907 124.45C93.5169 125.255 93.4694 126.113 93.1557 126.888C92.8419 127.664 92.2797 128.313 91.5572 128.735L65.0108 144.071C64.7296 144.234 64.4053 144.307 64.0814 144.28C61.0419 143.964 59.2526 142.087 58.3557 141.097C58.1855 140.907 58.0628 140.679 57.9978 140.432L50.3806 112.083C50.1605 111.28 50.2116 110.427 50.5259 109.657C50.8402 108.886 51.4001 108.241 52.1188 107.821Z" fill="#A40F0F"/>
<path opacity="0.2" d="M52.1188 107.821L78.6698 92.4843C78.9056 92.347 79.173 92.2734 79.4459 92.2705H79.576C82.002 92.2937 83.9028 93.7391 85.311 95.4401C85.3335 95.4595 85.3538 95.4813 85.3714 95.5052C85.5128 95.68 85.6158 95.8827 85.6735 96.1L93.2907 124.45C93.5169 125.255 93.4694 126.113 93.1557 126.888C92.8419 127.664 92.2797 128.313 91.5572 128.735L65.0108 144.071C64.7296 144.234 64.4053 144.307 64.0814 144.28C61.0419 143.964 59.2526 142.087 58.3557 141.097C58.1855 140.907 58.0628 140.679 57.9978 140.432L50.3806 112.083C50.1605 111.28 50.2116 110.427 50.5259 109.657C50.8402 108.886 51.4001 108.241 52.1188 107.821Z" fill="white"/>
<path opacity="0.1" d="M52.1171 107.821L78.6681 92.4843C78.904 92.347 79.1714 92.2734 79.4443 92.2705H79.5744C82.0004 92.2937 83.9012 93.7391 85.3094 95.4401C85.0619 95.1692 84.7292 94.991 84.3666 94.9352C84.0039 94.8794 83.6331 94.9493 83.3156 95.1334L56.7646 110.47C56.0097 110.909 55.43 111.595 55.124 112.413L50.4766 109.736C50.7884 108.929 51.3674 108.253 52.1171 107.821Z" fill="black"/>
<path opacity="0.2" d="M55.1256 112.389C54.8412 113.131 54.8005 113.945 55.0094 114.713L62.6266 143.062C62.7124 143.384 62.8962 143.672 63.1527 143.885C63.4091 144.098 63.7255 144.227 64.058 144.252C61.0186 143.936 59.2293 142.058 58.3323 141.068C58.1622 140.878 58.0395 140.651 57.9745 140.404L50.3573 112.054C50.1526 111.286 50.1966 110.472 50.4828 109.73L55.1256 112.389Z" fill="black"/>
<path d="M110.884 159.12C110.574 160.748 110.399 162.399 110.359 164.055L109.215 163.591C108.661 163.378 108.056 163.335 107.477 163.465C106.899 163.596 106.371 163.895 105.962 164.325L105.906 164.385C105.698 164.605 105.413 164.735 105.11 164.749C104.808 164.763 104.512 164.659 104.284 164.46C104.163 164.354 104.064 164.224 103.996 164.079C103.927 163.933 103.889 163.775 103.885 163.614L103.727 158.65L110.884 159.12Z" fill="#FFA8A7"/>
<path d="M106.384 177.556C108.8 180.145 113.257 182.408 116.492 180.201L116.129 181.023C112.876 183.231 108.438 180.968 106.021 178.384C103.604 175.8 105.171 174.001 102.996 171.705C102.174 170.923 101.532 169.971 101.113 168.917C101.211 168.67 101.299 168.345 101.415 167.987C101.885 169.065 102.543 170.05 103.358 170.897C105.533 173.179 103.962 174.972 106.384 177.556Z" fill="white"/>
<path d="M102.604 165.268C102.978 164.739 103.238 164.137 103.366 163.502C103.388 163.356 103.441 163.217 103.521 163.094C103.601 162.97 103.707 162.865 103.831 162.786L103.859 163.618C103.865 163.85 103.94 164.074 104.074 164.263C104.208 164.452 104.395 164.596 104.612 164.679C104.828 164.762 105.064 164.778 105.29 164.727C105.516 164.675 105.721 164.558 105.88 164.39L105.936 164.329C106.345 163.899 106.873 163.6 107.452 163.47C108.03 163.339 108.635 163.382 109.189 163.595L110.374 164.06C110.549 164.128 110.699 164.248 110.804 164.403C110.909 164.558 110.965 164.741 110.965 164.929C110.886 168.321 112.47 172.829 114.134 175.302C115.844 176.013 117.318 178.341 116.565 180.047L116.49 180.219C113.237 182.426 108.799 180.163 106.382 177.574C103.966 174.986 105.532 173.196 103.357 170.901C102.541 170.054 101.883 169.069 101.414 167.991C101.682 167.033 102.082 166.116 102.604 165.268Z" fill="#A40F0F"/>
<path opacity="0.2" d="M102.604 165.268C102.978 164.739 103.238 164.137 103.366 163.502C103.388 163.356 103.441 163.217 103.521 163.094C103.601 162.97 103.707 162.865 103.831 162.786L103.859 163.618C103.865 163.85 103.94 164.074 104.074 164.263C104.208 164.452 104.395 164.596 104.612 164.679C104.828 164.762 105.064 164.778 105.29 164.727C105.516 164.675 105.721 164.558 105.88 164.39L105.936 164.329C106.345 163.899 106.873 163.6 107.452 163.47C108.03 163.339 108.635 163.382 109.189 163.595L110.374 164.06C110.549 164.128 110.699 164.248 110.804 164.403C110.909 164.558 110.965 164.741 110.965 164.929C110.886 168.321 112.47 172.829 114.134 175.302C115.844 176.013 117.318 178.341 116.565 180.047L116.49 180.219C113.237 182.426 108.799 180.163 106.382 177.574C103.966 174.986 105.532 173.196 103.357 170.901C102.541 170.054 101.883 169.069 101.414 167.991C101.682 167.033 102.082 166.116 102.604 165.268Z" fill="white"/>
<path d="M107.354 170.166C107.306 170.19 107.254 170.204 107.2 170.207C107.146 170.211 107.092 170.204 107.041 170.187C106.99 170.169 106.943 170.142 106.903 170.107C106.863 170.071 106.83 170.028 106.806 169.98C106.781 169.933 106.765 169.881 106.76 169.828C106.755 169.775 106.76 169.722 106.775 169.671C106.791 169.62 106.816 169.572 106.85 169.531C106.884 169.49 106.926 169.456 106.973 169.431C107.682 169.03 108.482 168.819 109.297 168.819C110.111 168.819 110.912 169.03 111.621 169.431C111.69 169.696 111.769 169.961 111.848 170.226C111.169 169.827 110.397 169.612 109.609 169.602C108.821 169.591 108.044 169.785 107.354 170.166Z" fill="white"/>
<path d="M106.749 168.332C106.651 168.382 106.538 168.392 106.433 168.359C106.329 168.326 106.242 168.253 106.191 168.155C106.14 168.058 106.131 167.944 106.164 167.84C106.197 167.735 106.27 167.648 106.368 167.598C107.11 167.192 107.944 166.983 108.79 166.99C109.636 166.998 110.466 167.221 111.201 167.639C111.247 167.914 111.308 168.192 111.368 168.471C109.955 167.728 108.533 167.43 106.749 168.332Z" fill="white"/>
<path d="M107.992 171.994C107.895 172.041 107.783 172.048 107.68 172.013C107.577 171.979 107.493 171.905 107.444 171.808C107.395 171.713 107.385 171.602 107.417 171.499C107.449 171.396 107.521 171.31 107.616 171.26C108.308 170.87 109.088 170.661 109.882 170.653C110.677 170.644 111.461 170.837 112.161 171.214C112.263 171.502 112.37 171.781 112.482 172.059C111.803 171.661 111.032 171.445 110.245 171.434C109.459 171.422 108.682 171.616 107.992 171.994Z" fill="white"/>
<path d="M114.14 175.284C115.851 175.995 117.324 178.324 116.571 180.029L116.497 180.201C113.309 182.376 108.945 180.201 106.5 177.673C108.536 173.681 112.793 174.675 114.14 175.284Z" fill="white"/>
<path d="M108.71 173.774C108.662 173.798 108.61 173.812 108.556 173.815C108.502 173.819 108.449 173.812 108.398 173.795C108.347 173.777 108.3 173.75 108.259 173.715C108.219 173.679 108.186 173.636 108.162 173.588C108.114 173.492 108.104 173.382 108.135 173.28C108.166 173.178 108.236 173.091 108.329 173.039C109.024 172.649 109.807 172.441 110.604 172.435C111.401 172.428 112.187 172.623 112.888 173.002C113.033 173.318 113.181 173.62 113.353 173.932C111.922 173.17 110.5 172.886 108.71 173.774Z" fill="white"/>
<path d="M115.968 168.982C116.339 170.59 116.841 172.165 117.469 173.69L116.228 173.76C115.637 173.791 115.069 173.996 114.594 174.349C114.12 174.702 113.76 175.188 113.56 175.744L113.532 175.819C113.43 176.104 113.221 176.338 112.95 176.472C112.679 176.606 112.366 176.63 112.078 176.539C111.924 176.493 111.782 176.415 111.66 176.31C111.538 176.205 111.44 176.076 111.371 175.93L109.215 171.45L115.968 168.982Z" fill="#FFA8A7"/>
<path d="M119.295 187.67C122.549 189.064 127.54 189.334 129.608 186.006V186.908C127.54 190.231 122.553 189.961 119.295 188.572C116.038 187.182 116.749 184.905 113.83 183.683C112.762 183.295 111.79 182.681 110.981 181.884C110.981 181.619 110.925 181.289 110.879 180.903C111.744 181.7 112.743 182.338 113.83 182.786C116.749 184.008 116.038 186.28 119.295 187.67Z" fill="white"/>
<path d="M110.878 177.952C111.013 177.317 111.013 176.662 110.878 176.028C110.841 175.884 110.835 175.733 110.86 175.586C110.886 175.44 110.943 175.3 111.027 175.177L111.39 175.93C111.458 176.075 111.557 176.205 111.678 176.31C111.8 176.414 111.942 176.493 112.096 176.539C112.385 176.63 112.697 176.606 112.968 176.472C113.24 176.337 113.448 176.103 113.551 175.819L113.579 175.744C113.778 175.187 114.138 174.702 114.613 174.349C115.087 173.996 115.656 173.791 116.246 173.76L117.51 173.69C117.698 173.683 117.883 173.733 118.041 173.834C118.2 173.934 118.324 174.08 118.398 174.252C119.699 177.385 122.966 180.866 125.485 182.464C127.344 182.418 129.626 183.956 129.626 185.82V186.006C127.558 189.333 122.571 189.059 119.314 187.67C116.056 186.28 116.767 184.007 113.848 182.785C112.761 182.337 111.762 181.7 110.897 180.903C110.754 179.925 110.748 178.932 110.878 177.952Z" fill="#A40F0F"/>
<path opacity="0.2" d="M110.878 177.952C111.013 177.317 111.013 176.662 110.878 176.028C110.841 175.884 110.835 175.733 110.86 175.586C110.886 175.44 110.943 175.3 111.027 175.177L111.39 175.93C111.458 176.075 111.557 176.205 111.678 176.31C111.8 176.414 111.942 176.493 112.096 176.539C112.385 176.63 112.697 176.606 112.968 176.472C113.24 176.337 113.448 176.103 113.551 175.819L113.579 175.744C113.778 175.187 114.138 174.702 114.613 174.349C115.087 173.996 115.656 173.791 116.246 173.76L117.51 173.69C117.698 173.683 117.883 173.733 118.041 173.834C118.2 173.934 118.324 174.08 118.398 174.252C119.699 177.385 122.966 180.866 125.485 182.464C127.344 182.418 129.626 183.956 129.626 185.82V186.006C127.558 189.333 122.571 189.059 119.314 187.67C116.056 186.28 116.767 184.007 113.848 182.785C112.761 182.337 111.762 181.7 110.897 180.903C110.754 179.925 110.748 178.932 110.878 177.952Z" fill="white"/>
<path d="M117.187 180.522C117.118 180.608 117.018 180.663 116.908 180.675C116.799 180.686 116.689 180.654 116.604 180.585C116.518 180.516 116.463 180.416 116.452 180.307C116.44 180.197 116.472 180.088 116.541 180.002C117.031 179.353 117.681 178.841 118.426 178.515C119.172 178.19 119.989 178.061 120.798 178.143C120.97 178.361 121.147 178.571 121.328 178.78C120.546 178.687 119.753 178.799 119.027 179.104C118.302 179.41 117.667 179.898 117.187 180.522Z" fill="white"/>
<path d="M115.9 179.081C115.828 179.154 115.731 179.197 115.629 179.203C115.527 179.209 115.426 179.177 115.346 179.113C115.266 179.048 115.213 178.957 115.197 178.855C115.18 178.754 115.202 178.651 115.258 178.565C115.773 177.893 116.451 177.364 117.228 177.029C118.005 176.694 118.855 176.564 119.697 176.65C119.855 176.882 120.017 177.115 120.185 177.342C118.595 177.231 117.173 177.533 115.9 179.081Z" fill="white"/>
<path d="M118.509 181.926C118.437 181.999 118.341 182.043 118.238 182.049C118.136 182.054 118.035 182.022 117.955 181.958C117.875 181.894 117.822 181.802 117.806 181.701C117.79 181.6 117.812 181.496 117.868 181.41C118.346 180.777 118.976 180.275 119.7 179.95C120.424 179.625 121.218 179.488 122.009 179.551C122.218 179.774 122.432 179.988 122.645 180.197C121.865 180.103 121.074 180.213 120.349 180.516C119.624 180.819 118.99 181.305 118.509 181.926Z" fill="white"/>
<path d="M125.484 182.465C127.343 182.418 129.625 183.957 129.625 185.82V186.006C127.585 189.26 122.719 189.064 119.461 187.73C119.698 183.255 123.992 182.446 125.484 182.465Z" fill="white"/>
<path d="M119.907 183.269C119.837 183.35 119.738 183.401 119.632 183.411C119.525 183.421 119.419 183.389 119.335 183.322C119.252 183.255 119.197 183.159 119.183 183.053C119.169 182.946 119.197 182.839 119.261 182.753C119.741 182.118 120.373 181.615 121.1 181.29C121.826 180.965 122.623 180.829 123.416 180.894C123.676 181.126 123.932 181.359 124.192 181.549C122.589 181.419 121.166 181.716 119.907 183.269Z" fill="white"/>
<path d="M96.8323 126.611L113.14 135.706C114.618 136.53 115.8 137.796 116.52 139.327C117.239 140.858 117.46 142.576 117.151 144.239L113.986 161.268L116.584 169.512C114.33 172.519 109.218 172.672 109.218 172.672C106.35 166.924 104.245 164.479 102.618 159.66C100.992 154.84 99.8904 151.508 99.8904 151.508L86.3476 147.79C83.2505 146.948 80.4769 145.197 78.385 142.763C76.2931 140.329 74.9791 137.324 74.6128 134.136C74.385 132.091 74.3711 130.692 74.3711 130.692L96.8323 126.611Z" fill="#455A64"/>
<path d="M96.8323 126.611L113.14 135.706C114.618 136.53 115.8 137.796 116.52 139.327C117.239 140.858 117.46 142.576 117.151 144.239L113.986 161.268L116.584 169.512C114.33 172.519 109.218 172.672 109.218 172.672C106.35 166.924 104.245 164.479 102.618 159.66C100.992 154.84 99.8904 151.508 99.8904 151.508L86.3476 147.79C83.2505 146.948 80.4769 145.197 78.385 142.763C76.2931 140.329 74.9791 137.324 74.6128 134.136C74.385 132.091 74.3711 130.692 74.3711 130.692L96.8323 126.611Z" fill="#37474F"/>
<path opacity="0.2" d="M96.7085 131.192C96.7086 133.015 96.0631 134.778 94.8867 136.17L106.389 143.373C108.079 144.429 109.33 146.06 109.912 147.965L113.983 161.266L110.312 146.436C109.889 144.73 108.814 143.256 107.319 142.332L96.6946 135.77C97.7821 133.061 96.7085 131.192 96.7085 131.192Z" fill="black"/>
<path d="M95.0703 98.6006H95.4886C98.305 98.6285 101.87 100.548 103.612 105.46L110.379 118.566L102.655 121.991L98.4258 109.624L95.0703 98.6006Z" fill="#A40F0F"/>
<g opacity="0.2">
<path d="M95.0703 98.6016H95.4886C98.305 98.6294 101.87 100.549 103.612 105.461L110.379 118.567L102.655 121.992L98.4258 109.625L95.0703 98.6016Z" fill="black"/>
</g>
<path opacity="0.2" d="M100.492 107.295C101.031 108.843 101.063 110.511 101.152 112.152C101.24 113.792 101.426 115.763 102.174 117.222C103 116.647 103.99 116.356 104.996 116.392C106.002 116.428 106.968 116.789 107.751 117.422C108.311 117.893 108.741 118.5 109.001 119.183L102.662 121.995L98.4329 109.628L96.3555 102.806C97.3082 103.242 98.1646 103.864 98.8747 104.635C99.5848 105.406 100.134 106.31 100.492 107.295Z" fill="black"/>
<path d="M102.578 119.631C102.874 118.903 103.35 118.262 103.961 117.767C104.572 117.273 105.299 116.942 106.073 116.805C106.88 116.724 107.695 116.843 108.445 117.15C109.196 117.458 109.859 117.946 110.376 118.571C111.218 119.589 111.087 120.969 110.553 122.178C110.108 123.117 109.352 123.874 108.412 124.318C107.472 124.763 106.408 124.869 105.399 124.618C103.405 124.06 101.825 121.564 102.578 119.631Z" fill="#A40F0F"/>
<g opacity="0.2">
<path d="M102.578 119.632C102.874 118.904 103.35 118.263 103.961 117.768C104.572 117.274 105.299 116.943 106.073 116.806C106.88 116.725 107.695 116.843 108.445 117.151C109.196 117.459 109.859 117.947 110.376 118.572C111.218 119.59 111.087 120.97 110.553 122.179C110.108 123.118 109.352 123.875 108.412 124.319C107.472 124.764 106.408 124.87 105.399 124.619C103.405 124.061 101.825 121.565 102.578 119.632Z" fill="black"/>
</g>
<path d="M74.1088 131.989C77.0042 134.777 90.8955 135.274 97.9829 128.526C97.3043 123.763 97.5181 118.66 97.9829 113.612C98.4476 108.565 101.385 99.7397 95.7521 98.7126C88.2278 97.244 84.4308 98.5964 78.2869 100.195C72.919 109.137 73.658 122.522 74.1088 131.989Z" fill="#A40F0F"/>
<path opacity="0.2" d="M74.1088 131.989C77.0042 134.777 90.8955 135.274 97.9829 128.526C97.3043 123.763 97.5181 118.66 97.9829 113.612C98.4476 108.565 101.385 99.7397 95.7521 98.7126C88.2278 97.244 84.4308 98.5964 78.2869 100.195C72.919 109.137 73.658 122.522 74.1088 131.989Z" fill="black"/>
<path opacity="0.2" d="M82.328 122.058C82.0305 117.094 82.328 108.65 80.6967 106.182L76.2165 104.569C73.4652 112.187 73.6233 121.602 73.9672 129.238C76.9856 130.977 80.291 132.16 83.7269 132.733C85.1583 132.998 86.6037 133.198 88.0537 133.314C91.6926 132.561 95.313 131.051 97.9714 128.518C97.8784 127.881 97.8087 127.23 97.7483 126.58C94.2399 126.383 90.7742 125.714 87.4448 124.591C86.8243 123.825 86.0459 123.203 85.1629 122.766C84.2798 122.329 83.3129 122.087 82.328 122.058Z" fill="black"/>
<path opacity="0.15" d="M94.6082 131.652C94.6082 131.652 94.6082 131.652 94.6082 131.629C94.6082 131.606 94.6082 131.629 94.6082 131.601V131.578V131.55C94.6082 131.55 94.6082 131.55 94.6082 131.522V131.499L99.6647 122.088L100.362 122.883L95.3054 132.294C95.2733 132.347 95.2512 132.405 95.2403 132.466C95.2351 132.483 95.2344 132.502 95.2385 132.52C95.2426 132.538 95.2512 132.554 95.2635 132.568L94.5664 131.778V131.741C94.5664 131.741 94.5664 131.717 94.5664 131.708L94.6082 131.652Z" fill="white"/>
<path opacity="0.2" d="M99.751 122.031V122.003V121.975V121.947V121.914V121.886V121.854L99.7742 121.826V121.798V121.77V121.747L99.8485 121.682H99.8718H99.8997H99.9322H99.9647H99.9973L105.811 118.429H105.844H105.876H105.909H105.941H105.969H106.002H106.03H106.062H106.095H106.202C106.218 118.429 106.234 118.432 106.25 118.438C106.265 118.445 106.279 118.454 106.29 118.466L106.982 119.261C106.955 119.223 106.894 119.214 106.81 119.233C106.698 119.262 106.59 119.306 106.49 119.363L100.676 122.616C100.561 122.682 100.451 122.755 100.346 122.835C100.234 122.923 100.127 123.011 100.025 123.109C99.9277 123.2 99.8361 123.298 99.751 123.402C99.6786 123.488 99.6148 123.582 99.5604 123.68L98.8633 122.886L99.751 122.031Z" fill="white"/>
<path d="M102.67 125.608C102.67 125.608 98.9983 127.467 97.3717 126.444L98.2315 124.846C95.9212 124.81 93.6697 125.575 91.8598 127.011C88.3879 126.376 84.9987 125.352 81.7562 123.958L80.6036 123.493L74.7617 128.35C78.7446 130.929 97.5343 132.695 99.4863 131.491C101.438 130.288 102.935 127.899 102.67 125.608Z" fill="#FFA8A7"/>
<path d="M106.64 120.871C106.763 121.484 106.835 122.106 106.854 122.73C106.704 124.23 106.067 125.64 105.041 126.746C104.828 126.987 104.561 127.175 104.261 127.294C104.111 127.349 103.949 127.365 103.791 127.34C103.633 127.315 103.484 127.249 103.359 127.15C103.14 126.891 103.027 126.559 103.043 126.22C102.994 125.712 103.022 125.2 103.127 124.701C103.231 124.196 103.515 123.747 103.926 123.437C104.246 123.242 104.587 123.086 104.944 122.972C105.292 122.826 105.602 122.602 105.85 122.316L106.64 120.871Z" fill="#FFA8A7"/>
<path d="M80.6037 123.477L80.7803 107.769C80.8042 105.646 80.2825 103.553 79.2653 101.69L78.2846 100.198C77.5027 100.276 76.7527 100.549 76.1032 100.991C75.4537 101.434 74.9254 102.032 74.5667 102.731C73.2081 105.065 72.5785 107.752 72.7588 110.446C72.7588 110.446 72.1407 126.638 74.7619 128.334L80.6037 123.477Z" fill="#A40F0F"/>
<path d="M84.5261 124.12L80.6036 123.479L74.7617 128.335C76.4766 129.66 80.585 131.082 83.2945 131.746C84.1247 131.95 84.9939 131.929 85.8134 131.686L86.2782 131.551L87.1751 125.482C86.4554 124.763 85.5293 124.287 84.5261 124.12Z" fill="#A40F0F"/>
<g opacity="0.2">
<path d="M80.6037 123.476L80.7803 107.768C80.8042 105.645 80.2825 103.552 79.2653 101.689L78.2846 100.197C77.5027 100.275 76.7527 100.548 76.1032 100.99C75.4537 101.433 74.9254 102.031 74.5667 102.73C73.2081 105.064 72.5785 107.751 72.7588 110.445C72.7588 110.445 72.1407 126.637 74.7619 128.333L80.6037 123.476Z" fill="black"/>
<path d="M84.5261 124.119L80.6036 123.478L74.7617 128.334C76.4766 129.659 80.585 131.081 83.2945 131.745C84.1247 131.949 84.9939 131.928 85.8134 131.685L86.2782 131.55L87.1751 125.481C86.4554 124.762 85.5293 124.286 84.5261 124.119Z" fill="black"/>
</g>
<path d="M90.6252 126.783C88.8452 127.689 89.7561 131.277 90.1046 131.551L90.6252 131.598C90.5396 131.742 90.4147 131.86 90.2649 131.936C90.1152 132.013 89.9468 132.045 89.7793 132.03C88.8266 131.932 86.9351 131.723 86.2565 131.565C84.4301 128.818 86.4703 125.876 87.1581 125.481C88.2735 125.811 89.3657 126.053 89.9466 126.169C90.0709 126.195 90.1882 126.247 90.2901 126.322C90.3921 126.398 90.4763 126.495 90.5368 126.606L90.6252 126.783Z" fill="#A40F0F"/>
<path opacity="0.3" d="M90.6252 126.783C88.8452 127.689 89.7561 131.277 90.1046 131.551L90.6252 131.598C90.5396 131.742 90.4147 131.86 90.2649 131.936C90.1152 132.013 89.9468 132.045 89.7793 132.03C88.8266 131.932 86.9351 131.723 86.2565 131.565C84.4301 128.818 86.4703 125.876 87.1581 125.481C88.2735 125.811 89.3657 126.053 89.9466 126.169C90.0709 126.195 90.1882 126.247 90.2901 126.322C90.3921 126.398 90.4763 126.495 90.5368 126.606L90.6252 126.783Z" fill="black"/>
<path d="M83.9073 99.2886C83.7789 99.5367 83.708 99.8105 83.7 100.09C83.6919 100.369 83.7469 100.646 83.8608 100.901C84.0968 101.409 84.4429 101.859 84.874 102.217C86.1566 103.351 87.773 104.037 89.4796 104.173C90.3995 104.278 91.3303 104.117 92.1612 103.708C92.5723 103.496 92.9236 103.184 93.1826 102.801C93.4417 102.418 93.6002 101.975 93.6438 101.515C93.6297 100.975 93.4647 100.449 93.1673 99.9985C92.8699 99.5475 92.4522 99.1889 91.9614 98.9633C90.9693 98.537 89.8832 98.3769 88.8104 98.4986C87.8062 98.6331 86.7931 98.6891 85.7802 98.6659C85.0831 98.5636 84.3116 98.5961 83.9073 99.2886Z" fill="#A40F0F"/>
<path opacity="0.3" d="M83.9073 99.2886C83.7789 99.5367 83.708 99.8105 83.7 100.09C83.6919 100.369 83.7469 100.646 83.8608 100.901C84.0968 101.409 84.4429 101.859 84.874 102.217C86.1566 103.351 87.773 104.037 89.4796 104.173C90.3995 104.278 91.3303 104.117 92.1612 103.708C92.5723 103.496 92.9236 103.184 93.1826 102.801C93.4417 102.418 93.6002 101.975 93.6438 101.515C93.6297 100.975 93.4647 100.449 93.1673 99.9985C92.8699 99.5475 92.4522 99.1889 91.9614 98.9633C90.9693 98.537 89.8832 98.3769 88.8104 98.4986C87.8062 98.6331 86.7931 98.6891 85.7802 98.6659C85.0831 98.5636 84.3116 98.5961 83.9073 99.2886Z" fill="black"/>
<path d="M83.2632 87.6101L87.3576 93.6518H87.4599L83.0912 87.2197C83.0912 87.2197 76.0782 90.2266 76.5848 92.3784C76.5961 92.4056 76.6055 92.4335 76.6127 92.4621L76.6684 92.6015C76.6667 92.6154 76.6667 92.6294 76.6684 92.6433L76.8079 92.9965C76.7806 92.9351 76.7589 92.8713 76.7428 92.806C76.2502 90.6263 83.2632 87.6101 83.2632 87.6101Z" fill="#A40F0F"/>
<path opacity="0.1" d="M83.2632 87.6101L87.3576 93.6518H87.4599L83.0912 87.2197C83.0912 87.2197 76.0782 90.2266 76.5848 92.3784C76.5961 92.4056 76.6055 92.4335 76.6127 92.4621L76.6684 92.6015C76.6667 92.6154 76.6667 92.6294 76.6684 92.6433L76.8079 92.9965C76.7806 92.9351 76.7589 92.8713 76.7428 92.806C76.2502 90.6263 83.2632 87.6101 83.2632 87.6101Z" fill="black"/>
<path d="M87.3732 93.6423L83.2787 87.6006C83.2787 87.6006 76.2657 90.6121 76.7723 92.7593C76.7883 92.8246 76.8101 92.8883 76.8373 92.9498C77.9248 95.5524 87.6427 94.0327 87.6427 94.0327L87.3732 93.6423Z" fill="#A40F0F"/>
<path opacity="0.3" d="M87.3732 93.6423L83.2787 87.6006C83.2787 87.6006 76.2657 90.6121 76.7723 92.7593C76.7883 92.8246 76.8101 92.8883 76.8373 92.9498C77.9248 95.5524 87.6427 94.0327 87.6427 94.0327L87.3732 93.6423Z" fill="black"/>
<path d="M85.4589 97.2765C84.4918 95.5133 83.7383 93.6411 83.2142 91.6995C82.7494 89.7383 81.4156 85.3836 82.3637 83.6083C83.0794 82.2745 85.0499 80.9267 86.3745 80.197C87.699 79.4674 89.4325 79.6905 90.9104 79.3698C92.2088 79.0483 93.5516 78.9447 94.884 79.0631C96.2085 79.2257 97.877 81.6192 98.76 82.623C100.154 84.2032 100.201 86.6989 99.1968 88.5578C98.193 90.4168 96.3294 91.6902 94.3402 92.4106C92.3511 93.131 90.2272 93.3401 88.1266 93.5678C87.2575 94.7297 86.328 96.1053 85.4589 97.2765Z" fill="#263238"/>
<path d="M96.5927 78.0164C94.5292 76.1574 91.4108 75.7856 88.692 76.5013C86.3915 77.1101 83.7238 77.8212 82.3947 79.7545C81.0655 81.6879 81.7394 84.4392 81.8927 87.1905C84.2935 85.2742 87.1359 83.9896 90.1606 83.4539C90.5185 83.3889 90.8856 83.3424 91.2574 83.3052L91.0762 82.4036C91.0231 82.1469 91.0257 81.8817 91.084 81.6261C91.1422 81.3704 91.2547 81.1303 91.4137 80.9219C91.5728 80.7135 91.7747 80.5416 92.006 80.418C92.2372 80.2944 92.4922 80.2219 92.7539 80.2054C93.1707 80.1822 93.5887 80.1915 94.0041 80.2332C94.5819 80.2927 95.1267 80.5311 95.5625 80.9152C95.9982 81.2993 96.3032 81.8099 96.4347 82.3757C96.5276 82.794 96.6206 83.2169 96.7089 83.598C97.7375 83.779 98.7517 84.0337 99.7437 84.3602C99.0652 82.0969 98.3541 79.6058 96.5927 78.0164Z" fill="#455A64"/>
<path d="M96.3705 82.1856C94.6189 81.7898 92.8073 81.7362 91.0352 82.0276C91.034 82.154 91.0465 82.2802 91.0724 82.404L91.2537 83.3056C93.0757 83.1565 94.9096 83.255 96.7052 83.5984C96.6169 83.2173 96.5239 82.7944 96.431 82.3761C96.4124 82.3111 96.3891 82.2599 96.3705 82.1856Z" fill="#37474F"/>
<path d="M92.1299 96.6679L91.8603 99.6701C91.8497 99.9039 91.9096 100.135 92.0323 100.335C92.1979 100.648 92.2613 101.005 92.2138 101.356C92.1663 101.706 92.0102 102.034 91.7674 102.291C91.382 102.588 90.9105 102.751 90.4243 102.756C89.5102 102.805 88.596 102.661 87.7415 102.332C86.887 102.004 86.1114 101.499 85.4654 100.851C85.3355 100.714 85.234 100.553 85.167 100.376C85.1 100.2 85.0687 100.012 85.075 99.8235L85.2702 92.2109L92.1299 96.6679Z" fill="#FFA8A7"/>
<path d="M92.1299 96.6679L91.8603 99.6701C91.8497 99.9039 91.9096 100.135 92.0323 100.335C92.1979 100.648 92.2613 101.005 92.2138 101.356C92.1663 101.706 92.0102 102.034 91.7674 102.291C91.382 102.588 90.9105 102.751 90.4243 102.756C89.5102 102.805 88.596 102.661 87.7415 102.332C86.887 102.004 86.1114 101.499 85.4654 100.851C85.3355 100.714 85.234 100.553 85.167 100.376C85.1 100.2 85.0687 100.012 85.075 99.8235L85.2702 92.2109L92.1299 96.6679Z" fill="#FFA8A7"/>
<path opacity="0.2" d="M87.5044 98.1583C88.2616 98.8106 89.1822 99.2444 90.1674 99.4131C90.7507 99.4938 91.3448 99.4349 91.9009 99.2411L92.1286 96.6711L85.2689 92.2002L85.1992 94.9887C85.6871 96.2232 86.4802 97.3138 87.5044 98.1583Z" fill="black"/>
<path d="M94.6823 87.3739C95.329 87.0698 95.8744 86.5857 96.2532 85.9797C94.9017 86.5965 93.4565 86.983 91.9775 87.1229C92.5445 86.6303 93.0836 86.0726 93.6506 85.58C92.6367 85.9229 91.5948 86.1764 90.5368 86.3375C91.1271 86.0344 91.6527 85.6192 92.0844 85.1152C90.4253 85.8901 88.6461 86.3757 86.8234 86.5513C86.7423 86.6606 86.6896 86.7884 86.6701 86.9231L86.3912 89.0842C86.3944 89.2378 86.3631 89.3903 86.2996 89.5302C86.236 89.6702 86.1419 89.7941 86.0241 89.8928C85.8964 89.9528 85.7536 89.9729 85.6143 89.9505C85.475 89.9282 85.3457 89.8643 85.2433 89.7674C85.0427 89.5671 84.8846 89.3284 84.7785 89.0656C84.553 88.5205 84.251 88.0104 83.8816 87.5505C83.6941 87.3218 83.4598 87.1359 83.1944 87.0052C82.9291 86.8746 82.6389 86.8022 82.3433 86.793C81.3812 86.8162 80.6469 87.7782 80.5447 88.7356C80.4976 89.2304 80.5746 89.7291 80.7685 90.1867C80.9624 90.6443 81.2672 91.0465 81.6554 91.3568C82.0555 91.6406 82.5202 91.8199 83.0072 91.8783C83.4942 91.9368 83.9881 91.8725 84.4439 91.6914C84.0071 93.3599 84.8808 95.1491 86.1774 96.2831C87.4741 97.4171 89.1379 98.0306 90.7598 98.6069C91.6475 98.9275 92.5863 99.2529 93.5112 99.0716C94.2653 98.9019 94.941 98.4847 95.4306 97.8865C95.9174 97.2911 96.3165 96.6291 96.6157 95.9206C98.0791 92.7611 98.9126 89.3466 99.0695 85.8681C97.8324 86.8752 96.2771 87.409 94.6823 87.3739Z" fill="#FFA8A7"/>
<path d="M93.4748 90.7754L94.8319 94.3632L92.457 94.3911L93.4748 90.7754Z" fill="#F28F8F"/>
<path d="M89.8261 95.083L92.3171 96.1101C92.1264 96.3975 91.8473 96.6151 91.522 96.73C91.1967 96.8448 90.8429 96.8507 90.5139 96.7468C89.9051 96.5144 89.696 95.7383 89.8261 95.083Z" fill="#F28F8F"/>
<path opacity="0.3" d="M89.8261 95.083L92.3171 96.1101C92.1264 96.3975 91.8473 96.6151 91.522 96.73C91.1967 96.8448 90.8429 96.8507 90.5139 96.7468C89.9051 96.5144 89.696 95.7383 89.8261 95.083Z" fill="black"/>
<path d="M91.358 96.7746C91.0795 96.8496 90.785 96.8399 90.5121 96.7467C90.2832 96.6347 90.0923 96.4577 89.9633 96.2378C89.8344 96.018 89.7731 95.765 89.7871 95.5104C90.1608 95.4809 90.5317 95.5953 90.8238 95.8303C91.1158 96.0654 91.3069 96.4032 91.358 96.7746Z" fill="#F28F8F"/>
<path d="M90.1187 90.1186C90.0706 90.2899 90.0926 90.4733 90.1797 90.6285C90.2669 90.7836 90.4121 90.8978 90.5834 90.9459C90.7548 90.9939 90.9382 90.972 91.0933 90.8848C91.2485 90.7976 91.3626 90.6524 91.4107 90.4811C91.4345 90.3963 91.4414 90.3076 91.4309 90.2201C91.4204 90.1326 91.3928 90.048 91.3497 89.9712C91.3065 89.8944 91.2486 89.8268 91.1794 89.7724C91.1101 89.7179 91.0308 89.6777 90.9459 89.6539C90.8611 89.6301 90.7724 89.6232 90.6849 89.6337C90.5975 89.6441 90.5129 89.6717 90.4361 89.7149C90.3593 89.7581 90.2917 89.8159 90.2372 89.8852C90.1828 89.9545 90.1425 90.0338 90.1187 90.1186Z" fill="#263238"/>
<path d="M95.4742 91.2407C95.4261 91.412 95.4481 91.5954 95.5352 91.7505C95.6224 91.9057 95.7676 92.0198 95.9389 92.0679C96.1102 92.116 96.2936 92.094 96.4488 92.0069C96.6039 91.9197 96.7181 91.7745 96.7662 91.6032C96.79 91.5183 96.7968 91.4296 96.7864 91.3422C96.7759 91.2547 96.7483 91.1701 96.7051 91.0933C96.662 91.0165 96.6041 90.9489 96.5348 90.8945C96.4656 90.84 96.3863 90.7997 96.3014 90.7759C96.2166 90.7521 96.1279 90.7453 96.0404 90.7557C95.9529 90.7662 95.8684 90.7938 95.7915 90.837C95.7147 90.8801 95.6472 90.938 95.5927 91.0073C95.5383 91.0765 95.498 91.1558 95.4742 91.2407Z" fill="#263238"/>
<path d="M96.9297 87.9347L98.0823 89.3289C98.1975 89.1702 98.2596 88.979 98.2596 88.7828C98.2596 88.5866 98.1975 88.3955 98.0823 88.2367C97.9377 88.0835 97.753 87.9739 97.5493 87.9205C97.3455 87.8671 97.1308 87.872 96.9297 87.9347Z" fill="#263238"/>
<path d="M90.9984 86.8288L89.2881 87.419C89.2725 87.2247 89.3185 87.0304 89.4194 86.8636C89.5203 86.6968 89.6711 86.5659 89.8505 86.4895C90.0544 86.4328 90.2701 86.4346 90.4731 86.4946C90.6761 86.5545 90.8581 86.6703 90.9984 86.8288Z" fill="#263238"/>
<path d="M52.7015 120.761L80.7025 142.455C81.557 143.116 82.2668 143.946 82.788 144.892C83.3092 145.839 83.6307 146.882 83.7327 147.958L86.8743 180.871C86.7012 181.032 86.4793 181.131 86.2436 181.152C86.008 181.173 85.772 181.115 85.5731 180.987L79.9961 147.944C79.9026 147.38 79.688 146.844 79.367 146.371C79.0461 145.899 78.6265 145.501 78.1371 145.206L53.3847 130.376C50.1407 128.448 49.5691 121.63 52.7015 120.761Z" fill="#455A64"/>
<path opacity="0.3" d="M52.7015 120.761L80.7025 142.455C81.557 143.116 82.2668 143.946 82.788 144.892C83.3092 145.839 83.6307 146.882 83.7327 147.958L86.8743 180.871C86.7012 181.032 86.4793 181.131 86.2436 181.152C86.008 181.173 85.772 181.115 85.5731 180.987L79.9961 147.944C79.9026 147.38 79.688 146.844 79.367 146.371C79.0461 145.899 78.6265 145.501 78.1371 145.206L53.3847 130.376C50.1407 128.448 49.5691 121.63 52.7015 120.761Z" fill="white"/>
<path d="M94.6094 131.681C94.6094 131.681 94.6094 131.704 94.6094 131.714V131.751L95.3065 132.541C95.3065 132.541 95.3065 132.509 95.3065 132.49C95.3344 132.611 95.511 132.606 95.8131 132.439L101.627 129.186C102.077 128.925 102.459 128.562 102.742 128.126L107.822 118.701C107.901 118.543 107.901 118.45 107.822 118.408H107.845L107.153 117.613C107.141 117.601 107.128 117.592 107.113 117.586C107.097 117.579 107.081 117.576 107.065 117.576H106.958H106.925H106.893H106.865H106.832H106.804H106.772H106.739H106.707H106.674L100.86 120.829H100.828H100.795H100.763H100.735H100.712L100.637 120.894V120.918V120.946V120.973L100.614 121.001V121.034V121.062V121.094V121.122V121.15V121.178V121.206L95.5575 130.617V130.64C95.5575 130.64 95.5575 130.64 95.5575 130.668V130.696V130.719C95.5575 130.719 95.5575 130.719 95.5575 130.747C95.5575 130.775 95.5575 130.747 95.5575 130.77V130.808L94.6094 131.681ZM107.655 118.394H107.678C107.678 118.394 107.701 118.394 107.72 118.394C107.698 118.39 107.676 118.39 107.655 118.394ZM95.3065 132.453C95.3174 132.392 95.3395 132.334 95.3716 132.281C95.3375 132.339 95.3153 132.404 95.3065 132.471V132.453Z" fill="#455A64"/>
<path d="M60.4727 177.549L62.4571 178.701L62.4478 176.41L60.4727 177.549Z" fill="#E6E6E6"/>
<path d="M62.3715 154.172L43.0938 165.298L62.3715 154.172Z" fill="#CFCFCF"/>
<path d="M62.4473 176.409V178.7L64.5108 177.51L64.4411 150.578L41.0039 164.112L41.0783 191.039L43.1417 189.849V187.558L60.4722 177.533L62.4473 176.409ZM43.0906 165.297L62.3683 154.171L62.3916 162.903L43.1185 174.057L43.0906 165.297ZM43.1232 176.423L62.4009 165.292V165.32V174.029L43.1464 185.155L43.1232 176.423Z" fill="#E0E0E0"/>
<path d="M62.426 174.03L62.4027 165.321V165.298L43.125 176.424L43.1482 185.157L62.426 174.03Z" fill="#E0E0E0"/>
<path d="M62.3947 162.904L62.3715 154.172L43.0938 165.298L43.1216 174.035L62.3947 162.904Z" fill="#E0E0E0"/>
<path d="M41.0058 164.112L20.543 152.219L20.6173 179.151L41.0802 191.039L41.0058 164.112Z" fill="#E0E0E0"/>
<path d="M41.0058 164.112L64.443 150.578L43.9802 138.686L20.543 152.219L41.0058 164.112Z" fill="#E0E0E0"/>
<path opacity="0.2" d="M60.4727 177.549L62.4571 178.701L62.4478 176.41L60.4727 177.549Z" fill="white"/>
<path d="M62.3715 154.172L43.0938 165.298L62.3715 154.172Z" fill="#CFCFCF"/>
<path opacity="0.8" d="M62.426 174.03L62.4027 165.321V165.298L43.125 176.424L43.1482 185.157L62.426 174.03Z" fill="white"/>
<path opacity="0.8" d="M62.3947 162.904L62.3715 154.172L43.0938 165.298L43.1216 174.035L62.3947 162.904Z" fill="white"/>
<path d="M56.0854 161.045L56.0761 159.842L49.4023 163.695L49.407 164.903L56.0854 161.045Z" fill="#E0E0E0"/>
<path d="M56.0854 172.019L56.0761 170.811L49.4023 174.663L49.407 175.872L56.0854 172.019Z" fill="#E0E0E0"/>
<path opacity="0.2" d="M41.0058 164.112L20.543 152.219L20.6173 179.151L41.0802 191.039L41.0058 164.112Z" fill="white"/>
<path opacity="0.4" d="M41.0058 164.112L64.443 150.578L43.9802 138.686L20.543 152.219L41.0058 164.112Z" fill="white"/>
<path opacity="0.05" d="M36.4613 145.635C39.0639 144.129 43.2698 144.129 45.8538 145.635C48.4378 147.141 48.4239 149.572 45.8213 151.077C43.2187 152.583 39.0127 152.579 36.4287 151.077C33.8447 149.576 33.8587 147.136 36.4613 145.635Z" fill="black"/>
<path d="M34.1992 136.171L41.3377 136.38L48.4809 136.171C48.7876 140.995 47.8442 145.907 46.5475 148.31C46.2461 148.925 45.7581 149.429 45.1533 149.751C43.048 150.968 39.6414 150.968 37.55 149.751C36.934 149.427 36.4434 148.907 36.1558 148.273C34.8266 145.861 33.8925 140.976 34.1992 136.171Z" fill="white"/>
<path d="M36.3097 133.253C33.5212 134.871 33.4933 137.487 36.2725 139.104C39.0517 140.722 43.5737 140.717 46.3714 139.104C49.1692 137.492 49.1599 134.871 46.404 133.253C43.648 131.636 39.1074 131.641 36.3097 133.253Z" fill="#EBEBEB"/>
<path d="M37.4187 133.894C35.2344 135.158 35.2251 137.198 37.3908 138.457C39.5565 139.717 43.0886 139.717 45.2915 138.457C47.4944 137.198 47.4851 135.158 45.3194 133.894C43.1537 132.629 39.5983 132.634 37.4187 133.894Z" fill="#E0E0E0"/>
<g opacity="0.15">
<path d="M37.4187 133.893C35.2344 135.157 35.2251 137.197 37.3908 138.456C39.5565 139.716 43.0886 139.716 45.2915 138.456C47.4944 137.197 47.4851 135.157 45.3194 133.893C43.1537 132.629 39.5983 132.633 37.4187 133.893Z" fill="black"/>
</g>
<path d="M41.9396 136.382C41.367 136.859 40.6895 137.194 39.9626 137.36C39.2356 137.526 38.4798 137.517 37.7569 137.334C37.0601 137.122 36.4273 136.739 35.9153 136.22C35.4034 135.702 35.0285 135.064 34.8244 134.365C35.6695 133.963 36.4435 133.426 37.1156 132.775C36.042 132.505 34.9139 132.546 33.8623 132.891C33.5716 132.435 33.3971 131.914 33.3542 131.374C33.3113 130.835 33.4011 130.293 33.616 129.796C34.8346 129.254 36.2054 129.158 37.4874 129.527C36.9555 129.062 36.3332 128.713 35.6597 128.501C34.9862 128.289 34.2761 128.219 33.5742 128.295C33.4698 126.248 33.7861 124.201 34.5037 122.281C37.1667 122.421 39.746 123.564 40.6198 124.391C40.658 125.344 40.5578 126.297 40.3223 127.222C40.666 127.045 40.9596 126.785 41.1757 126.465C41.3919 126.145 41.5235 125.775 41.5585 125.39C43.227 125.809 43.9381 126.641 44.1983 127.273C43.9591 128.457 43.4162 129.559 42.6228 130.47C44.1844 130.005 44.8211 128.253 44.8211 128.253C46.3687 131.897 46.0759 136.024 41.9396 136.382Z" fill="#A40F0F"/>
<path opacity="0.2" d="M41.9396 136.382C41.367 136.859 40.6895 137.194 39.9626 137.36C39.2356 137.526 38.4798 137.517 37.7569 137.334C37.0601 137.122 36.4273 136.739 35.9153 136.22C35.4034 135.702 35.0285 135.064 34.8244 134.365C35.6695 133.963 36.4435 133.426 37.1156 132.775C36.042 132.505 34.9139 132.546 33.8623 132.891C33.5716 132.435 33.3971 131.914 33.3542 131.374C33.3113 130.835 33.4011 130.293 33.616 129.796C34.8346 129.254 36.2054 129.158 37.4874 129.527C36.9555 129.062 36.3332 128.713 35.6597 128.501C34.9862 128.289 34.2761 128.219 33.5742 128.295C33.4698 126.248 33.7861 124.201 34.5037 122.281C37.1667 122.421 39.746 123.564 40.6198 124.391C40.658 125.344 40.5578 126.297 40.3223 127.222C40.666 127.045 40.9596 126.785 41.1757 126.465C41.3919 126.145 41.5235 125.775 41.5585 125.39C43.227 125.809 43.9381 126.641 44.1983 127.273C43.9591 128.457 43.4162 129.559 42.6228 130.47C44.1844 130.005 44.8211 128.253 44.8211 128.253C46.3687 131.897 46.0759 136.024 41.9396 136.382Z" fill="black"/>
<path opacity="0.3" d="M41.9396 136.382C41.367 136.859 40.6895 137.194 39.9626 137.36C39.2356 137.526 38.4798 137.517 37.7569 137.334C37.0601 137.122 36.4273 136.739 35.9153 136.22C35.4034 135.702 35.0285 135.064 34.8244 134.365C35.6695 133.963 36.4435 133.426 37.1156 132.775C36.042 132.505 34.9139 132.546 33.8623 132.891C33.5716 132.435 33.3971 131.914 33.3542 131.374C33.3113 130.835 33.4011 130.293 33.616 129.796C34.8346 129.254 36.2054 129.158 37.4874 129.527C36.9555 129.062 36.3332 128.713 35.6597 128.501C34.9862 128.289 34.2761 128.219 33.5742 128.295C33.4698 126.248 33.7861 124.201 34.5037 122.281C37.1667 122.421 39.746 123.564 40.6198 124.391C40.658 125.344 40.5578 126.297 40.3223 127.222C40.666 127.045 40.9596 126.785 41.1757 126.465C41.3919 126.145 41.5235 125.775 41.5585 125.39C43.227 125.809 43.9381 126.641 44.1983 127.273C43.9591 128.457 43.4162 129.559 42.6228 130.47C44.1844 130.005 44.8211 128.253 44.8211 128.253C46.3687 131.897 46.0759 136.024 41.9396 136.382Z" fill="white"/>
<path d="M42.0306 136.776C42.0712 136.772 42.1086 136.752 42.1353 136.721C42.162 136.69 42.1761 136.65 42.1746 136.609C41.919 133.249 39.995 127.7 35.4079 123.131C35.3941 123.117 35.3774 123.106 35.3591 123.098C35.3407 123.09 35.321 123.086 35.301 123.086C35.2811 123.086 35.2613 123.09 35.243 123.098C35.2246 123.106 35.208 123.117 35.1941 123.131C35.1797 123.146 35.1682 123.163 35.1603 123.181C35.1525 123.2 35.1484 123.22 35.1484 123.24C35.1484 123.261 35.1525 123.281 35.1603 123.3C35.1682 123.318 35.1797 123.335 35.1941 123.35C39.7208 127.867 41.6169 133.332 41.8679 136.641C41.8697 136.661 41.8753 136.68 41.8844 136.697C41.8935 136.715 41.906 136.73 41.9212 136.743C41.9363 136.755 41.9537 136.765 41.9725 136.77C41.9913 136.776 42.011 136.778 42.0306 136.776Z" fill="#F5F5F5"/>
<path d="M40.7745 138.179C41.3083 138.615 41.9378 138.919 42.6116 139.066C43.2853 139.212 43.9842 139.197 44.6509 139.021C45.3177 138.846 45.9335 138.515 46.448 138.056C46.9625 137.597 47.361 137.023 47.6109 136.38C46.8471 136.037 46.1477 135.565 45.5428 134.986C46.5554 134.745 47.614 134.777 48.6101 135.079C48.9112 134.694 49.1086 134.238 49.1835 133.754C49.2583 133.271 49.2081 132.777 49.0377 132.318C47.8783 131.841 46.5928 131.764 45.3848 132.1C46.4599 131.26 47.8131 130.858 49.1725 130.975C49.405 129.17 49.2303 127.336 48.6612 125.607C46.1237 125.761 43.6141 126.811 42.7403 127.555C42.6426 128.393 42.6771 129.241 42.8426 130.069C42.5364 129.921 42.2765 129.692 42.0913 129.407C41.9061 129.122 41.8027 128.792 41.7923 128.452C40.2028 128.837 39.4685 129.581 39.2036 130.143C39.3539 131.187 39.7989 132.165 40.4863 132.964C40.0408 132.802 39.6375 132.542 39.3068 132.202C38.976 131.863 38.7263 131.453 38.5762 131.003C36.9078 134.233 36.9357 137.867 40.7745 138.179Z" fill="#A40F0F"/>
<path opacity="0.3" d="M40.7745 138.179C41.3083 138.615 41.9378 138.919 42.6116 139.066C43.2853 139.212 43.9842 139.197 44.6509 139.021C45.3177 138.846 45.9335 138.515 46.448 138.056C46.9625 137.597 47.361 137.023 47.6109 136.38C46.8471 136.037 46.1477 135.565 45.5428 134.986C46.5554 134.745 47.614 134.777 48.6101 135.079C48.9112 134.694 49.1086 134.238 49.1835 133.754C49.2583 133.271 49.2081 132.777 49.0377 132.318C47.8783 131.841 46.5928 131.764 45.3848 132.1C46.4599 131.26 47.8131 130.858 49.1725 130.975C49.405 129.17 49.2303 127.336 48.6612 125.607C46.1237 125.761 43.6141 126.811 42.7403 127.555C42.6426 128.393 42.6771 129.241 42.8426 130.069C42.5364 129.921 42.2765 129.692 42.0913 129.407C41.9061 129.122 41.8027 128.792 41.7923 128.452C40.2028 128.837 39.4685 129.581 39.2036 130.143C39.3539 131.187 39.7989 132.165 40.4863 132.964C40.0408 132.802 39.6375 132.542 39.3068 132.202C38.976 131.863 38.7263 131.453 38.5762 131.003C36.9078 134.233 36.9357 137.867 40.7745 138.179Z" fill="white"/>
<path d="M40.6718 138.546C40.7085 138.545 40.7439 138.532 40.7719 138.508C40.7999 138.485 40.8187 138.452 40.8252 138.416C41.262 135.488 43.3859 130.627 47.9451 126.569C47.9596 126.555 47.9711 126.538 47.9789 126.519C47.9868 126.501 47.9908 126.481 47.9908 126.46C47.9908 126.44 47.9868 126.42 47.9789 126.401C47.9711 126.382 47.9596 126.365 47.9451 126.351C47.9312 126.337 47.9146 126.325 47.8963 126.317C47.8779 126.31 47.8582 126.306 47.8382 126.306C47.8183 126.306 47.7985 126.31 47.7802 126.317C47.7618 126.325 47.7452 126.337 47.7313 126.351C43.1117 130.469 40.9553 135.404 40.5091 138.383C40.5038 138.423 40.5145 138.464 40.5389 138.496C40.5632 138.528 40.5993 138.549 40.6393 138.555L40.6718 138.546Z" fill="white"/>
<path d="M92.6219 36.3164L73.8786 47.0055C73.4563 47.2537 73.1057 47.6073 72.8613 48.0318C72.6168 48.4563 72.487 48.9371 72.4844 49.4269V67.0129C72.4966 67.4988 72.6371 67.9728 72.8916 68.3868C73.1462 68.8009 73.5057 69.1402 73.9337 69.3705C74.3617 69.6008 74.8429 69.7138 75.3287 69.6981C75.8145 69.6823 76.2874 69.5384 76.6996 69.2809L82.0442 66.2693L82.2673 66.6318C82.2774 66.645 82.2901 66.6561 82.3045 66.6644H82.3324C82.7413 66.9339 83.4617 67.3243 83.6244 67.4033C83.662 67.4153 83.7028 67.4124 83.7383 67.3951C83.7738 67.3777 83.8012 67.3474 83.8149 67.3104L84.7444 64.7124L95.4336 58.5917C95.8591 58.346 96.2122 57.9923 96.457 57.5662C96.7019 57.1402 96.8298 56.6571 96.8278 56.1657V38.575C96.8418 36.572 93.8813 35.596 92.6219 36.3164Z" fill="#A40F0F"/>
<path opacity="0.2" d="M82.2582 66.6505C82.2683 66.6637 82.281 66.6747 82.2954 66.683H82.3233C82.7323 66.9526 83.4526 67.343 83.6153 67.422C83.5962 67.418 83.5781 67.4102 83.5621 67.399C83.5462 67.3878 83.5326 67.3735 83.5223 67.3569L82.6393 65.9208L82.8113 65.8232L82.0352 66.288L82.2582 66.6505Z" fill="white"/>
<path opacity="0.4" d="M75.6112 49.654C75.7923 49.2949 76.0473 48.9781 76.3595 48.7245C76.4662 48.6381 76.5796 48.5603 76.6987 48.4921L95.4373 37.8029C95.5789 37.7212 95.7395 37.6782 95.903 37.6784C96.0665 37.6785 96.227 37.7218 96.3684 37.8038C96.5099 37.8858 96.6271 38.0037 96.7085 38.1455C96.7898 38.2873 96.8322 38.4481 96.8316 38.6116C96.8316 36.5992 93.8665 35.6232 92.6117 36.3436L73.8684 47.0328C73.4333 47.2835 73.0749 47.6483 72.832 48.0878L75.6112 49.654Z" fill="white"/>
<path opacity="0.2" d="M75.2918 68.4942V50.9082C75.2847 50.7983 75.2847 50.6881 75.2918 50.5782C75.3386 50.2546 75.4375 49.9407 75.5846 49.6487L72.7961 48.0732C72.5599 48.49 72.4351 48.9606 72.4336 49.4396V67.0256C72.4458 67.5115 72.5863 67.9855 72.8409 68.3995C73.0954 68.8136 73.4549 69.153 73.8829 69.3832C74.3109 69.6135 74.7922 69.7265 75.2779 69.7108C75.7637 69.695 76.2367 69.5511 76.6488 69.2936C76.5091 69.3661 76.3532 69.4019 76.1959 69.3976C76.0385 69.3934 75.8848 69.3493 75.7492 69.2694C75.6135 69.1895 75.5004 69.0764 75.4204 68.9409C75.3404 68.8053 75.2962 68.6516 75.2918 68.4942Z" fill="white"/>
<path d="M88.664 58.8936C88.6268 59.7301 87.7345 61.1104 86.8608 61.6449L86.7864 61.6913C85.8569 62.2258 84.9599 61.9609 84.8438 61.1011L88.664 58.8936Z" fill="white"/>
<path d="M92.0222 55.0314C92.2593 55.1197 92.3336 55.617 92.171 56.012C92.0892 56.2278 91.9369 56.4096 91.7387 56.5279L91.2229 56.83L90.707 57.1274L86.7567 59.4047L81.8536 62.2397C81.4446 62.472 81.2726 62.3605 81.254 61.905C81.2497 61.5898 81.3475 61.2816 81.5329 61.0267C82.0672 60.1796 82.4172 59.2295 82.56 58.2382C82.6929 57.3148 82.7551 56.3826 82.7459 55.4497C82.7344 54.9122 82.764 54.3747 82.8342 53.8417C83.1128 52.2303 83.8299 50.7268 84.907 49.4963C85.0452 49.3742 85.1495 49.2185 85.2098 49.0443C85.27 48.87 85.2842 48.6831 85.2509 48.5017C85.2292 47.9384 85.3525 47.379 85.6088 46.877C85.8651 46.375 86.2459 45.9471 86.7148 45.6342C86.9582 45.481 87.2483 45.42 87.5328 45.4623C88.0626 45.5599 88.2857 46.02 88.1927 46.8007C88.137 47.2655 88.1927 47.3817 88.5506 47.4003C89.9448 47.4839 90.6745 48.4227 90.7302 50.2213C90.7581 51.0997 90.7767 51.978 90.8371 52.8332C90.858 53.4161 91.0276 53.9841 91.3298 54.483C91.4951 54.736 91.7381 54.9285 92.0222 55.0314ZM87.5746 54.3761L87.9743 49.5892L85.5158 51.0114L85.9387 55.3196L87.5886 54.3901M86.7706 57.792C87.1161 57.5877 87.4066 57.3024 87.6171 56.9607C87.8277 56.619 87.9518 56.2312 87.9789 55.8308C87.9789 55.1244 87.4817 54.8734 86.766 55.287C86.4203 55.4865 86.1292 55.7681 85.9184 56.107C85.7076 56.4458 85.5837 56.8315 85.5576 57.2297C85.5576 57.9221 86.0595 58.2056 86.7706 57.792ZM86.7381 46.7961C86.5918 46.8911 86.4701 47.0194 86.3829 47.1704C86.2956 47.3215 86.2454 47.491 86.2361 47.6652C86.2361 47.9812 86.4592 48.1067 86.7334 47.9533C86.8791 47.8587 87.0004 47.7312 87.0876 47.581C87.1748 47.4309 87.2254 47.2623 87.2353 47.0889C87.2353 46.7682 87.0123 46.6241 86.7334 46.7961" fill="white"/>
</svg>
