<svg width="25" height="25" viewBox="0 0 25 25" fill="none" xmlns="http://www.w3.org/2000/svg">
<g clip-path="url(#clip0_726_216)">
<path d="M20.8746 2.41932C21.9329 2.04952 22.9496 3.06619 22.5798 4.12452L16.4079 21.7599C16.0069 22.9037 14.4131 22.9683 13.9215 21.861L10.9433 15.161L15.135 10.9683C15.273 10.8202 15.3481 10.6243 15.3446 10.4219C15.341 10.2195 15.259 10.0264 15.1159 9.88325C14.9727 9.74011 14.7796 9.65812 14.5772 9.65455C14.3748 9.65098 14.1789 9.72611 14.0308 9.86411L9.83814 14.0558L3.13814 11.0777C2.03084 10.5849 2.09647 8.99223 3.23918 8.59119L20.8746 2.41932Z" fill="#F1B0AA"/>
</g>
<defs>
<clipPath id="clip0_726_216">
<rect width="25" height="25" fill="white"/>
</clipPath>
</defs>
</svg>
