<svg width="25" height="25" viewBox="0 0 25 25" fill="none" xmlns="http://www.w3.org/2000/svg">
<g clip-path="url(#clip0_726_132)">
<path d="M21.875 4.6875C21.875 4.2731 21.7104 3.87567 21.4174 3.58265C21.1243 3.28962 20.7269 3.125 20.3125 3.125H17.1875V1.5625H15.625V3.125H9.375V1.5625H7.8125V3.125H4.6875C4.2731 3.125 3.87567 3.28962 3.58265 3.58265C3.28962 3.87567 3.125 4.2731 3.125 4.6875V20.3125C3.125 20.7269 3.28962 21.1243 3.58265 21.4174C3.87567 21.7104 4.2731 21.875 4.6875 21.875H7.8125V20.3125H4.6875V4.6875H7.8125V6.25H9.375V4.6875H15.625V6.25H17.1875V4.6875H20.3125V9.375H21.875V4.6875Z" fill="#F1B0AA"/>
<path d="M16.4062 11.7188L18.3977 15.5766L22.6562 16.1945L19.5312 19.1977L20.3125 23.4375L16.4062 21.4359L12.5 23.4375L13.2812 19.1977L10.1562 16.1945L14.5313 15.5766L16.4062 11.7188Z" fill="#F1B0AA"/>
</g>
<defs>
<clipPath id="clip0_726_132">
<rect width="25" height="25" fill="white"/>
</clipPath>
</defs>
</svg>
