<svg width="9" height="9" viewBox="0 0 9 9" fill="none" xmlns="http://www.w3.org/2000/svg">
<path d="M4.5 0C5.69347 0 6.83807 0.474106 7.68198 1.31802C8.52589 2.16193 9 3.30653 9 4.5C9 5.69347 8.52589 6.83807 7.68198 7.68198C6.83807 8.52589 5.69347 9 4.5 9C3.30653 9 2.16193 8.52589 1.31802 7.68198C0.474106 6.83807 0 5.69347 0 4.5C0 3.30653 0.474106 2.16193 1.31802 1.31802C2.16193 0.474106 3.30653 0 4.5 0ZM4.5 8.35714C5.52298 8.35714 6.50406 7.95077 7.22741 7.22741C7.95077 6.50406 8.35714 5.52298 8.35714 4.5C8.35714 3.47702 7.95077 2.49594 7.22741 1.77259C6.50406 1.04923 5.52298 0.642857 4.5 0.642857C3.47702 0.642857 2.49594 1.04923 1.77259 1.77259C1.04923 2.49594 0.642857 3.47702 0.642857 4.5C0.642857 5.52298 1.04923 6.50406 1.77259 7.22741C2.49594 7.95077 3.47702 8.35714 4.5 8.35714ZM4.98214 6.58929C4.98214 6.71716 4.93135 6.83979 4.84093 6.93021C4.75051 7.02063 4.62787 7.07143 4.5 7.07143C4.37213 7.07143 4.24949 7.02063 4.15907 6.93021C4.06865 6.83979 4.01786 6.71716 4.01786 6.58929C4.01786 6.46141 4.06865 6.33878 4.15907 6.24836C4.24949 6.15794 4.37213 6.10714 4.5 6.10714C4.62787 6.10714 4.75051 6.15794 4.84093 6.24836C4.93135 6.33878 4.98214 6.46141 4.98214 6.58929ZM4.5 1.92857C4.58525 1.92857 4.66701 1.96244 4.72728 2.02272C4.78756 2.083 4.82143 2.16475 4.82143 2.25V5.14286C4.82143 5.22811 4.78756 5.30986 4.72728 5.37014C4.66701 5.43042 4.58525 5.46429 4.5 5.46429C4.41475 5.46429 4.333 5.43042 4.27272 5.37014C4.21244 5.30986 4.17857 5.22811 4.17857 5.14286V2.25C4.17857 2.16475 4.21244 2.083 4.27272 2.02272C4.333 1.96244 4.41475 1.92857 4.5 1.92857Z" fill="#840000"/>
</svg>
