<svg width="649" height="182" viewBox="0 0 649 182" fill="none" xmlns="http://www.w3.org/2000/svg">
<path d="M0 180.919C43.362 197.537 90.6781 3.94967 137.518 3.94967C184.358 3.94967 211.12 42.9804 258.134 42.9804C305.149 42.9804 311.915 3.94967 358.93 3.94967C405.944 3.94967 454.462 65.4272 500.952 65.5729" fill="#B60D22"/>
<path d="M66.2773 176.179C117.258 176.179 166.732 3.95032 218.192 3.95032C269.652 3.95032 286.62 59.2532 338.272 59.2532C389.924 59.2532 427.782 15.0109 479.434 15.0109C531.086 15.0109 592.759 175.965 643.836 176.179" fill="#942742"/>
<path d="M123.945 149.318C174.926 149.318 230.425 0.000172853 281.885 0.000172853C333.345 0.000172853 357.818 67.73 409.471 67.73C461.123 67.73 467.374 27.6516 519.026 27.6516C570.679 27.6516 597.922 149.104 648.998 149.318" fill="#840000"/>
</svg>
