<svg width="390" height="147" viewBox="0 0 390 147" fill="none" xmlns="http://www.w3.org/2000/svg">
<path d="M-156 180.919C-112.638 197.537 -65.3219 3.94968 -18.4819 3.94968C28.3581 3.94968 55.1196 42.9804 102.134 42.9804C149.149 42.9804 155.915 3.94968 202.93 3.94968C249.944 3.94968 298.462 65.4272 344.952 65.5729" fill="#B60D22"/>
<path d="M-89.7207 176.179C-38.7405 176.179 10.7336 3.95032 62.1938 3.95032C113.654 3.95032 130.622 59.2532 182.274 59.2532C233.926 59.2532 271.783 15.0109 323.436 15.0109C375.088 15.0109 436.761 175.965 487.838 176.179" fill="#942742"/>
<path d="M-32.0527 149.318C18.9275 149.318 74.4267 0.000167847 125.887 0.000167847C177.347 0.000167847 201.82 67.73 253.473 67.73C305.125 67.73 311.376 27.6516 363.028 27.6516C414.68 27.6516 441.924 149.104 493 149.318" fill="#840000"/>
</svg>
