<svg width="60" height="60" viewBox="0 0 60 60" fill="none" xmlns="http://www.w3.org/2000/svg">
<circle cx="30" cy="30" r="30" fill="url(#paint0_linear_50_37)"/>
<path fill-rule="evenodd" clip-rule="evenodd" d="M19.6278 25.0228C19.2031 25.9482 19.2031 27.0006 19.2031 29.1055V35.6775C19.2031 38.6024 19.2031 40.064 20.1114 40.9708C20.9345 41.7954 22.2148 41.8697 24.6281 41.8775V34.1275C24.6281 33.3053 24.9547 32.5168 25.5361 31.9355C26.1175 31.3541 26.906 31.0275 27.7281 31.0275H32.3781C33.2003 31.0275 33.9888 31.3541 34.5702 31.9355C35.1515 32.5168 35.4781 33.3053 35.4781 34.1275V41.8775C37.8915 41.8697 39.1718 41.7938 39.9948 40.9692C40.9031 40.0609 40.9031 38.6008 40.9031 35.6775V29.1055C40.9031 27.0006 40.9031 25.9482 40.4784 25.0228C40.0522 24.0975 39.2539 23.4139 37.6559 22.0437L36.1059 20.7154C33.2151 18.24 31.7736 17 30.0531 17C28.3326 17 26.8896 18.2385 24.0004 20.7138L22.4504 22.0422C20.8539 23.4124 20.0541 24.0959 19.6294 25.0212M32.3781 41.8775V34.1275H27.7281V41.8775H32.3781Z" fill="#E6E6E6"/>
<defs>
<linearGradient id="paint0_linear_50_37" x1="30" y1="0" x2="30" y2="60" gradientUnits="userSpaceOnUse">
<stop stop-color="#840000"/>
<stop offset="1" stop-color="#B60D22"/>
</linearGradient>
</defs>
</svg>
