<svg width="60" height="60" viewBox="0 0 60 60" fill="none" xmlns="http://www.w3.org/2000/svg">
<circle cx="30" cy="30" r="30" fill="url(#paint0_linear_986_79)"/>
<path fill-rule="evenodd" clip-rule="evenodd" d="M19.4247 26.0228C19 26.9482 19 28.0006 19 30.1055V36.6775C19 39.6024 19 41.064 19.9083 41.9708C20.7314 42.7954 22.0117 42.8697 24.425 42.8775V35.1275C24.425 34.3053 24.7516 33.5168 25.333 32.9355C25.9143 32.3541 26.7028 32.0275 27.525 32.0275H32.175C32.9972 32.0275 33.7857 32.3541 34.367 32.9355C34.9484 33.5168 35.275 34.3053 35.275 35.1275V42.8775C37.6884 42.8697 38.9687 42.7938 39.7917 41.9692C40.7 41.0609 40.7 39.6008 40.7 36.6775V30.1055C40.7 28.0006 40.7 26.9482 40.2753 26.0228C39.8491 25.0975 39.0508 24.4139 37.4528 23.0437L35.9028 21.7154C33.012 19.24 31.5705 18 29.85 18C28.1295 18 26.6865 19.2385 23.7973 21.7138L22.2472 23.0422C20.6507 24.4124 19.851 25.0959 19.4263 26.0212M32.175 42.8775V35.1275H27.525V42.8775H32.175Z" fill="#E6E6E6"/>
<defs>
<linearGradient id="paint0_linear_986_79" x1="30" y1="0" x2="30" y2="60" gradientUnits="userSpaceOnUse">
<stop stop-color="#72147E"/>
<stop offset="1" stop-color="#8B2252"/>
</linearGradient>
</defs>
</svg>
